<svg width="502" height="467" viewBox="0 0 502 467" fill="none" xmlns="http://www.w3.org/2000/svg">
<path d="M259.884 467C391.765 467 498.675 461.479 498.675 454.668C498.675 447.857 391.765 442.335 259.884 442.335C128.002 442.335 21.0917 447.857 21.0917 454.668C21.0917 461.479 128.002 467 259.884 467Z" fill="#CED3E6"/>
<path d="M415.193 454.603H98.3108V440.865C98.3108 429.43 107.577 420.155 119 420.155H394.504C405.927 420.155 415.193 429.43 415.193 440.865V454.603Z" fill="white"/>
<path d="M313.295 346.33H198.428V420.142H313.295V346.33Z" fill="white"/>
<path d="M198.428 368.992L313.282 359.794L313.308 346.33L198.441 346.46L198.428 368.992Z" fill="#CED3E6"/>
<path d="M501.625 41.5075V330.993C501.625 339.475 494.751 346.356 486.278 346.356H15.3477C6.87463 346.356 0 339.475 0 330.993V41.5075C0 33.0257 6.87463 26.1441 15.3477 26.1441H486.278C486.512 26.1441 486.733 26.1441 486.954 26.1571C487.123 26.1701 487.291 26.1701 487.447 26.1831H487.46C487.577 26.1961 487.694 26.1961 487.811 26.2221C488.006 26.2351 488.201 26.2612 488.409 26.2872C488.539 26.3002 488.669 26.3262 488.799 26.3522C488.864 26.3652 488.916 26.3652 488.981 26.3782C489.111 26.3912 489.228 26.4173 489.358 26.4563C496.362 27.8872 501.625 34.0794 501.625 41.5075Z" fill="white"/>
<path d="M262.68 333.593C267.114 329.764 267.608 323.061 263.784 318.622C259.959 314.183 253.263 313.688 248.828 317.517C244.394 321.346 243.899 328.049 247.724 332.488C251.549 336.927 258.245 337.422 262.68 333.593Z" fill="#CED3E6"/>
<path d="M489.371 26.4563C489.241 26.4303 489.124 26.4042 488.994 26.3782C488.929 26.3652 488.877 26.3522 488.812 26.3522C488.682 26.3262 488.552 26.3002 488.422 26.2872C488.227 26.2612 488.032 26.2351 487.824 26.2221C487.707 26.2091 487.59 26.1961 487.473 26.1831H487.46C487.292 26.1701 487.136 26.1571 486.967 26.1571C486.746 26.1441 486.512 26.1441 486.291 26.1441H15.3477C6.87463 26.1441 0 33.0257 0 41.5075V309.58H501.625V41.5075C501.625 34.0794 496.362 27.8872 489.371 26.4563ZM481.729 282.795C481.729 285.111 479.858 286.971 477.558 286.971H24.0676C21.7544 286.971 19.8961 285.098 19.8961 282.795V50.2364C19.8961 47.9208 21.7674 46.0606 24.0676 46.0606H477.558C479.871 46.0606 481.729 47.9338 481.729 50.2364V282.795Z" fill="#39393B"/>
<path d="M481.729 50.2364V282.795C481.729 285.111 479.858 286.971 477.558 286.971H24.0676C21.7544 286.971 19.8961 285.098 19.8961 282.795V50.2364C19.8961 47.9208 21.7674 46.0606 24.0676 46.0606H477.558C479.858 46.0606 481.729 47.9338 481.729 50.2364Z" fill="#CED3E6"/>
<path d="M481.729 50.2364V72.1823H19.8961V50.2364C19.8961 47.9208 21.7674 46.0606 24.0676 46.0606H477.558C479.858 46.0606 481.729 47.9338 481.729 50.2364Z" fill="white"/>
<path d="M445.953 58.7702C445.953 60.7345 444.367 62.3216 442.405 62.3216C440.443 62.3216 438.857 60.7345 438.857 58.7702C438.857 56.8059 440.443 55.2188 442.405 55.2188C444.367 55.2188 445.953 56.8059 445.953 58.7702Z" fill="#DF615C"/>
<path d="M457.454 58.7702C457.454 60.7345 455.868 62.3216 453.906 62.3216C451.944 62.3216 450.358 60.7345 450.358 58.7702C450.358 56.8059 451.944 55.2188 453.906 55.2188C455.868 55.2188 457.454 56.8059 457.454 58.7702Z" fill="#21B573"/>
<path d="M424.458 62.5297H63.379C61.6376 62.5297 60.2211 61.0988 60.2211 59.3686V58.1848C60.2211 56.4416 61.6506 55.0237 63.379 55.0237H424.458C426.2 55.0237 427.616 56.4546 427.616 58.1848V59.3686C427.629 61.0988 426.2 62.5297 424.458 62.5297Z" fill="#D2DCEC"/>
<path d="M36.5693 58.7702V62.2436C36.5693 62.7379 36.0365 63.0371 35.6076 62.7899L32.6057 61.0467L29.6037 59.3036C29.1749 59.0564 29.1749 58.445 29.6037 58.1978L32.6057 56.4546L35.6076 54.7114C36.0365 54.4643 36.5693 54.7765 36.5693 55.2578V58.7702Z" fill="black"/>
<path d="M41.8584 58.7702V62.2436C41.8584 62.7379 42.3913 63.0371 42.8201 62.7899L45.8221 61.0467L48.824 59.3036C49.2529 59.0564 49.2529 58.445 48.824 58.1978L45.8221 56.4546L42.8201 54.7114C42.3913 54.4643 41.8584 54.7765 41.8584 55.2578V58.7702Z" fill="black"/>
<path d="M462.262 61.7622L462.054 61.5541C461.716 61.2159 461.716 60.6825 462.054 60.3443L466.876 55.518C467.213 55.1798 467.746 55.1798 468.084 55.518L468.292 55.7261C468.63 56.0644 468.63 56.5977 468.292 56.936L463.471 61.7622C463.133 62.1005 462.587 62.1005 462.262 61.7622Z" fill="#39393B"/>
<path d="M468.058 61.7622L468.266 61.5541C468.604 61.2159 468.604 60.6825 468.266 60.3443L463.445 55.518C463.107 55.1798 462.574 55.1798 462.236 55.518L462.028 55.7261C461.69 56.0644 461.69 56.5977 462.028 56.936L466.85 61.7622C467.187 62.1005 467.733 62.1005 468.058 61.7622Z" fill="#39393B"/>
<path d="M419.936 277.618H80.442C75.8286 277.618 72.0989 273.871 72.0989 269.266V85.8416C72.0989 81.2234 75.8416 77.4899 80.442 77.4899H419.936C424.549 77.4899 428.279 81.2364 428.279 85.8416V269.279C428.292 273.884 424.549 277.618 419.936 277.618Z" fill="white"/>
<path d="M170.358 224.854H87.9014C85.7442 224.854 83.9898 223.098 83.9898 220.938V178.048C83.9898 175.889 85.7442 174.132 87.9014 174.132H170.358C172.515 174.132 174.269 175.889 174.269 178.048V220.938C174.269 223.098 172.515 224.854 170.358 224.854Z" fill="#CED3E6"/>
<path d="M410.748 140.14H328.292C326.134 140.14 324.38 138.384 324.38 136.225V93.3346C324.38 91.1752 326.134 89.419 328.292 89.419H410.748C412.905 89.419 414.66 91.1752 414.66 93.3346V136.225C414.66 138.384 412.905 140.14 410.748 140.14Z" fill="#CED3E6"/>
<path d="M172.203 136.836H85.9261C84.7825 136.836 83.8468 135.913 83.8468 134.755V134.56C83.8468 133.415 84.7695 132.478 85.9261 132.478H172.203C173.347 132.478 174.282 133.402 174.282 134.56V134.755C174.269 135.9 173.347 136.836 172.203 136.836Z" fill="#CED3E6"/>
<path d="M172.203 118.455H85.9261C84.7825 118.455 83.8468 117.531 83.8468 116.373V116.178C83.8468 115.033 84.7695 114.097 85.9261 114.097H172.203C173.347 114.097 174.282 115.02 174.282 116.178V116.373C174.269 117.531 173.347 118.455 172.203 118.455Z" fill="#CED3E6"/>
<path d="M172.203 155.205H85.9261C84.7825 155.205 83.8468 154.281 83.8468 153.123V152.928C83.8468 151.783 84.7695 150.847 85.9261 150.847H172.203C173.347 150.847 174.282 151.77 174.282 152.928V153.123C174.269 154.281 173.347 155.205 172.203 155.205Z" fill="#CED3E6"/>
<path d="M412.593 179.882H326.459C325.316 179.882 324.38 178.959 324.38 177.801V177.606C324.38 176.461 325.303 175.524 326.459 175.524H412.593C413.737 175.524 414.673 176.448 414.673 177.606V177.801C414.66 178.959 413.737 179.882 412.593 179.882Z" fill="#CED3E6"/>
<path d="M412.593 161.514H326.459C325.316 161.514 324.38 160.59 324.38 159.432V159.237C324.38 158.093 325.303 157.156 326.459 157.156H412.593C413.737 157.156 414.673 158.08 414.673 159.237V159.432C414.66 160.577 413.737 161.514 412.593 161.514Z" fill="#CED3E6"/>
<path d="M412.593 198.264H326.459C325.316 198.264 324.38 197.34 324.38 196.182V195.987C324.38 194.842 325.303 193.906 326.459 193.906H412.593C413.737 193.906 414.673 194.829 414.673 195.987V196.182C414.66 197.327 413.737 198.264 412.593 198.264Z" fill="#CED3E6"/>
<path d="M72.0989 246.54H428.292V275.77C428.292 276.785 427.46 277.618 426.447 277.618H73.9443C72.9176 277.618 72.0989 276.785 72.0989 275.77V246.54Z" fill="#39393B"/>
<path d="M402.743 258.065V255.425H406.031V253.083H401.56C400.91 253.083 400.391 253.603 400.391 254.254V258.065H402.743Z" fill="white"/>
<path d="M402.743 262.749H400.404V266.755C400.404 267.406 400.923 267.926 401.573 267.926H406.044V265.584H402.756V262.749H402.743Z" fill="white"/>
<path d="M412.892 258.065H415.232V254.254C415.232 253.603 414.712 253.083 414.062 253.083H409.773V255.425H412.892V258.065Z" fill="white"/>
<path d="M412.892 262.749V265.584H409.773V267.926H414.062C414.712 267.926 415.232 267.406 415.232 266.755V262.749H412.892Z" fill="white"/>
<path d="M428.292 240.699H72.0989V246.54H428.292V240.699Z" fill="#CED3E6"/>
<path d="M97.9729 83.591H101.989V92.398H107.369V95.5201H97.9729V83.591Z" fill="#39393B"/>
<path d="M108.473 83.591H112.489V95.5201H108.473V83.591Z" fill="#39393B"/>
<path d="M127.174 83.591L122.132 95.5201H118.181L113.139 83.591H117.466L120.312 90.5638L123.223 83.591H127.174Z" fill="#39393B"/>
<path d="M137.479 92.4761V95.5071H127.564V83.578H137.258V86.6091H131.514V88.001H136.556V90.902H131.514V92.4761H137.479Z" fill="#39393B"/>
<path d="M91.3582 89.458C91.3582 92.1638 89.162 94.3623 86.4589 94.3623C83.7559 94.3623 81.5596 92.1638 81.5596 89.458C81.5596 86.7522 83.7559 84.5537 86.4589 84.5537C89.162 84.5537 91.3582 86.7392 91.3582 89.458Z" fill="#DF615C"/>
<path d="M381.872 220.886C381.872 223.267 379.949 225.192 377.571 225.192C375.193 225.192 373.269 223.267 373.269 220.886C373.269 218.506 375.193 216.58 377.571 216.58C379.949 216.567 381.872 218.506 381.872 220.886Z" fill="#DF615C"/>
<path d="M385.615 231.788H369.526C369.526 231.788 371.359 226.675 377.454 226.675C377.493 226.675 377.532 226.675 377.571 226.675C377.61 226.675 377.649 226.675 377.688 226.675C383.783 226.662 385.615 231.788 385.615 231.788Z" fill="#DF615C"/>
<path d="M400.456 218.271V220.977L396.115 231.319H391.307L395.439 221.68H392.931V223.579H389.306V218.271H400.456Z" fill="#39393B"/>
<path d="M411.892 227.911V231.319H401.443V228.613L406.148 224.255C407.044 223.423 407.174 222.916 407.174 222.46C407.174 221.823 406.746 221.432 405.914 221.432C405.134 221.432 404.393 221.862 403.99 222.642L400.677 220.99C401.625 219.195 403.51 217.972 406.317 217.972C409.41 217.972 411.58 219.572 411.58 222.057C411.58 223.345 411.242 224.503 409.345 226.22L407.486 227.911H411.892Z" fill="#39393B"/>
<path d="M347.057 125.57C347.057 125.57 350.267 135.899 358.311 136.719C364.809 137.369 369.89 130.501 371.606 127.834C372.022 127.197 372.229 126.806 372.229 126.806C372.229 126.806 372.697 126.793 373.399 126.676C375.036 126.429 377.895 125.688 378.753 123.502C379.975 120.406 373.789 119.261 373.789 119.261C373.789 119.261 376.44 116.126 375.413 114.266C374.4 112.432 370.267 112.601 370.267 112.601C370.267 112.601 374.244 109.14 372.437 106.864C369.708 103.442 365.758 108.178 365.42 108.451C365.667 108.087 375.868 92.5541 372.619 91.9297C369.786 91.3833 360.391 103.924 357.882 107.358C357.48 107.905 357.259 108.217 357.259 108.217C357.259 108.217 357.064 108.113 356.726 107.944C355.127 107.163 350.254 105.173 347.72 107.97C344.666 111.339 347.057 125.57 347.057 125.57Z" fill="#EA9B7A"/>
<path d="M366.875 121.16C365.654 122.136 364.64 123.359 364.406 124.491C364.263 125.219 364.432 125.857 364.913 126.338C365.238 126.676 365.758 126.936 366.381 127.132C367.941 127.639 370.124 127.782 371.593 127.821C372.009 127.184 372.216 126.793 372.216 126.793C372.216 126.793 372.697 126.78 373.386 126.676C373.282 126.611 373.165 126.585 373.048 126.585C370.722 126.637 366.693 126.377 365.784 125.466C365.667 125.349 365.537 125.154 365.615 124.751C365.875 123.515 367.876 121.629 369.734 120.9C370.033 120.783 370.189 120.471 370.111 120.159C370.033 119.847 369.721 119.651 369.409 119.704C367.889 119.938 363.652 120.276 362.327 118.936C362.132 118.741 362.158 118.624 362.171 118.559C362.236 118.26 362.548 117.921 362.99 117.57C363.899 116.855 365.368 116.113 366.459 115.684C366.589 115.632 366.68 115.554 366.745 115.45C366.862 115.28 366.888 115.072 366.81 114.877C366.68 114.552 366.329 114.396 366.005 114.526C365.524 114.721 363.821 115.411 362.509 116.373C362.041 116.724 361.612 117.102 361.326 117.518C361.144 117.778 361.014 118.038 360.949 118.312C360.871 118.702 360.884 119.274 361.443 119.834C362.626 120.991 364.991 121.213 366.875 121.16Z" fill="#D46A43"/>
<path d="M360.845 112.093C361.027 112.275 361.092 112.536 360.988 112.783C360.676 113.537 360.508 114.24 360.586 114.747C360.65 115.15 360.832 115.294 360.988 115.359C361.235 115.476 361.612 115.515 362.067 115.502C363.198 115.463 364.835 115.046 366.304 114.578C366.239 114.682 366.135 114.76 366.018 114.812C364.926 115.242 363.458 115.983 362.548 116.698C362.405 116.711 362.249 116.725 362.106 116.725C361.651 116.738 361.235 116.711 360.871 116.633C360.715 116.594 360.573 116.542 360.443 116.49C359.819 116.204 359.442 115.658 359.338 114.929C359.221 114.162 359.429 113.225 359.819 112.288C359.988 111.885 360.495 111.794 360.806 112.08C360.832 112.093 360.832 112.093 360.845 112.093Z" fill="#D46A43"/>
<path d="M349.695 114.175C349.825 114.266 351.866 115.593 354.127 116.334C355.387 116.738 356.713 116.972 357.817 116.685C358.74 116.464 359.429 115.931 359.871 115.111C361.456 112.21 359.312 108.997 357.882 107.345C357.48 107.892 357.259 108.204 357.259 108.204C357.259 108.204 357.064 108.1 356.726 107.931C357.947 109.283 360.066 112.145 358.779 114.5C358.506 115.007 358.09 115.32 357.519 115.463C355.374 115.996 351.632 113.954 350.371 113.121C350.085 112.926 349.695 113.004 349.513 113.303C349.331 113.602 349.409 113.993 349.695 114.175Z" fill="#D46A43"/>
<path d="M356.076 130.93C356.284 130.995 356.518 130.956 356.687 130.8C356.947 130.566 356.96 130.176 356.739 129.915C355.504 128.537 354.971 127.014 355.153 125.414C355.634 121.317 360.534 117.83 360.586 117.791C360.871 117.596 360.936 117.206 360.741 116.92C360.547 116.633 360.157 116.568 359.871 116.764C359.65 116.92 354.452 120.601 353.906 125.258C353.672 127.236 354.322 129.07 355.803 130.735C355.881 130.839 355.972 130.904 356.076 130.93Z" fill="#D46A43"/>
<path d="M278.363 79.7144L284.692 95.7413C285.641 98.4211 286.602 101.101 287.577 103.768C288.539 106.435 289.513 109.088 290.501 111.729C291.502 114.37 292.476 116.998 293.477 119.586C294.478 122.175 295.517 124.738 296.557 127.223C297.583 129.707 298.649 132.14 299.702 134.312C300.222 135.392 300.754 136.394 301.196 137.187L301.495 137.708L301.612 137.916C301.638 137.968 301.638 137.968 301.651 138.007C301.69 138.111 301.703 138.176 301.716 138.228C301.729 138.332 301.69 138.397 301.742 138.488C301.781 138.592 301.937 138.722 302.262 138.879C302.925 139.178 304.354 139.386 306.148 139.308C307.941 139.23 310.085 138.866 312.307 138.293C314.53 137.721 316.882 136.979 319.247 136.082C323.977 134.286 328.825 132.01 333.607 129.46C338.402 126.923 341.924 124.881 346.589 121.967C348.084 128.888 352.97 134.482 360.053 137.148C355.517 141.285 350.761 145.123 345.758 148.778C340.728 152.408 335.452 155.842 329.643 158.873C326.732 160.382 323.704 161.826 320.417 163.062C317.129 164.298 313.633 165.377 309.682 166.054C307.707 166.392 305.615 166.626 303.379 166.665C301.144 166.691 298.766 166.548 296.271 166.067C293.776 165.586 291.164 164.766 288.643 163.517C286.121 162.281 283.717 160.603 281.664 158.678C280.637 157.715 279.702 156.701 278.844 155.66L278.233 154.879L277.726 154.203C277.557 153.969 277.414 153.761 277.259 153.552C277.116 153.344 276.947 153.11 276.817 152.915C275.699 151.263 274.776 149.754 273.919 148.271C272.216 145.331 270.774 142.534 269.37 139.75C267.993 136.966 266.706 134.208 265.459 131.45C264.211 128.706 263.003 125.961 261.846 123.203C260.689 120.458 259.546 117.713 258.428 114.955C257.323 112.197 256.245 109.453 255.192 106.695C254.153 103.937 253.113 101.166 252.099 98.3951L250.605 94.2192L249.877 92.1118C249.63 91.3963 249.396 90.7199 249.149 89.9653L278.363 79.7144Z" fill="#21B573"/>
<path d="M295.595 146.398C295.842 146.398 296.076 146.294 296.232 146.072C296.258 146.033 299.312 141.988 301.963 140.088C302.327 139.828 302.405 139.334 302.145 138.97C301.885 138.605 301.391 138.527 301.027 138.787C298.168 140.83 295.075 144.941 294.945 145.11C294.685 145.461 294.75 145.968 295.101 146.228C295.257 146.346 295.426 146.398 295.595 146.398Z" fill="#217C58"/>
<path d="M301.027 147.191C301.079 147.191 301.144 147.191 301.196 147.178C301.625 147.087 301.898 146.658 301.807 146.228C301.794 146.189 301.066 142.794 301.794 140.231C301.911 139.802 301.664 139.36 301.248 139.243C300.819 139.126 300.377 139.373 300.261 139.789C299.416 142.742 300.209 146.424 300.248 146.58C300.325 146.944 300.65 147.191 301.027 147.191Z" fill="#217C58"/>
<path d="M293.607 232.607C278.818 241.128 243.067 245.512 219.754 236.25C211.202 232.854 209.695 230.76 210.345 215.383C210.371 214.811 210.397 214.239 210.423 213.666C210.488 212.456 210.566 211.247 210.657 210.05C210.696 209.464 210.748 208.892 210.787 208.32C210.956 206.173 211.164 204.066 211.397 202.049C211.462 201.49 211.527 200.944 211.579 200.397C212.112 195.896 212.97 191.85 213.75 188.715C213.893 188.156 214.036 187.61 214.165 187.115C214.997 184.045 215.66 182.198 215.66 182.198C219.416 182.809 223.288 183.161 227.187 183.317C227.733 183.343 228.292 183.356 228.837 183.369C249.006 183.902 269.526 179.336 279.039 176.851C279.611 176.708 280.143 176.565 280.637 176.422C283.106 175.759 284.51 175.329 284.51 175.329C284.51 175.329 285.381 176.851 286.602 179.375C286.823 179.843 287.07 180.338 287.304 180.871C289.24 185.034 291.709 191.07 293.113 197.366C293.139 197.444 293.152 197.522 293.165 197.6C293.282 198.147 293.399 198.693 293.516 199.239C293.542 199.344 293.568 199.461 293.581 199.565C294.542 204.131 295.426 208.931 296.024 213.51C296.102 214.096 296.167 214.681 296.245 215.266C297.427 225.335 297.609 230.305 293.607 232.607Z" fill="#39393B"/>
<path d="M293.607 199.578C293.568 199.565 293.529 199.539 293.503 199.526C290.501 197.887 287.85 195.402 285.576 192.111C285.264 191.668 284.965 191.2 284.666 190.719C282.379 186.998 280.494 182.367 279.052 176.864C279.624 176.721 280.157 176.578 280.65 176.435C282.067 181.873 283.912 186.4 286.16 189.99C286.459 190.472 286.771 190.927 287.083 191.382C288.863 193.932 290.891 195.935 293.139 197.379C293.165 197.457 293.178 197.535 293.191 197.613C293.308 198.16 293.425 198.706 293.542 199.252C293.555 199.357 293.581 199.474 293.607 199.578Z" fill="#585859"/>
<path d="M228.85 183.382C228.201 189.184 226.901 194.088 225.004 198.082C224.757 198.602 224.497 199.122 224.211 199.604C222.652 202.427 220.741 204.729 218.493 206.498C215.738 208.658 212.931 209.633 210.657 210.05C210.696 209.464 210.748 208.892 210.787 208.32C212.775 207.903 215.166 207.006 217.505 205.171C219.455 203.649 221.118 201.672 222.509 199.278C222.794 198.784 223.067 198.277 223.327 197.756C225.251 193.893 226.537 189.08 227.213 183.317C227.746 183.343 228.292 183.369 228.85 183.382Z" fill="#585859"/>
<path d="M287.317 180.884C286.173 181.391 284.952 181.912 283.639 182.445C283.132 182.653 282.613 182.861 282.08 183.069C274.464 186.049 264.497 189.106 253.737 190.211C253.321 190.25 252.905 190.289 252.502 190.328C242.743 191.226 232.801 190.81 224.614 190.042C224.029 189.99 223.457 189.938 222.885 189.873C219.429 189.522 216.323 189.119 213.75 188.728C213.893 188.169 214.036 187.623 214.166 187.128C216.817 187.519 220 187.935 223.561 188.299C224.12 188.351 224.692 188.403 225.264 188.455C233.607 189.21 243.73 189.587 253.568 188.572C264.068 187.492 273.802 184.513 281.274 181.612C281.807 181.404 282.314 181.196 282.821 181.001C284.172 180.455 285.433 179.921 286.602 179.401C286.836 179.856 287.07 180.364 287.317 180.884Z" fill="#585859"/>
<path d="M310.28 302.933C308.123 269.552 303.223 238.604 296.05 213.523L256.401 232.009C257.635 262.384 263.73 283.433 270.748 302.933H310.28Z" fill="#39393B"/>
<path d="M277.155 302.933C265.654 270.085 263.639 243.209 263.613 242.858C263.574 242.403 263.184 242.065 262.73 242.091C262.275 242.117 261.924 242.52 261.963 242.975C261.989 243.313 264.003 270.099 275.413 302.933H277.155Z" fill="#585859"/>
<path d="M248.513 302.933C250.956 279.218 253.776 250.091 254.14 238.812L210.345 215.37C210.345 215.37 202.626 242.038 207.694 302.92H248.513V302.933Z" fill="#39393B"/>
<path d="M244.51 302.933L251.852 242.208C251.917 241.687 251.553 241.219 251.034 241.167C250.514 241.102 250.046 241.466 249.994 241.986L242.626 302.933H244.51Z" fill="#585859"/>
<path d="M257.947 233.44C257.999 233.895 258.415 234.207 258.857 234.168C258.857 234.168 258.857 234.168 258.87 234.168C259.325 234.116 259.65 233.7 259.598 233.245C259.234 230.161 258.883 227 258.545 223.852C258.48 223.293 258.428 222.746 258.376 222.187C257.31 211.858 256.44 201.698 255.868 194.504C255.829 193.919 255.777 193.359 255.738 192.813C255.608 191.239 255.504 189.834 255.413 188.65C254.854 188.65 254.309 188.663 253.75 188.663C253.841 189.847 253.945 191.265 254.075 192.852C254.114 193.398 254.166 193.958 254.205 194.543C254.776 201.672 255.634 211.741 256.7 222.005C256.752 222.577 256.817 223.137 256.869 223.709C257.207 226.974 257.57 230.252 257.947 233.44Z" fill="#585859"/>
<path d="M253.828 223.059C254.101 223.137 255.335 223.501 256.869 223.696C257.401 223.774 257.973 223.826 258.545 223.839C259.078 223.852 259.598 223.839 260.118 223.787C261.118 223.67 262.041 223.41 262.782 222.876C263.691 222.213 264.185 221.211 264.198 219.976C264.263 216.723 263.327 203.493 262.613 194.153C262.574 193.581 262.535 193.021 262.483 192.475C262.366 190.979 262.262 189.626 262.171 188.468C261.625 188.494 261.066 188.52 260.52 188.533C260.611 189.691 260.715 191.07 260.832 192.592C260.871 193.138 260.91 193.698 260.962 194.27C261.664 203.597 262.6 216.801 262.535 219.949C262.522 220.678 262.288 221.185 261.794 221.55C261.001 222.122 259.702 222.252 258.363 222.187C257.791 222.161 257.22 222.096 256.687 222.005C255.699 221.849 254.828 221.641 254.296 221.485C253.854 221.354 253.399 221.602 253.269 222.044C253.139 222.473 253.386 222.929 253.828 223.059Z" fill="#585859"/>
<path d="M203.925 93.1785L267.135 91.5524C265.173 88.8076 265.355 62.5818 264.484 57.1701C263.574 51.5893 264.276 40.5058 265.108 31.4517C266.719 14.0719 252.619 -0.823214 235.205 0.035368C234.945 0.0483769 234.685 0.0613841 234.412 0.0743929C207.837 1.76554 205.887 24.557 208.357 38.3594C210.618 50.9129 212.19 85.1651 203.925 93.1785Z" fill="#39393B"/>
<path d="M217.635 175.355L222.73 196.755C235.465 195.74 250.527 193.893 261.872 188.026C261.872 188.026 276.986 193.112 284.653 190.745L279.039 175.368H217.635V175.355Z" fill="white"/>
<path d="M292.463 191.187C277.778 191.083 268.967 189.184 260.962 182.614C245.939 198.238 208.837 198.836 208.837 198.836C212.554 186.842 213.763 165.625 213.763 165.625C213.464 163.426 213.308 161.137 213.074 158.808C212.84 156.492 212.528 154.138 211.93 151.822C208.266 141.246 203.99 133.662 200.182 122.722C199.935 122.006 199.689 121.304 199.429 120.601C199.26 120.133 199.091 119.677 198.922 119.222C197.674 115.801 196.323 112.393 194.919 109.114C188.772 94.7916 187.785 78.6347 202.561 73.7043C203.639 73.3531 204.692 73.0018 205.718 72.6766C212.71 70.4651 218.532 69.0081 220.156 68.6179C220.455 68.5528 220.598 68.5138 220.598 68.5138L251.618 71.0896L254.568 71.3367C258.909 71.818 263.496 71.701 266.394 72.3384C268.941 72.8978 270.488 72.7677 273.087 73.5352C279.195 75.3434 279.026 83.578 280.923 93.8029C280.949 93.9721 280.988 94.1542 281.014 94.3363C281.027 94.3883 281.04 94.4534 281.053 94.5054C281.391 96.2486 281.781 97.9658 282.236 99.6699C282.743 101.569 283.301 103.455 283.886 105.277C287.46 116.503 291.775 121.655 291.034 128.732C290.358 135.132 283.847 143.861 282.119 145.721C281.716 146.15 281.482 146.385 281.482 146.385C281.482 146.411 281.495 146.45 281.495 146.489C281.521 146.736 281.547 147.009 281.586 147.295C281.716 148.375 281.911 149.65 282.145 151.107C282.678 156.505 283.444 161.41 284.302 165.768C284.77 168.122 285.264 170.321 285.784 172.35C288.89 184.644 292.463 191.187 292.463 191.187Z" fill="#21B573"/>
<path d="M285.784 172.324C281.586 174.549 278.194 176.032 278.194 176.032L275.062 170.126C278.064 169.046 281.274 167.446 284.302 165.729C284.991 167.563 285.628 169.423 285.784 172.324Z" fill="#217C58"/>
<path d="M218.103 166.782C218.103 166.782 232.216 172.78 242.665 173.794L241.066 180.286C241.066 180.286 223.951 177.463 217.102 172.571L218.103 166.782Z" fill="#217C58"/>
<path d="M284.016 144.758C284.224 144.758 284.432 144.68 284.601 144.511C284.991 144.108 293.945 134.534 290.826 125.805C289.955 123.372 288.954 120.926 287.876 118.338C284.627 110.454 280.949 101.53 280.014 89.9523C279.975 89.51 279.585 89.1848 279.156 89.2239C278.714 89.2629 278.389 89.6401 278.428 90.0824C279.39 101.907 283.12 110.962 286.407 118.949C287.473 121.525 288.474 123.957 289.331 126.351C292.125 134.156 283.548 143.328 283.457 143.419C283.158 143.744 283.172 144.251 283.483 144.55C283.613 144.693 283.808 144.758 284.016 144.758Z" fill="#217C58"/>
<path d="M257.947 110.636C257.947 111.599 257.167 112.38 256.206 112.38C255.244 112.38 254.464 111.599 254.464 110.636C254.464 109.674 255.244 108.893 256.206 108.893C257.167 108.893 257.947 109.674 257.947 110.636Z" fill="#217C58"/>
<path d="M260.546 126.078C260.546 127.04 259.767 127.821 258.805 127.821C257.843 127.821 257.064 127.04 257.064 126.078C257.064 125.115 257.843 124.335 258.805 124.335C259.767 124.335 260.546 125.115 260.546 126.078Z" fill="#217C58"/>
<path d="M262.093 141.766C262.093 142.729 261.313 143.51 260.351 143.51C259.39 143.51 258.61 142.729 258.61 141.766C258.61 140.804 259.39 140.023 260.351 140.023C261.326 140.023 262.093 140.804 262.093 141.766Z" fill="#217C58"/>
<path d="M262.769 157.91C262.769 158.873 261.989 159.654 261.027 159.654C260.065 159.654 259.286 158.873 259.286 157.91C259.286 156.948 260.065 156.167 261.027 156.167C261.989 156.167 262.769 156.948 262.769 157.91Z" fill="#217C58"/>
<path d="M262.691 174.692C262.691 175.654 261.911 176.435 260.949 176.435C259.988 176.435 259.208 175.654 259.208 174.692C259.208 173.729 259.988 172.949 260.949 172.949C261.911 172.949 262.691 173.729 262.691 174.692Z" fill="#217C58"/>
<path d="M248.045 71.0635C248.045 71.0635 254.776 70.4521 259.507 71.714L259 89.432L254.971 90.3036L258.363 93.6468L254.296 105.537C254.296 105.511 248.733 85.7375 248.045 71.0635Z" fill="#217C58"/>
<path d="M220.585 68.5138L208.266 71.8831L222.743 91.1361L233.594 90.2645L229.786 98.5772L254.296 105.498C254.296 105.498 225.913 78.5176 223.639 68.761L220.585 68.5138Z" fill="#217C58"/>
<path d="M222.742 69.9578C222.742 69.9578 229.825 85.048 254.296 105.498C254.296 105.498 252.983 89.406 248.058 72.1563C248.058 72.1693 233.646 77.1907 222.742 69.9578Z" fill="white"/>
<path d="M257.7 118.142C249.643 118.142 233.191 106.591 232.489 106.096C232.19 105.888 232.125 105.472 232.333 105.173C232.541 104.873 232.957 104.808 233.256 105.017C233.425 105.134 250.059 116.829 257.7 116.829C265.017 116.829 266.628 108.828 266.654 108.75C266.719 108.386 267.07 108.152 267.434 108.23C267.798 108.295 268.032 108.646 267.954 109.01C267.941 109.075 266.095 118.142 257.7 118.142Z" fill="#217C58"/>
<path d="M248.045 71.0635L248.37 75.2394C248.993 83.0317 243.444 85.2431 235.387 81.1193C229.019 77.8541 223.613 72.9888 222.73 69.9708L248.045 71.0635Z" fill="#EA9B7A"/>
<path d="M236.505 150.665C236.635 150.899 236.882 151.029 237.129 151.029C237.245 151.029 237.375 151.003 237.479 150.938C237.596 150.873 249.24 144.303 263.457 147.087C270.683 148.492 276.817 148.349 281.586 147.282C281.547 146.996 281.521 146.736 281.495 146.476C281.495 146.437 281.482 146.411 281.482 146.372C281.482 146.372 281.716 146.137 282.119 145.721C277.453 146.905 271.216 147.139 263.73 145.669C248.967 142.781 237.258 149.403 236.765 149.689C236.427 149.884 236.31 150.313 236.505 150.665Z" fill="#217C58"/>
<path d="M261.339 19.0283C261.339 19.0283 264.913 33.0908 262.626 35.5364C260.338 37.9951 256.947 32.7265 256.947 32.7265C256.947 32.7265 258.623 19.6006 261.339 19.0283Z" fill="#39393B"/>
<path d="M257.401 37.6569C257.401 37.6569 261.105 33.2859 263.197 37.6569C265.29 42.0278 263.678 50.8869 258.051 49.4429L257.401 37.6569Z" fill="#D46A43"/>
<path d="M254.153 48.5323C252.099 49.4949 250.67 51.5763 250.67 53.996C250.67 57.3262 253.373 60.0321 256.7 60.0321C260.026 60.0321 262.73 57.3262 262.73 53.996C262.73 51.6023 261.339 49.5339 259.325 48.5583C258.636 48.22 257.869 48.0119 257.063 47.9729C256.921 47.5956 256.791 47.2184 256.635 46.8541C256.661 46.8541 256.687 46.8541 256.7 46.8541C257.687 46.8541 258.636 47.0623 259.481 47.4265C262.028 48.5192 263.834 51.056 263.834 53.996C263.834 57.9376 260.637 61.1378 256.7 61.1378C252.762 61.1378 249.565 57.9376 249.565 53.996C249.565 51.3422 251.021 49.0266 253.165 47.7907L254.153 48.5323Z" fill="white"/>
<path d="M248.058 60.0971V72.1563C248.058 72.1563 241.703 82.5763 222.742 69.9578C226.329 65.9381 226.446 58.1848 224.991 53.5537C224.991 53.5537 226.381 54.4903 228.681 55.518C229.149 55.7261 229.656 55.9473 230.189 56.1684C234.919 58.1718 242.054 60.5654 248.058 60.0971Z" fill="#EA9B7A"/>
<path d="M248.058 60.0971V65.7429C242.899 64.5982 233.867 61.7752 228.681 55.518C229.149 55.7261 229.656 55.9473 230.189 56.1684C234.919 58.1718 242.054 60.5654 248.058 60.0971Z" fill="#39393B"/>
<path d="M258.363 56.1554C248.24 66.6405 225.77 54.126 225.043 53.7228C225.03 53.7098 225.03 53.7098 225.03 53.7098C224.822 52.7731 224.64 51.8365 224.471 50.9259C223.041 43.1206 222.95 35.8877 223.743 29.006C223.366 21.7471 227.681 14.9955 234.503 12.4978C241.573 9.92208 247.915 13.0312 251.722 14.202C257.466 15.9712 261.092 23.4122 261.118 34.0144C261.131 47.0102 260.871 53.5537 258.363 56.1554Z" fill="#EA9B7A"/>
<path d="M259.897 21.9162C257.557 22.2414 255.153 22.4886 252.684 22.6837L251.333 16.2053L250.891 22.8138C246.342 23.126 241.625 23.2431 236.778 23.2431L236.18 16.4265L234.854 23.2431C231.268 23.2301 227.629 23.152 223.964 23.048C221.027 9.45376 235.751 3.53474 248.136 6.35766C260.507 9.19358 259.897 21.9162 259.897 21.9162Z" fill="#39393B"/>
<path d="M233.36 19.0282C233.36 19.0282 228.798 25.1164 231.294 30.7752C233.789 36.434 232.047 41.9758 230.865 46.0996C230.865 46.0996 228.279 36.9934 222.184 35.3023C216.089 33.5981 219.234 16.9078 233.36 19.0282Z" fill="#39393B"/>
<path d="M249.669 50.4315C251.008 50.6397 252.086 50.2754 252.151 50.2494C252.372 50.1714 252.502 49.9242 252.424 49.7031C252.346 49.4819 252.099 49.3518 251.878 49.4299C251.852 49.4429 249.76 50.1193 248.019 48.8445C247.824 48.7014 247.551 48.7404 247.408 48.9355C247.265 49.1307 247.304 49.4039 247.499 49.5339C248.227 50.0803 248.98 50.3275 249.669 50.4315Z" fill="#D46A43"/>
<path d="M256.102 43.654C256.102 43.654 249.058 46.1126 243.769 42.6263C243.769 42.6263 245.628 47.3875 250.189 47.8428C254.75 48.2851 256.102 43.654 256.102 43.654Z" fill="white"/>
<path d="M244.887 24.3619C244.887 24.3619 246.992 24.57 246.251 26.4953C245.511 28.4206 241.3 26.3002 238.285 29.8516C238.285 29.8646 236.999 25.2335 244.887 24.3619Z" fill="#39393B"/>
<path d="M254.412 24.3619C254.412 24.3619 252.307 24.57 253.048 26.4953C253.789 28.4206 257.999 26.3002 261.014 29.8516C261.014 29.8646 262.301 25.2335 254.412 24.3619Z" fill="#39393B"/>
<g opacity="0.8">
<g opacity="0.8">
<g opacity="0.8">
<g opacity="0.8">
<g opacity="0.8">
<g opacity="0.8">
<g opacity="0.8">
<path opacity="0.8" d="M243.743 38.6586C243.743 39.6342 241.729 40.4408 239.234 40.4408C236.739 40.4408 234.724 39.6472 234.724 38.6586C234.724 37.6829 236.739 36.8764 239.234 36.8764C241.729 36.8764 243.743 37.6829 243.743 38.6586Z" fill="#D46A43"/>
</g>
</g>
</g>
</g>
</g>
</g>
</g>
<path d="M262.119 40.3887C261.768 40.4278 261.404 40.4408 261.027 40.4408C258.532 40.4408 256.518 39.6472 256.518 38.6586C256.518 37.6829 258.532 36.8764 261.027 36.8764C261.365 36.8764 261.69 36.8894 262.002 36.9154L262.119 40.3887Z" fill="#D46A43"/>
<path d="M244.263 34.0014C244.263 35.3543 243.652 36.4471 242.898 36.4471C242.145 36.4471 241.534 35.3543 241.534 34.0014C241.534 32.6485 242.145 31.5558 242.898 31.5558C243.652 31.5688 244.263 32.6615 244.263 34.0014Z" fill="#39393B"/>
<path d="M257.583 34.0014C257.583 35.3543 256.973 36.4471 256.219 36.4471C255.465 36.4471 254.854 35.3543 254.854 34.0014C254.854 32.6485 255.465 31.5558 256.219 31.5558C256.973 31.5688 257.583 32.6615 257.583 34.0014Z" fill="#39393B"/>
<path d="M252.359 39.1399C253.009 39.1399 253.438 39.0358 253.477 39.0228C253.633 38.9838 253.75 38.8797 253.828 38.7496C253.906 38.6065 253.919 38.4504 253.867 38.3073L251.813 32.4273C251.709 32.1411 251.398 31.985 251.112 32.0891C250.826 32.1932 250.67 32.5054 250.774 32.7916L252.593 38.0211C252.034 38.0471 251.177 37.9951 250.319 37.5268C250.046 37.3837 249.708 37.4878 249.565 37.7479C249.422 38.0211 249.526 38.3594 249.786 38.5025C250.735 39.0228 251.67 39.1399 252.359 39.1399Z" fill="#39393B"/>
<path d="M229.422 48.2591C229.357 48.4152 227.59 52.526 225.043 53.7228C225.03 53.7098 225.03 53.7098 225.03 53.7098C224.822 52.7731 224.64 51.8365 224.471 50.9259C224.549 50.8999 227.122 50.4576 229.422 48.2591Z" fill="#39393B"/>
<path d="M226.953 38.8927C226.953 38.8927 221.573 31.6598 217.622 37.3447C214.373 42.0278 220.494 54.5163 227.07 49.9502L226.953 38.8927Z" fill="#EA9B7A"/>
<path d="M221.378 50.0283C219.325 50.9909 217.895 53.1114 217.895 55.518C217.895 58.8482 220.598 61.5541 223.925 61.5541C227.252 61.5541 229.955 58.8482 229.955 55.518C229.955 53.1244 228.564 51.056 226.55 50.0803C225.861 49.7421 225.095 49.5339 224.289 49.4949C224.146 49.1176 224.016 48.7404 223.86 48.3761C223.886 48.3761 223.912 48.3761 223.925 48.3761C224.913 48.3761 225.861 48.5843 226.706 48.9485C229.253 50.0413 231.06 52.578 231.06 55.518C231.06 59.4597 227.863 62.6598 223.925 62.6598C219.987 62.6598 216.791 59.4597 216.791 55.518C216.791 52.8642 218.285 50.5096 220.429 49.2738C220.728 49.5599 221.04 49.8201 221.378 50.0283Z" fill="white"/>
<path d="M226.212 47.8818C226.238 47.8818 226.251 47.8818 226.277 47.8818C226.576 47.8428 226.797 47.5696 226.771 47.2704C226.095 41.1172 220.923 38.9838 220.702 38.8927C220.416 38.7756 220.091 38.9187 219.987 39.2049C219.87 39.4911 220.013 39.8163 220.299 39.9204C220.507 39.9985 225.082 41.9108 225.679 47.3875C225.692 47.6737 225.939 47.8818 226.212 47.8818Z" fill="#39393B"/>
<path d="M221.04 44.5255C221.157 44.5255 221.287 44.4865 221.391 44.3955C221.872 44.0052 223.327 43.0425 224.289 43.2897C224.588 43.3678 224.887 43.1856 224.965 42.8864C225.043 42.5872 224.861 42.288 224.562 42.21C222.898 41.7807 220.91 43.3547 220.689 43.5239C220.455 43.719 220.416 44.0702 220.611 44.3044C220.728 44.4475 220.884 44.5255 221.04 44.5255Z" fill="#39393B"/>
<path d="M184.276 153.474C184.276 153.474 186.043 157.299 184.003 165.638C181.963 173.989 178.545 179.219 178.545 179.219C178.545 179.219 169.981 166.223 184.276 153.474Z" fill="#217C58"/>
<path d="M146.537 145.487C146.563 145.903 146.589 146.333 146.628 146.736C146.68 147.152 146.745 147.555 146.81 147.972C146.849 148.167 146.875 148.375 146.927 148.583L147.07 149.168C147.434 150.756 148.005 152.174 148.629 153.474C148.941 154.099 149.292 154.736 149.63 155.283C149.812 155.556 149.981 155.842 150.163 156.115L150.709 156.883C152.19 158.899 153.763 160.408 155.283 161.696C156.816 162.984 158.337 164.038 159.818 164.987C160.559 165.469 161.3 165.898 162.041 166.327C162.781 166.756 163.496 167.147 164.224 167.537C165.679 168.291 167.109 169.007 168.538 169.657C171.397 170.971 174.23 172.077 177.063 173.079C179.883 174.08 182.716 174.978 185.523 175.798C188.343 176.63 191.15 177.385 193.971 178.074C196.791 178.764 199.611 179.388 202.457 179.986C203.483 180.195 204.9 180.338 206.381 180.455C208.642 180.624 211.099 180.754 212.71 181.027C213.1 178.685 211.125 176.799 211.514 174.458C211.969 171.726 212.424 168.981 212.918 166.249L211.787 163.803C210.072 163.387 208.356 162.945 206.628 162.49C206.576 162.477 206.524 162.463 206.472 162.45C203.964 161.774 201.482 161.02 199.013 160.213C196.505 159.406 194.009 158.535 191.553 157.611C189.11 156.688 186.719 155.699 184.393 154.645C182.08 153.591 179.818 152.486 177.726 151.302C176.687 150.717 175.66 150.118 174.724 149.481C174.256 149.168 173.789 148.856 173.36 148.531C172.931 148.206 172.515 147.881 172.125 147.555C171.527 147.061 170.982 146.541 170.54 146.059C170.41 145.916 170.293 145.786 170.176 145.643L170.15 145.617L170.553 145.071L171.28 144.082C171.657 143.562 172.021 143.054 172.437 142.521C173.243 141.467 174.022 140.427 174.841 139.373L177.323 136.225C179.013 134.13 180.689 132.01 182.418 129.915L183.704 128.341L185.004 126.767L186.836 124.556L187.616 123.619L188.564 122.474L190.241 120.458L192.892 117.31C194.646 115.215 196.414 113.108 198.194 111.027L208.811 98.4861L208.876 98.4081C213.347 93.1265 212.697 85.2041 207.421 80.7291C202.184 76.2931 194.373 76.9045 189.877 82.056L187.096 85.2561L184.367 88.4563C183.457 89.523 182.56 90.6028 181.664 91.6695C180.767 92.7362 179.857 93.816 178.974 94.8957C177.193 97.0552 175.413 99.2276 173.646 101.413L171.007 104.704L170.657 105.147L168.382 108.022C167.512 109.127 166.641 110.246 165.783 111.352L164.484 113.03L163.899 113.798L163.197 114.721C161.482 116.972 159.779 119.248 158.09 121.551L155.569 125.05C154.737 126.221 153.905 127.444 153.074 128.641C152.658 129.226 152.242 129.85 151.826 130.488L150.592 132.361L150.28 132.829L150.202 132.946L150.163 133.012L150.098 133.103L149.838 133.519C149.669 133.805 149.5 134.078 149.331 134.364C149.253 134.508 149.162 134.664 149.084 134.82L148.85 135.288C148.694 135.6 148.538 135.899 148.382 136.225C148.239 136.563 148.096 136.901 147.967 137.239L147.772 137.76C147.707 137.929 147.642 138.124 147.59 138.306C147.473 138.67 147.356 139.048 147.252 139.412C147.148 139.789 147.07 140.192 146.979 140.583C146.901 140.973 146.81 141.363 146.758 141.779C146.706 142.196 146.654 142.599 146.615 143.015C146.576 143.432 146.563 143.848 146.55 144.277L146.537 144.902C146.524 145.071 146.537 145.279 146.537 145.487Z" fill="#EA9B7A"/>
<path d="M201.352 160.941C201.352 160.941 199.325 158.964 196.83 159.471C196.83 159.471 190.93 169.475 193.996 178.061C193.996 178.061 195.361 179.297 198.233 179.063C198.22 179.063 195.361 168.747 201.352 160.941Z" fill="black"/>
<path d="M189.903 169.683C190.085 172.975 192.905 175.485 196.18 175.303C199.468 175.121 201.976 172.298 201.794 169.02C201.612 165.729 198.792 163.218 195.517 163.4C192.229 163.569 189.708 166.392 189.903 169.683Z" fill="black"/>
<path d="M196.102 173.794C198.558 173.651 200.442 171.544 200.299 169.098C200.156 166.639 198.051 164.753 195.595 164.896C193.139 165.039 191.254 167.147 191.397 169.592C191.54 172.038 193.646 173.937 196.102 173.794Z" fill="white"/>
<path d="M206.368 180.142C208.629 180.312 211.086 180.442 212.697 180.715C213.087 178.373 211.112 176.487 211.501 174.145C211.956 171.414 212.411 168.669 212.905 165.937L211.774 163.491C210.059 163.075 208.344 162.633 206.615 162.177C206.563 162.164 206.511 162.151 206.459 162.138C205.757 166.015 204.666 174.171 206.368 180.142Z" fill="#D46A43"/>
<path d="M211.917 86.8953C213.126 90.7979 212.203 95.0648 209.526 98.1479C204.51 103.95 194.919 115.163 189.604 122.201C182.171 132.036 172.788 144.381 172.788 144.381C172.788 144.381 179.546 150.326 184.289 153.461C184.289 153.461 172.697 163.27 178.558 179.206C178.558 179.206 157.726 167.745 147.187 156.74C139.493 148.7 141.625 138.67 148.655 129.07C152.203 124.231 179.585 92.9964 189.305 82.069C192.892 78.0363 198.558 76.4232 203.652 78.1794C206.901 79.3241 210.332 81.7698 211.917 86.8953Z" fill="#21B573"/>
<path d="M206.849 165.104C206.849 165.104 207.668 160.33 208.902 155.751C209.929 151.926 212.008 150.743 212.008 150.743C212.463 153.344 213.1 154.918 213.178 159.654C213.178 159.654 214.334 158.574 216.44 159.003C218.545 159.432 225.796 160.967 225.9 162.646C226.108 166.483 217.024 164.662 217.024 164.662C217.024 164.662 226.758 166.496 226.511 169.189C226.316 171.362 217.505 171.778 217.505 171.778C217.505 171.778 226.004 171.856 224.978 174.913C223.899 178.152 216.011 176.11 216.011 176.11C216.011 176.11 221.69 178.842 221.144 179.986C220.351 181.638 216.986 182.094 211.553 180.767C205.965 179.401 206.849 165.104 206.849 165.104Z" fill="#EA9B7A"/>
<path d="M196.817 115.189C196.609 115.215 196.388 115.163 196.219 115.02C195.907 114.747 195.855 114.279 196.128 113.967L208.707 99.0195C208.98 98.7073 209.448 98.6552 209.76 98.9284C210.072 99.2016 210.124 99.6699 209.851 99.9821L197.271 114.929C197.154 115.072 196.985 115.163 196.817 115.189Z" fill="#217C58"/>
<path d="M210.488 104.106L205.731 104.834C205.316 104.899 204.939 104.613 204.874 104.21C204.809 103.794 205.095 103.416 205.498 103.351L210.254 102.623C210.67 102.558 211.047 102.844 211.112 103.247C211.177 103.664 210.891 104.041 210.488 104.106Z" fill="#217C58"/>
<path d="M159.299 147.62C159.377 147.725 159.481 147.79 159.597 147.803C159.727 147.829 159.87 147.803 159.987 147.711C163.574 145.045 169.955 144.759 173.113 144.798C172.983 144.654 172.866 144.524 172.749 144.381L172.723 144.355L173.126 143.796C172.84 143.796 172.528 143.783 172.19 143.796C170.215 141.897 164.887 140.049 164.653 139.971C164.393 139.88 164.12 140.023 164.029 140.27C163.938 140.531 164.081 140.804 164.328 140.895C164.38 140.908 168.434 142.313 170.67 143.835C167.187 143.991 162.43 144.641 159.39 146.918C159.182 147.1 159.143 147.399 159.299 147.62Z" fill="#217C58"/>
</svg>
