<svg width="120" height="70" viewBox="0 0 120 70" fill="none" xmlns="http://www.w3.org/2000/svg">
<path d="M62.4738 55.2464H52.9319C52.0681 55.2464 51.3743 54.5519 51.3743 53.6872V2.77107C51.3743 1.90631 52.0681 1.21188 52.9319 1.21188H62.4738C63.3377 1.21188 64.0314 1.90631 64.0314 2.77107V53.6872C64.0314 54.5519 63.3377 55.2464 62.4738 55.2464Z" fill="#0875F7"/>
<path d="M60.589 30.0766H54.8298C53.9921 30.0766 53.2984 29.3952 53.2984 28.5436V27.9016C53.2984 27.063 53.9791 26.3686 54.8298 26.3686H60.589C61.4267 26.3686 62.1204 27.0499 62.1204 27.9016V28.5436C62.1073 29.3952 61.4267 30.0766 60.589 30.0766Z" fill="#084FC7"/>
<path d="M64.0314 5.575H51.3743V7.65828H64.0314V5.575Z" fill="#084FC7"/>
<path d="M64.0314 9.93811H51.3743V12.0214H64.0314V9.93811Z" fill="#084FC7"/>
<path d="M64.0314 42.1439H51.3743V44.2272H64.0314V42.1439Z" fill="#084FC7"/>
<path d="M64.0314 46.507H51.3743V48.5903H64.0314V46.507Z" fill="#084FC7"/>
<path d="M38.3377 55.2464H26.466C26.2565 55.2464 26.0733 55.076 26.0733 54.8533V1.60496C26.0733 1.39532 26.2435 1.21188 26.466 1.21188H38.3377C38.5471 1.21188 38.7304 1.38222 38.7304 1.60496V54.8533C38.7304 55.076 38.5471 55.2464 38.3377 55.2464Z" fill="#21B573"/>
<path d="M35.2749 30.0766H29.5157C28.678 30.0766 27.9843 29.3952 27.9843 28.5436V27.9016C27.9843 27.063 28.6649 26.3686 29.5157 26.3686H35.2749C36.1126 26.3686 36.8063 27.0499 36.8063 27.9016V28.5436C36.8063 29.3952 36.1126 30.0766 35.2749 30.0766Z" fill="#217C58"/>
<path d="M38.7304 5.575H26.0733V7.65828H38.7304V5.575Z" fill="#217C58"/>
<path d="M38.7304 9.93811H26.0733V12.0214H38.7304V9.93811Z" fill="#217C58"/>
<path d="M38.7304 42.1439H26.0733V44.2272H38.7304V42.1439Z" fill="#217C58"/>
<path d="M38.7304 46.507H26.0733V48.5903H38.7304V46.507Z" fill="#217C58"/>
<path d="M49.8167 55.2464H40.2749C39.411 55.2464 38.7173 54.5519 38.7173 53.6872V2.77107C38.7173 1.90631 39.411 1.21188 40.2749 1.21188H49.8167C50.6806 1.21188 51.3743 1.90631 51.3743 2.77107V53.6872C51.3743 54.5519 50.6806 55.2464 49.8167 55.2464Z" fill="#DF615C"/>
<path d="M47.9319 30.0766H42.1728C41.3351 30.0766 40.6414 29.3952 40.6414 28.5436V27.9016C40.6414 27.063 41.322 26.3686 42.1728 26.3686H47.9319C48.7696 26.3686 49.4633 27.0499 49.4633 27.9016V28.5436C49.4633 29.3952 48.7696 30.0766 47.9319 30.0766Z" fill="#A92F4B"/>
<path d="M51.3874 5.575H38.7304V7.65828H51.3874V5.575Z" fill="#A92F4B"/>
<path d="M51.3874 9.93811H38.7304V12.0214H51.3874V9.93811Z" fill="#A92F4B"/>
<path d="M51.3874 42.1439H38.7304V44.2272H51.3874V42.1439Z" fill="#A92F4B"/>
<path d="M51.3874 46.507H38.7304V48.5903H51.3874V46.507Z" fill="#A92F4B"/>
<path d="M84.5942 53.3465L72.8665 55.2332C72.6571 55.2726 72.4476 55.1284 72.4215 54.9057L63.9529 2.33869C63.9136 2.12905 64.0576 1.91941 64.2801 1.89321L76.0079 0.00645248C76.2173 -0.0328548 76.4267 0.111272 76.4529 0.334014L84.9215 52.901C84.9476 53.1107 84.8037 53.3072 84.5942 53.3465Z" fill="#FAAF3A"/>
<path d="M78.7434 28.7925L70.7199 30.0897C70.5366 30.1159 70.3665 29.9979 70.3272 29.8145L69.8429 26.8272C69.8168 26.6437 69.9346 26.4734 70.1178 26.4341L78.1414 25.1369C78.3246 25.1107 78.4948 25.2287 78.534 25.4121L79.0183 28.3994C79.0445 28.5829 78.9267 28.7663 78.7434 28.7925Z" fill="#C77E2E"/>
<path d="M77.0965 4.24152L64.6002 6.2586L64.9315 8.31544L77.4278 6.29837L77.0965 4.24152Z" fill="#C77E2E"/>
<path d="M77.7909 8.5523L65.2946 10.5694L65.6259 12.6262L78.1223 10.6091L77.7909 8.5523Z" fill="#C77E2E"/>
<path d="M82.9077 40.3423L70.4114 42.3593L70.7427 44.4162L83.239 42.3991L82.9077 40.3423Z" fill="#C77E2E"/>
<path d="M83.6062 44.6496L71.1099 46.6667L71.4412 48.7235L83.9375 46.7064L83.6062 44.6496Z" fill="#C77E2E"/>
<g opacity="0.8">
<g opacity="0.8">
<g opacity="0.8">
<path opacity="0.8" d="M117.134 69.7246H2.51309L0 63.0554H120L117.134 69.7246Z" fill="#CED3E6"/>
</g>
</g>
</g>
<path d="M120 55.1284H0V63.0554H120V55.1284Z" fill="#39393B"/>
<path d="M12.2251 63.0554L15.4319 69.7901H22.9974L25.1571 63.0554H12.2251Z" fill="#39393B"/>
<path d="M107.775 63.0554L104.568 69.7901H97.0026L94.856 63.0554H107.775Z" fill="#39393B"/>
</svg>
