<svg width="133" height="156" viewBox="0 0 133 156" fill="none" xmlns="http://www.w3.org/2000/svg">
<path d="M89.0825 14.0635C89.0825 14.0635 122.78 59.8298 130.469 82.6348C138.159 105.427 119.501 121.629 119.501 121.629L102.171 128.141C102.171 128.128 84.3597 47.6393 89.0825 14.0635Z" fill="#084FC7"/>
<path d="M86.103 142.272C71.375 147.156 35.3876 159.971 19.7618 154.788C19.0983 154.566 18.4868 154.319 17.9013 154.032C16.1969 153.199 14.8308 152.079 13.868 150.62C7.74003 141.282 1.66403 102.093 4.39626 79.0662C4.73454 76.1879 4.90367 73.0621 4.95571 69.7801C5.03377 64.9482 4.87768 59.7777 4.66951 54.5811C3.90189 35.0191 0.81833 21.5132 9.18417 16.7594C16.6913 12.4876 26.1891 9.1534 32.239 7.70774C35.9861 6.80908 42.1271 4.93362 46.4336 5.01176L65.0648 8.39801C65.0648 8.39801 81.146 11.081 84.854 13.829C88.5621 16.5641 90.4616 28.6373 97.162 39.6946C103.863 50.752 105.32 61.8485 98.9185 73.9868C93.35 84.5493 94.3257 80.5379 93.5971 97.8598C92.6994 119.089 114.87 132.725 86.103 142.272Z" fill="white"/>
<g opacity="0.8">
<g opacity="0.8">
<path opacity="0.8" d="M36.6366 42.8074C36.6366 42.8074 56.8291 37.5848 82.6031 42.4037L83.2277 60.2335C83.2277 60.2335 54.8905 57.0817 37.04 61.6271L36.6366 42.8074Z" fill="#CED3E6"/>
</g>
</g>
<g opacity="0.8">
<path opacity="0.8" d="M59.8346 27.7517C59.5613 27.7517 59.2882 27.7386 59.0019 27.7256C47.9689 27.1526 37.8466 17.4106 37.4303 16.9939C37.1311 16.7073 37.131 16.2254 37.4173 15.9259C37.7035 15.6263 38.1849 15.6264 38.4842 15.9129C38.5882 16.0041 48.6195 25.6809 59.08 26.2148C69.0982 26.7488 70.3082 16.7985 70.3602 16.3687C70.4122 15.9519 70.7766 15.6524 71.1929 15.7045C71.6092 15.7436 71.9085 16.1213 71.8565 16.538C71.8565 16.6422 70.5293 27.7517 59.8346 27.7517Z" fill="#CED3E6"/>
</g>
<g opacity="0.8">
<path opacity="0.8" d="M28.557 117.005C28.4789 116.94 28.4139 116.875 28.3488 116.784C28.1277 116.406 28.2447 115.924 28.609 115.703C42.9597 107.003 56.725 103.942 65.7414 102.9C75.5384 101.767 81.8486 102.679 82.1088 102.718C82.5381 102.783 82.8373 103.187 82.7722 103.616C82.7072 104.046 82.3039 104.346 81.8745 104.281C81.8095 104.268 75.4603 103.356 65.8584 104.476C57.0112 105.505 43.4932 108.526 29.4157 117.057C29.1555 117.226 28.8172 117.2 28.557 117.005Z" fill="#CED3E6"/>
</g>
<path d="M47.3183 149.37C34.0604 145.163 22.0647 136.697 13.881 129.156C13.2305 128.557 12.606 127.971 12.0075 127.385C7.76601 123.257 4.77357 125.379 3.47251 123.009C-1.48454 113.931 1.32575 78.3108 3.47251 65.2217C5.61926 52.1456 -3.39717 28.1815 1.4558 19.6117C6.30876 11.0419 23.0274 8.04638 23.0274 8.04638C23.0274 8.04638 20.6595 5.28527 25.1482 2.12044C29.6369 -1.04439 41.5806 0.271059 41.5806 0.271059C42.1531 56.8733 50.1546 109.464 47.3183 149.37Z" fill="#0875F7"/>
<path d="M34.2817 133.142C33.9174 133.142 33.6052 132.881 33.5531 132.517C27.5162 93.2493 33.4881 19.3772 33.5531 18.6349C33.5922 18.2311 33.9434 17.9316 34.3468 17.9576C34.7501 17.9967 35.0624 18.3483 35.0233 18.7521C34.9583 19.4945 29.0124 93.1842 35.0233 132.282C35.0884 132.686 34.8021 133.064 34.3988 133.129C34.3597 133.129 34.3208 133.142 34.2817 133.142Z" fill="white"/>
<path d="M46.4206 139.029C46.0693 139.029 45.757 138.781 45.692 138.417C37.7945 93.3144 37.17 15.4831 37.17 14.7016C37.17 14.2979 37.4953 13.9593 37.8986 13.9593C38.3019 13.9593 38.6402 14.2849 38.6402 14.6886C38.6402 15.4701 39.2777 93.1712 47.1492 138.156C47.2142 138.56 46.954 138.937 46.5507 139.016C46.4987 139.029 46.4596 139.029 46.4206 139.029Z" fill="#084FC7"/>
<path d="M33.3189 14.2458C33.2539 14.2458 33.1888 14.2328 33.1237 14.2197C26.8786 12.5527 23.0535 8.8669 22.8844 8.71061C22.5981 8.42408 22.5851 7.9552 22.8714 7.66867C23.1576 7.38214 23.626 7.3691 23.9122 7.65563C23.9512 7.6947 27.6332 11.2372 33.488 12.8001C33.8783 12.9043 34.1125 13.3081 34.0084 13.7118C33.9434 14.0374 33.6442 14.2458 33.3189 14.2458Z" fill="#084FC7"/>
<path d="M104.76 124.65C104.76 124.65 100.037 140.578 82.447 148.171C80.2612 104.984 75.3172 55.6621 68.929 3.20147C68.929 3.20147 75.6554 2.01627 78.4527 5.87137C79.6627 7.52542 79.9229 10.3386 79.9229 10.3386C79.9229 10.3386 83.3578 11.0028 87.1179 12.7611C90.8779 14.5193 90.4486 16.9287 91.3463 23.05C92.244 29.1713 101.69 38.6397 104.76 51.4684C107.831 64.297 99.6862 72.476 97.1491 83.2469C94.599 93.9917 104.76 124.65 104.76 124.65Z" fill="#0875F7"/>
<path d="M89.6549 131.331C89.2516 131.331 88.9263 131.019 88.9133 130.615C87.2089 71.8639 76.4882 19.3642 76.3841 18.8433C76.306 18.4395 76.5532 18.0488 76.9566 17.9706C77.3599 17.8925 77.7502 18.14 77.8282 18.5437C77.9323 19.0647 88.6791 71.6816 90.3835 130.576C90.3965 130.98 90.0713 131.331 89.668 131.331C89.668 131.331 89.668 131.331 89.6549 131.331Z" fill="white"/>
<path d="M73.4697 15.8738C73.1184 15.8738 72.8061 15.6133 72.7411 15.2617C72.676 14.8579 72.9492 14.4802 73.3395 14.4021C73.3916 14.3891 78.1274 13.5295 79.2073 10.1041C79.3244 9.71343 79.7408 9.49203 80.1311 9.62227C80.5214 9.73948 80.7296 10.1562 80.6125 10.547C79.2464 14.8449 73.8079 15.8217 73.5867 15.8608C73.5477 15.8738 73.5087 15.8738 73.4697 15.8738Z" fill="#084FC7"/>
<path d="M87.9376 131.331C87.5733 131.331 87.248 131.058 87.209 130.68C82.0047 87.3625 73.782 18.14 73.7039 17.4497C73.6519 17.046 73.9511 16.6813 74.3545 16.6292C74.7578 16.5771 75.1221 16.8767 75.1741 17.2804C75.2522 17.9707 83.4749 87.2062 88.6792 130.511C88.7312 130.915 88.445 131.279 88.0287 131.331C87.9896 131.331 87.9636 131.331 87.9376 131.331Z" fill="#084FC7"/>
</svg>
