<svg width="233" height="150" viewBox="0 0 233 150" fill="none" xmlns="http://www.w3.org/2000/svg">
<path d="M232.828 7.95233L209.203 107.873L208.579 110.494L206.992 117.216C206.297 120.141 203.711 122.191 200.716 122.191H41.5446C37.3723 122.191 34.3055 118.304 35.2683 114.257L61.1044 4.97468C61.7998 2.06834 64.3852 0.017859 67.3807 0.017859H226.534C230.706 0.017859 233.773 3.90486 232.828 7.95233Z" fill="#39393B"/>
<path d="M209.185 107.855L208.579 110.494H43.3098V107.855H209.185Z" fill="#585859"/>
<path d="M105.68 24.7307C104.361 31.8093 97.5495 37.5507 90.4709 37.5507C83.3923 37.5507 78.7207 31.8093 80.0402 24.7307C81.3596 17.6521 88.1708 11.9107 95.2494 11.9107C102.346 11.9107 107 17.6521 105.68 24.7307Z" fill="#FAAF3A"/>
<path d="M91.202 22.2878C90.9345 23.6964 90.2213 24.8553 89.6151 24.8553C88.991 24.8553 88.7057 23.7142 88.9732 22.2878C89.2406 20.8792 89.9539 19.7202 90.5601 19.7202C91.1841 19.7202 91.4694 20.8614 91.202 22.2878Z" fill="#39393B"/>
<path d="M97.8883 22.2878C97.6209 23.6964 96.9077 24.8553 96.3014 24.8553C95.6952 24.8553 95.3921 23.7142 95.6595 22.2878C95.927 20.8792 96.6402 19.7202 97.2464 19.7202C97.8705 19.7202 98.1558 20.8614 97.8883 22.2878Z" fill="#39393B"/>
<path d="M91.8082 30.989C86.2986 30.989 86.0668 25.4794 86.0668 25.4259C86.049 25.1228 86.2986 24.8197 86.6196 24.7662C86.9405 24.6949 87.1901 24.891 87.208 25.1941C87.208 25.3903 87.4219 29.8835 92.04 29.8835C96.6402 29.8835 98.5302 25.3903 98.6193 25.1941C98.7442 24.891 99.0829 24.7127 99.3682 24.7662C99.6535 24.8376 99.7962 25.1228 99.6713 25.4259C99.6179 25.4616 97.3177 30.989 91.8082 30.989Z" fill="#39393B"/>
<path d="M179.266 84.6048C179.408 91.2377 190.641 99.5466 190.641 99.5466C190.641 99.5466 203.693 91.2377 205.28 84.6048C206.992 77.4192 198.79 75.2082 192.71 80.6286C187.806 75.2082 179.105 77.4192 179.266 84.6048Z" fill="#DF615C"/>
<path d="M155.48 65.3657C154.713 72.2482 148.526 77.8113 141.662 77.8113C134.797 77.8113 129.822 72.2304 130.589 65.3657C131.356 58.4832 137.543 52.9202 144.408 52.9202C151.29 52.9202 156.247 58.5011 155.48 65.3657Z" fill="#585859"/>
<path d="M73.6926 0.0178205L46.1805 122.191H41.5446C37.3723 122.191 34.3055 118.304 35.2683 114.257L61.1044 4.97464C61.7998 2.0683 64.3852 0 67.3807 0H73.6926V0.0178205Z" fill="#585859"/>
<path d="M119.784 122.191L114.952 149.347H130.91L135.742 122.191H119.784Z" fill="white"/>
<path d="M91.095 144.675L94.3579 140.093C95.5169 138.452 97.4069 137.49 99.4217 137.49H143.142C145.46 137.49 147.581 138.773 148.651 140.824L150.844 145.032C151.878 146.993 150.452 149.364 148.223 149.364H93.5021C91.095 149.347 89.7042 146.619 91.095 144.675Z" fill="white"/>
<path d="M0 149.329H131.338L132.764 144.372C133.656 141.252 131.32 138.149 128.075 138.149H6.88249C4.7072 138.149 2.79935 139.593 2.19312 141.679L0 149.329Z" fill="white"/>
</svg>
