<svg width="46" height="40" viewBox="0 0 46 40" fill="none" xmlns="http://www.w3.org/2000/svg">
<path d="M30.4358 39.6493C30.8635 39.7384 31.2912 39.7919 31.7189 39.8275C35.7108 40.1483 38.9543 38.9899 41.3423 36.3881C48.2925 28.7963 45.4411 11.4743 45.3164 10.7436C45.2094 10.1555 44.657 9.76344 44.0867 9.87037C43.4986 9.9773 43.1066 10.5298 43.2135 11.1C43.2491 11.2782 46.0114 28.1191 39.774 34.9445C37.8315 37.0652 35.2475 37.9741 31.915 37.7068C17.9076 36.5841 2.2073 0.995487 2.04692 0.639067C1.81524 0.104436 1.1737 -0.145054 0.639067 0.0866191C0.104436 0.318292 -0.145054 0.959864 0.0866191 1.4945C0.692534 2.97364 15.5909 36.6376 30.4358 39.6493Z" fill="white"/>
</svg>
