<svg width="108" height="55" viewBox="0 0 108 55" fill="none" xmlns="http://www.w3.org/2000/svg">
<path d="M107.799 40.7883C56.271 69.1378 0 46.3156 0 46.3156C2.7458 38.8092 4.79622 30.3401 6.2761 22.6376C7.98777 13.6691 8.95058 5.75271 9.39633 1.59836C31.3092 0.403759 85.0484 -1.8963 106.105 3.09606L106.266 11.5296L107.799 40.7883Z" fill="#EA9B7A"/>
<path d="M69.7325 27.2023C69.3581 29.8589 68.1457 31.8915 67.0581 31.7311C65.9526 31.5706 65.382 29.2884 65.7565 26.6317C66.1309 23.9751 67.3433 21.9425 68.4309 22.1029C69.5364 22.2634 70.107 24.5456 69.7325 27.2023Z" fill="#D96C63"/>
<path d="M106.248 11.5298C84.2995 10.1926 41.1334 9.72902 6.25825 22.62C7.96992 13.6516 8.93273 5.7351 9.37848 1.58075C31.2914 0.386145 85.0305 -1.91391 106.088 3.07845L106.248 11.5298Z" fill="#D96C63"/>
</svg>
