<svg width="88" height="108" viewBox="0 0 88 108" fill="none" xmlns="http://www.w3.org/2000/svg">
<path d="M68.955 54.3655C68.955 54.3655 75.9316 48.8558 77.7741 56.1544C79.6167 63.453 74.4289 76.4224 66.3074 72.4868L68.955 54.3655Z" fill="#D96C63"/>
<path d="M62.1393 67.782C58.6689 68.9269 55.61 72.0038 54.8229 75.8141C53.678 81.5027 57.3631 87.0482 63.0338 88.211C68.7224 89.3559 74.2679 85.6708 75.4307 80.0001C76.2893 75.7425 74.4468 71.5566 71.0658 69.2489C69.9389 68.4618 68.633 67.9073 67.2019 67.6211C67.1661 67.6211 67.1303 67.6032 67.0945 67.6032C66.8978 68.3187 66.9693 68.8912 67.3807 69.3384C68.5256 69.6425 69.5632 70.1613 70.4755 70.841C73.1052 72.8446 74.5184 76.2255 73.8207 79.6781C72.8547 84.4723 68.15 87.5849 63.3558 86.6189C58.5616 85.6529 55.449 80.9482 56.415 76.154C57.1305 72.6657 59.7065 70.197 62.9443 69.4099L62.1393 67.782Z" fill="#FAAF3A"/>
<path d="M47.8105 85.653L44.8946 103.935C44.8946 103.935 31.2097 117.906 6.21916 92.8443C12.9274 87.8533 15.4855 76.2614 14.6984 68.7839C14.6984 68.7839 16.6662 69.9646 19.7073 72.7194C20.2976 73.2561 21.0668 73.6675 21.8002 74.1863C28.4012 78.6585 38.5262 84.5081 47.8105 85.653Z" fill="#EA9B7A"/>
<path d="M47.8105 85.6529L46.433 94.311C38.9377 90.9659 25.6821 83.8282 19.7072 72.7014C20.3512 73.1666 21.0668 73.6496 21.8002 74.1683C28.4012 78.6584 38.5262 84.508 47.8105 85.6529Z" fill="#39393B"/>
<path d="M75.7169 49.965C75.3233 51.897 74.9656 53.7395 74.5899 55.4926C74.1963 57.3888 73.8207 59.1777 73.445 60.8592C70.6723 73.5065 68.4004 80.2864 64.7153 82.8266C46.0574 95.6528 15.7002 69.6783 14.7163 68.8376C14.6984 68.8197 14.6984 68.8197 14.6984 68.8197C14.6805 67.3349 14.6805 65.8502 14.6984 64.4012C14.9309 52.0937 17.0239 41.0385 20.3512 30.824C22.0149 19.6614 30.673 10.7171 41.8177 9.03551C53.3739 7.3003 62.0678 13.9907 67.506 16.9423C75.7169 21.4145 78.9369 33.8472 75.7169 49.965Z" fill="#EA9B7A"/>
<path d="M20.9953 19.3393C20.9953 19.3393 34.0541 -5.77648 60.1001 1.23591C86.1461 8.2483 87.5235 20.3411 87.9886 26.3875C88.4537 32.4339 74.5005 21.7185 74.5005 21.7185C74.5005 21.7185 74.0175 33.8113 69.3664 30.0905C63.6599 25.5109 57.2915 15.6542 57.2915 15.6542C57.2915 15.6542 41.782 30.8955 27.0417 26.781C18.6519 24.4555 20.9953 19.3393 20.9953 19.3393Z" fill="#39393B"/>
<path d="M52.9804 74.5979C49.5994 74.5979 47.2738 72.2545 47.1665 72.1292C46.8087 71.7536 46.8087 71.1632 47.1844 70.8055C47.5601 70.4477 48.1325 70.4477 48.4903 70.8233C48.6155 70.9486 51.2988 73.614 54.8408 72.3976C55.3238 72.2366 55.8604 72.487 56.0214 72.97C56.1824 73.453 55.932 73.9896 55.449 74.1506C54.5903 74.4726 53.7675 74.5979 52.9804 74.5979Z" fill="#D96C63"/>
<path d="M45.1987 59.3924C45.1987 59.3924 57.7566 63.1133 64.2681 63.1133C64.2681 63.1133 61.0124 72.4154 51.7102 69.1597C44.4653 66.6195 45.1987 59.3924 45.1987 59.3924Z" fill="white"/>
<path d="M68.5078 33.239C68.5078 33.239 65.252 32.8991 65.7708 36.0655C66.3074 39.2318 73.3735 37.2998 76.8797 43.6324C76.8797 43.6324 80.2607 36.9957 68.5078 33.239Z" fill="#39393B"/>
<path d="M54 30.3051C54 30.3051 57.1305 31.2711 55.4132 33.9723C53.6959 36.6735 47.9357 32.1476 42.2471 36.6198C42.2471 36.6198 41.7283 29.196 54 30.3051Z" fill="#39393B"/>
<path d="M48.3471 52.9702C48.043 54.4549 44.7336 55.0453 40.9233 54.276C37.1309 53.5068 34.3045 51.6822 34.6086 50.1795C34.9127 48.6948 38.2221 48.1044 42.0324 48.8737C45.8248 49.6429 48.6512 51.4854 48.3471 52.9702Z" fill="#D96C63"/>
<path d="M85.4126 53.9542L75.2697 52.219C75.216 52.6483 75.1087 53.0777 75.0193 53.4891C75.0014 53.5607 74.9835 53.6322 74.9477 53.7038L85.1622 55.439C85.5736 55.5106 85.9672 55.2243 86.0387 54.8129C86.1103 54.4193 85.842 54.0258 85.4126 53.9542Z" fill="white"/>
<path d="M58.3291 45.2958C58.3291 44.7771 58.3112 44.2583 58.2396 43.7574C57.8997 41.0025 56.6833 38.4624 54.8229 36.4946C53.1056 34.6878 50.8695 33.364 48.2756 32.7916C48.2398 32.7737 48.1861 32.7737 48.1504 32.7558C42.2113 31.5394 36.3617 34.652 33.9467 39.9471C33.7321 40.4122 33.5531 40.8773 33.3921 41.3603C33.249 41.7896 33.1417 42.2369 33.0344 42.6841C32.3546 46.0114 33.0165 49.3029 34.6801 51.9862C35.2526 52.8985 35.9324 53.7393 36.7016 54.4728C38.3831 56.1006 40.5119 57.2813 42.9626 57.7822C47.0949 58.6408 51.1557 57.3886 54.0716 54.7769C56.0393 53.0238 57.4883 50.6267 58.0607 47.8539C58.0607 47.836 58.0607 47.836 58.0607 47.8181C58.2396 46.9774 58.3291 46.1366 58.3291 45.2958ZM43.2846 56.2974C43.2131 56.2795 43.1594 56.2795 43.1058 56.2616C39.9037 55.5461 37.3098 53.5068 35.7893 50.8413C34.4834 48.5337 33.9646 45.7788 34.537 42.9882C34.6622 42.4157 34.8233 41.8612 35.02 41.3245C35.0379 41.2888 35.0558 41.253 35.0558 41.2172C36.6479 37.0849 40.5298 34.2764 44.8946 34.0259C45.8606 33.9723 46.8445 34.0259 47.8463 34.2406C49.9929 34.6878 51.8534 35.7075 53.3381 37.1207C56.0572 39.7145 57.4168 43.6143 56.6118 47.5498C55.3238 53.632 49.3668 57.5675 43.2846 56.2974Z" fill="white"/>
<path d="M81.0657 40.0724C80.7258 39.8936 80.368 39.7325 79.9923 39.5715C79.563 39.3926 79.1158 39.2495 78.6686 39.1064C78.3466 39.017 78.0425 38.9275 77.7026 38.8739C77.0944 38.7487 76.504 38.6771 75.9137 38.6413C75.1982 38.5877 74.4826 38.6056 73.7849 38.695C71.8351 38.9097 69.9925 39.5537 68.3647 40.5733C66.5758 41.6824 65.0553 43.2387 64.0177 45.1171C63.7315 45.6001 63.4989 46.1009 63.2843 46.6018C63.2664 46.6376 63.2664 46.6555 63.2485 46.6913C62.9801 47.371 62.7655 48.0866 62.6045 48.82C61.5848 53.7573 63.5705 58.6231 67.3092 61.521C68.5257 62.4691 69.921 63.2026 71.4594 63.6498C71.692 63.7214 71.9245 63.7929 72.175 63.8287C72.3002 63.8645 72.4075 63.8823 72.5327 63.9181C73.7671 64.1686 75.0014 64.2401 76.1999 64.1328C76.3967 64.1149 76.5935 64.097 76.7724 64.0791C77.2911 64.0076 77.8099 63.9181 78.3287 63.775C79.2768 63.5246 80.207 63.1668 81.0657 62.7196C84.3393 61.0023 86.8437 57.8896 87.6487 53.9899C88.8115 48.2655 85.9672 42.6484 81.0657 40.0724ZM86.1461 53.6679C86.0924 53.9183 86.0387 54.1509 85.9672 54.3834C85.8777 54.7233 85.7704 55.0453 85.6452 55.3852C84.7508 57.7644 83.105 59.6964 81.0299 60.9665C80.2786 61.4316 79.4557 61.8073 78.597 62.0935C78.0604 62.2724 77.5237 62.3976 76.9513 62.487C76.7903 62.5228 76.6293 62.5407 76.4683 62.5586C75.2876 62.7017 74.0533 62.6659 72.819 62.4155C72.7116 62.3976 72.5864 62.3618 72.4791 62.3439C72.4075 62.326 72.336 62.3082 72.2823 62.2903C70.4755 61.8252 68.8655 60.9307 67.5597 59.7322C67.3629 59.5533 67.184 59.3744 67.0051 59.1955C64.5186 56.6195 63.3022 52.8808 64.0714 49.1062C64.2503 48.2655 64.5186 47.4426 64.8585 46.6913C65.9855 44.2226 67.9532 42.3085 70.3324 41.1815C71.7993 40.4839 73.4272 40.1082 75.1087 40.1082C75.3771 40.1082 75.6454 40.1261 75.9316 40.144C76.4146 40.1798 76.8976 40.2513 77.3806 40.3408C77.7384 40.4123 78.0783 40.5018 78.4182 40.6091C78.8833 40.7522 79.3305 40.9311 79.7777 41.1279C80.1176 41.2889 80.4574 41.4677 80.7973 41.6466C84.8581 44.0258 87.1478 48.8021 86.1461 53.6679Z" fill="white"/>
<path d="M17.7753 42.2546C17.6858 42.2367 17.5964 42.201 17.5248 42.1473C17.1671 41.9148 17.0776 41.4496 17.2923 41.1098C22.3727 33.1672 34.5907 40.3048 34.698 40.3763C35.0558 40.591 35.181 41.0561 34.9664 41.4139C34.7517 41.7717 34.2866 41.8969 33.9288 41.6822C33.8215 41.6107 22.8557 35.2244 18.5624 41.9326C18.4014 42.1831 18.0794 42.3083 17.7753 42.2546Z" fill="white"/>
<path d="M63.8209 47.0312C63.6241 46.9954 63.4631 46.8702 63.3379 46.7092C61.71 44.2048 58.2396 45.3317 58.2038 45.3317C57.8103 45.457 57.381 45.2423 57.2557 44.8488C57.1305 44.4552 57.3452 44.0259 57.7387 43.9007C59.3308 43.364 62.8191 43.0957 64.6259 45.8863C64.8585 46.2441 64.7511 46.7092 64.3933 46.9238C64.2144 47.0312 64.0177 47.067 63.8209 47.0312Z" fill="white"/>
<g opacity="0.8">
<g opacity="0.8">
<g opacity="0.8">
<g opacity="0.8">
<g opacity="0.8">
<g opacity="0.8">
<g opacity="0.8">
<path opacity="0.8" d="M74.5899 55.4925C74.1964 57.3887 73.8207 59.1775 73.445 60.8591C69.9925 60.0183 67.506 58.3189 67.7922 56.9057C68.0963 55.5103 71.0658 54.9021 74.5899 55.4925Z" fill="#D96C63"/>
</g>
</g>
</g>
</g>
</g>
</g>
</g>
<path d="M51.0125 45.4747C50.6011 47.5319 49.331 48.9988 48.1861 48.7663C47.0412 48.5337 46.4509 46.6911 46.8623 44.6339C47.2738 42.5767 48.5439 41.1099 49.6888 41.3424C50.8336 41.575 51.424 43.4175 51.0125 45.4747Z" fill="#39393B"/>
<path d="M71.2984 49.5892C70.8869 51.6464 69.6168 53.1133 68.472 52.8807C67.3271 52.6482 66.7368 50.8057 67.1482 48.7485C67.5596 46.6912 68.8297 45.2244 69.9746 45.4569C71.1195 45.6895 71.7098 47.532 71.2984 49.5892Z" fill="#39393B"/>
<path d="M60.8156 55.0987C61.7995 55.2955 62.4971 55.2597 62.5508 55.2597C62.7833 55.2418 63.0159 55.1345 63.1769 54.9556C63.3379 54.7767 63.3916 54.5263 63.3737 54.2937L62.0678 44.7232C61.9962 44.2581 61.5669 43.9182 61.1018 43.9898C60.6367 44.0614 60.2968 44.4907 60.3684 44.9558L61.5312 53.4887C60.6725 53.3635 59.3845 53.0057 58.2217 52.0397C57.8639 51.7356 57.3094 51.7893 57.0053 52.1471C56.7012 52.5049 56.7549 53.0594 57.1126 53.3635C58.3827 54.4011 59.7601 54.8841 60.8156 55.0987Z" fill="#39393B"/>
<path d="M23.0882 61.861C22.9451 62.0756 18.9738 67.7821 14.7342 68.8197C14.7163 68.8018 14.7163 68.8018 14.7163 68.8018C14.6805 67.3171 14.6984 65.8323 14.7163 64.3833C14.8594 64.4012 18.9023 64.5085 23.0882 61.861Z" fill="#39393B"/>
<path d="M22.2117 46.87C22.2117 46.87 16.2369 34.2048 8.49103 41.6286C2.10475 47.7644 7.68603 68.2291 18.7771 63.8464L22.2117 46.87Z" fill="#EA9B7A"/>
<path d="M7.52503 57.8001C4.05461 58.945 0.995641 62.0219 0.208536 65.8322C-0.936343 71.5208 2.74873 77.0663 8.41946 78.2291C14.1081 79.374 19.6536 75.6889 20.8164 70.0182C21.675 65.7606 19.8325 61.5747 16.4515 59.267C15.3245 58.4799 14.0186 57.9254 12.5875 57.6392C12.5518 57.6392 12.516 57.6213 12.4802 57.6213C12.2834 58.3368 12.3729 58.9093 12.7664 59.3565C13.9113 59.6606 14.9489 60.1794 15.8612 60.8591C18.4908 62.8627 19.904 66.2436 19.2064 69.6962C18.2404 74.4904 13.5356 77.603 8.74145 76.637C3.94726 75.671 0.834641 70.9663 1.80063 66.1721C2.49829 62.6838 5.09215 60.2151 8.33001 59.428L7.52503 57.8001Z" fill="#FAAF3A"/>
<path d="M18.312 60.3226C18.3477 60.3226 18.3656 60.3405 18.4014 60.3405C18.8665 60.3763 19.2958 60.0364 19.3316 59.5534C20.2081 49.9829 12.9811 45.135 12.677 44.9383C12.2835 44.6699 11.7468 44.7952 11.4784 45.1887C11.2101 45.5823 11.3353 46.1189 11.7289 46.3873C11.9972 46.5662 18.4014 50.8952 17.6143 59.4103C17.5964 59.8396 17.9005 60.2331 18.312 60.3226Z" fill="#39393B"/>
<path d="M11.4785 53.6142C11.6573 53.65 11.872 53.6321 12.0509 53.5248C12.9096 53.0776 15.4319 52.0758 16.8093 52.7377C17.2386 52.9523 17.7574 52.7735 17.9542 52.3441C18.1689 51.9148 17.99 51.396 17.5606 51.1992C15.1635 50.0365 11.6573 51.8075 11.2638 52.0043C10.8345 52.2189 10.6735 52.7377 10.906 53.167C11.0134 53.3996 11.2459 53.5606 11.4785 53.6142Z" fill="#39393B"/>
</svg>
