<svg width="107" height="94" viewBox="0 0 107 94" fill="none" xmlns="http://www.w3.org/2000/svg">
<path d="M78.3187 87.9442L8.82553 67.1852C3.77126 65.6771 0.902461 60.3578 2.41049 55.3035L16.2891 8.82553C17.7971 3.77127 23.1165 0.902477 28.1707 2.41051L97.6639 23.1695C102.718 24.6775 105.587 29.9969 104.079 35.0511L90.2003 81.5292C88.6864 86.5775 83.367 89.4522 78.3187 87.9442Z" stroke="#4D2C5E" stroke-opacity="0.1" stroke-width="4" stroke-miterlimit="10" stroke-linecap="round"/>
<path d="M4.04813 49.8075L91.8379 76.0331" stroke="#4D2C5E" stroke-opacity="0.1" stroke-width="4" stroke-miterlimit="10" stroke-linecap="round"/>
<path d="M48.158 70.537C47.781 71.7976 46.4497 72.5163 45.1891 72.1393C43.9285 71.7623 43.2098 70.431 43.5868 69.1704C43.9638 67.9097 45.2951 67.1911 46.5558 67.5681C47.8164 67.9451 48.535 69.2764 48.158 70.537Z" fill="#4D2C5E" fill-opacity="0.5"/>
<path d="M53.4209 80.5137L33.7385 74.6349L31.0865 83.5137L50.7689 89.3925L53.4209 80.5137Z" stroke="#4D2C5E" stroke-opacity="0.1" stroke-width="4" stroke-miterlimit="10" stroke-linecap="round"/>
<path d="M23.788 81.8414L57.7659 91.9911" stroke="#4D2C5E" stroke-opacity="0.1" stroke-width="4" stroke-miterlimit="10" stroke-linecap="round"/>
</svg>
