<svg width="106" height="145" viewBox="0 0 106 145" fill="none" xmlns="http://www.w3.org/2000/svg">
<path d="M62.8515 68.6203C62.8515 68.6203 52.8501 52.8913 28.5831 38.5981C11.4359 28.508 1.44742 0 1.44742 0C1.44742 0 34.2945 1.43583 48.573 21.4463C62.8516 41.4698 62.8515 68.6203 62.8515 68.6203Z" fill="#21B573"/>
<path d="M62.9689 69.051C62.7472 69.051 62.5516 68.9074 62.4994 68.6855C57.8834 51.2335 47.7776 38.585 40.1102 31.0403C31.8039 22.8691 24.5147 18.7835 24.4365 18.7443C24.2017 18.6138 24.1105 18.3135 24.2409 18.0786C24.3713 17.8436 24.6712 17.7523 24.9059 17.8828C24.9841 17.922 32.3907 22.0728 40.7883 30.3485C48.5469 37.9715 58.7701 50.7766 63.4383 68.4375C63.5035 68.6986 63.347 68.9727 63.0862 69.038C63.0471 69.038 63.008 69.051 62.9689 69.051Z" fill="#39393B"/>
<path d="M58.5484 68.2679C58.5484 68.2679 55.6927 62.5506 42.8355 63.9734C29.9783 65.4092 22.8456 72.5493 0 59.6789C0 59.6789 17.1342 45.3857 35.7028 48.2443C54.2583 51.116 55.6927 58.2561 58.5484 68.2679Z" fill="#21B573"/>
<path d="M58.6136 68.7508C58.4571 68.7508 58.2877 68.6725 58.1964 68.5158C58.1442 68.4245 52.3937 59.3786 43.1485 57.6948C26.9923 54.7578 15.9867 59.9269 15.8824 59.9791C15.6347 60.0966 15.3478 59.9921 15.2304 59.7441C15.1131 59.4961 15.2174 59.209 15.4651 59.0915C15.5825 59.0393 26.8488 53.7266 43.331 56.7288C53.0065 58.491 58.7962 67.6021 59.0309 67.9937C59.1743 68.2286 59.1091 68.5289 58.8744 68.6725C58.7831 68.7377 58.7049 68.7508 58.6136 68.7508Z" fill="#39393B"/>
<path d="M64.1555 66.8842C64.1555 66.8842 63.0341 60.5926 74.1961 54.053C85.3581 47.5133 95.3465 48.9753 106 24.9967C106 24.9967 83.7281 23.7697 70.5449 37.1622C57.3618 50.5678 60.4783 57.1466 64.1555 66.8842Z" fill="#21B573"/>
<path d="M64.1034 67.4063C63.8556 67.4063 63.6339 67.2106 63.6209 66.9625C63.5818 66.5057 62.7863 55.7368 69.5018 48.5446C80.9377 36.2877 93.1429 33.8076 93.2602 33.7815C93.521 33.7293 93.7818 33.899 93.834 34.1731C93.8861 34.4341 93.7166 34.6952 93.4428 34.7474C93.3254 34.7735 81.4201 37.2014 70.206 49.2103C63.7904 56.0893 64.5728 66.7798 64.5858 66.8842C64.6119 67.1583 64.4033 67.3933 64.1425 67.4063C64.1295 67.4063 64.1164 67.4063 64.1034 67.4063Z" fill="#39393B"/>
<path d="M77.2995 74.6508H46.0042C44.1525 74.6508 42.653 73.1366 42.653 71.2962V69.8864C42.653 68.0329 44.1656 66.5318 46.0042 66.5318H77.2995C79.1512 66.5318 80.6507 68.0459 80.6507 69.8864V71.2962C80.6638 73.1497 79.1512 74.6508 77.2995 74.6508Z" fill="#DF615C"/>
<path d="M61.8083 144.655C36.2765 144.655 20.029 140.582 22.637 122.582C24.293 111.16 33.1992 99.9608 39.4843 93.3037C40.371 92.3639 41.2055 91.5155 41.9488 90.7714C44.2829 88.461 45.8477 87.1427 45.8477 87.1427L45.9259 86.725L46.3693 84.1926L46.8778 81.2818L48.0514 74.6377L48.4557 72.3143L61.8083 71.7269L75.7348 72.3143L76.0477 74.6377L76.5432 78.2796L77.3517 84.1796L77.7038 86.7119L77.7559 87.1296C77.7559 87.1296 79.3337 88.461 81.6548 90.7584C82.4111 91.5024 83.2457 92.3508 84.1324 93.2907C90.4175 99.9478 99.3237 111.134 100.98 122.569C103.588 140.595 87.3401 144.655 61.8083 144.655Z" fill="#DF615C"/>
<path d="M77.7038 86.738H45.9129L46.3563 84.2057H77.3517L77.7038 86.738Z" fill="#A92F4B"/>
<path d="M84.1323 93.3037H39.4712C40.3579 92.3639 41.1925 91.5154 41.9358 90.7714H81.6548C82.4111 91.5285 83.2456 92.3769 84.1323 93.3037Z" fill="#A92F4B"/>
<path d="M76.5432 78.3057L46.8778 81.2948L48.0514 74.6508H76.0477L76.5432 78.3057Z" fill="#A92F4B"/>
</svg>
