<svg width="59" height="52" viewBox="0 0 59 52" fill="none" xmlns="http://www.w3.org/2000/svg">
<path d="M29.4292 10.6813L46.277 0.782566V9.39192L29.4292 10.6813Z" fill="#B8E8F2"/>
<path d="M29.4292 10.6812L49.8691 3.10333V9.24253L29.4292 10.6812Z" fill="#88CFE5"/>
<path d="M29.4293 10.6814L7.53263 0V8.3741L29.4293 10.6814Z" fill="#B8E8F2"/>
<path d="M29.4292 10.6815L2.91803 1.93193V7.83588L29.4292 10.6815Z" fill="#88CFE5"/>
<path d="M29.4654 52L0.0316685 46.3041L0 4.97649L29.4338 10.6769L29.4654 52Z" fill="#472758"/>
<path d="M58.9671 34.1297C58.9671 41.4406 53.2305 47.3355 46.1322 48.7199L29.4338 51.9682L29.4292 10.6813L44.9921 7.65467C51.9185 6.30649 57.5465 9.87148 57.5465 17.0105C57.5465 20.4307 56.239 23.3985 54.0856 25.7646C57.0353 27.1309 58.9625 29.9404 58.9671 34.1297ZM38.5181 17.7615V25.0724L44.9921 23.8102C47.037 23.4121 48.4576 21.6025 48.4576 19.4807C48.4576 17.3589 47.0958 16.0921 44.9921 16.4993L38.5181 17.7615ZM49.8782 35.1883C49.8782 32.8901 48.4033 31.5238 46.1277 31.9672L38.5181 33.4465V41.3501L46.1277 39.8708C48.4033 39.4319 49.8782 37.4911 49.8782 35.1883Z" fill="#4D2C5E"/>
</svg>
