<svg width="69" height="85" viewBox="0 0 69 85" fill="none" xmlns="http://www.w3.org/2000/svg">
<path d="M17.9472 59.8605C17.9472 59.8605 1.84946 50.8412 5.0141 32.0695C8.17875 13.2977 20.5234 2.00062 39.4459 7.44626C39.4459 7.44626 37.6151 61.7063 17.9472 59.8605Z" fill="#39393B"/>
<path d="M62.7231 25.3409C62.7231 25.3409 64.3708 41.4553 61.4285 43.7854C58.4992 46.1155 55.6222 39.7405 55.6222 39.7405C55.6222 39.7405 59.6238 25.5242 62.7231 25.3409Z" fill="#39393B"/>
<path d="M55.3084 45.2516C55.3084 45.2516 60.1077 41.0364 61.7031 46.2072C63.2985 51.3779 60.0685 60.8947 54.0923 58.3682L55.3084 45.2516Z" fill="#D46A43"/>
<path d="M61.2193 57.1901C60.5655 57.7922 59.8332 58.3158 59.0355 58.7478C56.0147 60.3711 52.0785 60.5674 47.3446 58.0802C47.3446 58.0802 41.2899 50.1998 50.2346 36.2977C50.2346 36.2977 58.4339 34.1377 63.1286 39.099C63.6517 39.6488 64.1224 40.2772 64.5409 41.0102C64.8024 41.4553 65.0247 41.9397 65.234 42.4633C66.8948 46.6915 65.3517 53.4331 61.2193 57.1901Z" fill="#21B573"/>
<path d="M60.997 37.4103C61.3762 35.5515 61.7554 33.2476 62.0039 30.6949C61.8862 30.7473 61.7685 30.7866 61.6377 30.7866C61.1277 30.8258 60.6308 30.6164 60.1339 30.2499C59.9115 32.6323 59.5715 34.7923 59.2315 36.5857L60.997 37.4103Z" fill="white"/>
<path d="M61.2193 57.1901C60.5654 57.7922 59.8331 58.3158 59.0354 58.7478C63.1808 50.1474 63.2985 42.2931 63.1285 39.099C63.6516 39.6488 64.1223 40.2772 64.5408 41.0102C64.5408 44.6232 63.9916 50.5663 61.2193 57.1901Z" fill="#217C58"/>
<path d="M41.3159 68.5002L39.3414 81.8263C39.3414 81.8263 31.1943 92.2856 12.3372 75.2288C14.4819 69.8093 17.7773 62.8321 16.9273 57.4912C16.9273 57.4912 18.3004 58.7609 20.6804 60.2663C21.1642 60.5805 21.6873 60.9078 22.2366 61.235C27.1274 64.2066 34.6074 68.029 41.3159 68.5002Z" fill="#EA9B7A"/>
<path d="M41.316 68.5002L40.3875 74.7313C34.8821 72.6107 25.362 68.0159 20.6673 60.2532C21.1512 60.5674 21.6743 60.8947 22.2235 61.2219C27.1274 64.2066 34.6074 68.029 41.316 68.5002Z" fill="#39393B"/>
<path d="M59.4015 45.8406C59.1923 47.2151 58.9961 48.5111 58.7869 49.7416C57.27 58.9311 55.8838 63.8793 53.3337 65.8429C40.4267 75.7524 17.6727 58.2373 16.9404 57.6744C16.9273 57.6613 16.9273 57.6613 16.9273 57.6613C16.8488 56.5879 16.7965 55.5276 16.7703 54.4934C16.4696 45.6443 17.5549 37.6329 19.5688 30.1582C20.3403 22.0814 26.2119 15.3267 34.1497 13.7035C42.3752 12.0279 48.8614 16.5049 52.8761 18.4161C58.9307 21.3222 61.7031 30.132 60.0031 41.8349C59.7938 43.2356 59.5977 44.5708 59.4015 45.8406Z" fill="#EA9B7A"/>
<path d="M47.8675 56.5486C40.649 56.5486 37.759 49.6369 37.7328 49.5583C37.602 49.218 37.759 48.8383 38.099 48.7074C38.439 48.5765 38.8182 48.7336 38.949 49.074C39.0797 49.375 42.1005 56.5486 49.9729 55.0301C50.326 54.9647 50.666 55.2003 50.7445 55.5537C50.8099 55.9072 50.5745 56.2476 50.2214 56.3261C49.3845 56.4701 48.5998 56.5486 47.8675 56.5486Z" fill="#39393B"/>
<path d="M42.3098 31.5982C44.1667 30.9568 43.7875 28.2208 41.8259 28.0899C38.4913 27.8805 33.1297 27.959 32.6851 30.6557C32.0312 34.5959 38.2559 32.9596 42.1921 31.6375C42.2314 31.6244 42.2706 31.6113 42.3098 31.5982Z" fill="#39393B"/>
<path d="M52.1568 32.7632C50.7183 31.428 52.1699 29.0717 54.0137 29.7524C57.1522 30.9044 62.03 33.1429 61.3499 35.7871C60.3692 39.6619 55.3215 35.6431 52.2484 32.8549C52.2091 32.8156 52.183 32.7894 52.1568 32.7632Z" fill="#39393B"/>
<path d="M42.5452 59.7689C43.866 60.0961 44.9776 59.8474 45.056 59.8213C45.2914 59.7689 45.4353 59.5332 45.383 59.2976C45.3307 59.062 45.0952 58.918 44.8599 58.9704C44.8337 58.9704 42.676 59.4547 41.0414 58.0148C40.8583 57.8577 40.5836 57.8708 40.4267 58.054C40.2698 58.2373 40.2829 58.5122 40.466 58.6693C41.1329 59.2714 41.8652 59.5987 42.5452 59.7689Z" fill="#D46A43"/>
<path d="M47.0699 50.7888C46.9522 50.7365 46.8737 50.6317 46.8214 50.5139C46.7429 50.2652 46.8737 49.9903 47.1221 49.9118L50.2738 48.8776L48.4037 46.9795C48.2991 46.8748 48.2468 46.7308 48.2729 46.5868L48.8483 41.3637C48.8745 41.1019 49.1099 40.9055 49.3845 40.9448C49.6461 40.971 49.8422 41.2066 49.803 41.4684L49.2406 46.4559L51.4899 48.7336C51.6076 48.8514 51.6599 49.0216 51.6206 49.1787C51.5814 49.3358 51.4637 49.4667 51.3068 49.519L47.423 50.8019C47.3053 50.8674 47.1876 50.8543 47.0699 50.7888Z" fill="#39393B"/>
<path d="M38.9098 45.8014C38.7529 46.8879 36.3859 47.4246 33.6398 47.0188C30.8936 46.613 28.7882 45.3955 28.9582 44.309C29.1152 43.2225 31.4821 42.6858 34.2282 43.0916C36.9613 43.5105 39.0668 44.7148 38.9098 45.8014Z" fill="#D46A43"/>
<g opacity="0.8">
<g opacity="0.8">
<g opacity="0.8">
<g opacity="0.8">
<g opacity="0.8">
<g opacity="0.8">
<g opacity="0.8">
<g opacity="0.8">
<g opacity="0.8">
<g opacity="0.8">
<g opacity="0.8">
<path opacity="0.8" d="M59.4015 47.1104C59.1922 48.4849 58.9961 49.7809 58.7869 51.0114C56.2761 50.5401 54.4322 49.4012 54.5891 48.3933C54.733 47.3591 56.8514 46.8224 59.4015 47.1104Z" fill="#D46A43"/>
</g>
</g>
</g>
</g>
</g>
</g>
</g>
</g>
</g>
</g>
</g>
<path d="M41.5906 41.9266C41.3683 43.4189 40.5183 44.5185 39.6813 44.4007C38.8444 44.2829 38.3606 42.9738 38.5698 41.4815C38.7921 39.9892 39.6422 38.8896 40.4791 39.0074C41.316 39.1252 41.8129 40.4343 41.5906 41.9266Z" fill="#39393B"/>
<path d="M56.2892 44.1127C56.0669 45.605 55.2169 46.7046 54.38 46.5868C53.543 46.469 53.0591 45.1599 53.2684 43.6676C53.4907 42.1753 54.3407 41.0757 55.1777 41.1935C56.0277 41.3244 56.5115 42.6335 56.2892 44.1127Z" fill="#39393B"/>
<path d="M22.6812 52.3597C22.5896 52.5168 19.9612 56.7581 16.9404 57.6744C16.9273 57.6613 16.9273 57.6613 16.9273 57.6613C16.8488 56.5879 16.7965 55.5276 16.7704 54.4934C16.875 54.4803 19.7781 54.4018 22.6812 52.3597Z" fill="#39393B"/>
<path d="M21.4912 41.6124C21.4912 41.6124 16.7311 32.7371 11.448 38.366C7.09334 43 11.801 57.7922 19.8173 53.8389L21.4912 41.6124Z" fill="#EA9B7A"/>
<path d="M19.2027 51.4172C18.8889 51.3648 18.6665 51.103 18.6796 50.7757C18.915 44.6232 14.168 41.7695 13.9719 41.6517C13.6842 41.4815 13.5796 41.1019 13.7496 40.8008C13.9196 40.4997 14.2988 40.4081 14.5996 40.5783C14.8219 40.7092 20.1965 43.9163 19.9219 50.8281C19.9088 51.1684 19.6212 51.4303 19.2812 51.4172C19.2419 51.4172 19.2289 51.4172 19.2027 51.4172Z" fill="#39393B"/>
<path d="M14.0503 46.8486C13.8672 46.8224 13.7102 46.7177 13.6056 46.5475C13.4356 46.2595 13.5272 45.8799 13.828 45.6966C14.1026 45.5395 16.548 44.1258 18.3134 44.8719C18.6273 45.0028 18.7711 45.3694 18.6403 45.6835C18.5096 45.9977 18.1434 46.1417 17.8296 46.0108C16.8096 45.5788 15.0049 46.4297 14.4557 46.757C14.3249 46.8486 14.1811 46.8748 14.0503 46.8486Z" fill="#39393B"/>
<path d="M36.2291 49.7416C31.5736 47.9613 29.2328 42.7251 31.0112 38.0649C32.7897 33.4047 38.0206 31.0615 42.676 32.8418C47.3315 34.6221 49.6722 39.8583 47.8938 44.5185C46.1153 49.1787 40.8845 51.5219 36.2291 49.7416ZM42.2053 34.0723C38.2299 32.5538 33.7574 34.5566 32.2405 38.5361C30.7236 42.5156 32.7244 46.9926 36.6998 48.5111C40.6752 50.0296 45.1476 48.0267 46.6645 44.0472C48.1815 40.0677 46.1807 35.5908 42.2053 34.0723Z" fill="white"/>
<path d="M31.299 39.2692C31.2205 39.2692 31.1421 39.243 31.0636 39.2038C26.1728 36.9653 21.5827 38.6671 21.5304 38.6932C21.1904 38.8241 20.8112 38.654 20.6804 38.3136C20.5497 37.9732 20.7196 37.5936 21.0596 37.4627C21.2689 37.3842 26.2251 35.5384 31.6128 38.0125C31.9398 38.1696 32.0836 38.5623 31.9398 38.8896C31.809 39.1383 31.5605 39.2823 31.299 39.2692Z" fill="white"/>
<path d="M56.2238 52.0062C51.5683 50.2259 49.2275 44.9898 51.006 40.3295C52.7845 35.6693 58.0153 33.3261 62.6707 35.1064C67.3262 36.8867 69.6669 42.1229 67.8885 46.7831C66.1231 51.4433 60.8792 53.7866 56.2238 52.0062ZM62.2131 36.3369C58.2376 34.8184 53.7653 36.8213 52.2484 40.8008C50.7314 44.7803 52.7322 49.2572 56.7076 50.7757C60.683 52.2942 65.1554 50.2914 66.6723 46.3119C68.1762 42.3324 66.1885 37.8554 62.2131 36.3369Z" fill="white"/>
<path d="M47.4753 40.683C47.3706 40.6306 47.2922 40.5521 47.2268 40.4474C47.0306 40.1332 47.1222 39.7274 47.4361 39.531C47.5276 39.4787 49.7245 38.1303 52.013 39.8845C52.3007 40.107 52.353 40.5259 52.1307 40.8139C51.9084 41.1019 51.4899 41.1542 51.2022 40.9317C49.6329 39.7274 48.1422 40.6437 48.1291 40.6437C47.9199 40.7877 47.6714 40.7877 47.4753 40.683Z" fill="white"/>
<path d="M52.3138 10.2869C57.8061 12.761 62.1215 17.3427 64.0439 23.0501C65.2469 26.6238 66.2539 31.3495 61.2323 30.7342C47.5276 29.0717 40.1913 14.8293 40.1913 14.8293C40.1913 14.8293 37.5236 27.9459 26.7612 26.3489C15.9988 24.7388 16.3388 16.6227 22.4588 12.0279C27.4412 8.28404 40.139 4.80199 52.3138 10.2869Z" fill="#39393B"/>
<path d="M27.1797 24.8435C27.1797 24.8435 21.0596 31.428 23.2565 38.51C25.4535 45.5919 25.5974 51.2732 23.3089 55.0825C23.3089 55.0825 22.7204 47.6209 19.9873 41.9659C17.7511 37.3187 15.6588 33.7843 17.2803 28.4303C18.3788 24.7519 21.0727 21.2305 27.1797 24.8435Z" fill="#39393B"/>
<path d="M17.228 56.9675C12.4811 58.1195 8.80638 57.4519 6.08636 55.737C5.65481 55.4621 5.24942 55.1611 4.85711 54.8469C-0.844483 50.0689 -1.26288 40.1594 2.22869 35.3028C3.45793 33.588 4.88332 32.436 6.38718 31.7029C6.84488 31.4673 7.30256 31.284 7.76026 31.14C13.658 29.2026 20.0527 32.7502 20.0527 32.7502C26.7351 51.1685 17.228 56.9675 17.228 56.9675Z" fill="#21B573"/>
<path d="M33.9274 65.0313C20.0527 62.1906 14.1549 52.1895 13.8803 51.7052C13.658 51.3255 13.7887 50.8281 14.181 50.6055C14.5603 50.383 15.0572 50.5139 15.2795 50.9066C15.3711 51.0637 22.5765 63.1855 39.3936 64.1018C39.8382 64.128 40.1783 64.5076 40.1521 64.9527C40.126 65.3978 39.7467 65.7381 39.3021 65.712C37.3928 65.6072 35.6013 65.3716 33.9274 65.0313Z" fill="white"/>
<path d="M43.8137 65.5025C43.526 66.8901 42.166 67.7934 40.7799 67.5054C39.3937 67.2174 38.4913 65.856 38.779 64.4684C39.0667 63.0808 40.4267 62.1776 41.8129 62.4656C43.1991 62.7405 44.1014 64.1019 43.8137 65.5025Z" fill="#243434"/>
<path d="M6.08636 55.7501C5.65482 55.4752 5.24943 55.1741 4.85712 54.86C9.25101 44.9112 7.76027 36.2191 6.3741 31.716C6.8318 31.4804 7.28948 31.2971 7.74718 31.1531C9.22488 35.918 10.8464 45.1992 6.08636 55.7501Z" fill="#217C58"/>
<path d="M62.4092 19.3193C61.2454 17.1332 59.9507 15.6802 59.31 14.9602C58.7738 13.4024 58.1984 11.9363 57.3353 10.5749C54.4322 5.96702 49.8422 3.13949 43.6699 2.18388C37.0136 1.14974 31.2336 2.47186 26.4997 6.09793C25.022 7.22371 23.7142 8.54586 22.5373 9.95963C20.9157 11.9363 19.5688 14.1224 18.4704 16.3085C14.6519 23.9533 13.7365 31.8076 13.7234 31.9124L11.9057 31.716C11.9841 30.9698 14.0372 13.3239 25.375 4.6318C30.5143 0.691564 36.7651 -0.748382 43.9444 0.364309C50.666 1.39846 55.6877 4.51397 58.8785 9.59308C60.7354 12.5384 61.8338 15.8896 62.4092 19.3193Z" fill="white"/>
</svg>
