<svg width="93" height="95" viewBox="0 0 93 95" fill="none" xmlns="http://www.w3.org/2000/svg">
<path d="M44.472 79.9607L21.0973 72.0219C18.6274 71.1852 17.3087 68.501 18.1454 66.031C18.9821 63.561 21.6663 62.2424 24.1296 63.0791L47.5042 71.0179C49.9742 71.8546 51.2929 74.5388 50.4562 77.0021C49.6195 79.4788 46.942 80.8041 44.472 79.9607Z" stroke="#4D2C5E" stroke-opacity="0.1" stroke-width="3" stroke-miterlimit="10"/>
<path d="M41.3995 89.0106L18.0249 81.0719C15.5549 80.2351 14.2362 77.551 15.0729 75.0877C15.9096 72.6177 18.5938 71.299 21.0638 72.1357L44.4384 80.0678C46.9084 80.9045 48.2271 83.5887 47.3904 86.0587C46.547 88.5287 43.8695 89.8474 41.3995 89.0106Z" stroke="#4D2C5E" stroke-opacity="0.1" stroke-width="3" stroke-miterlimit="10"/>
<path d="M20.6221 38.6669C20.6489 38.7472 20.669 38.8209 20.6957 38.9012C21.2179 40.568 24.297 51.1307 23.0118 62.8514L48.0866 71.1249C54.0306 60.9437 62.7927 54.2968 64.2051 53.266C64.2721 53.2191 64.339 53.1723 64.3993 53.1254C65.082 52.6368 65.7447 52.1147 66.3873 51.5591C70.1626 48.2992 73.1346 44.0085 74.808 38.9347C79.7413 23.9942 71.6285 7.88235 56.6881 2.94906C41.7476 -1.98424 25.6357 6.12859 20.7024 21.069C19.0223 26.1496 18.855 31.3641 19.9527 36.2304C20.1402 37.047 20.3611 37.8637 20.6221 38.6669Z" stroke="#4D2C5E" stroke-opacity="0.1" stroke-width="3" stroke-miterlimit="10"/>
<path d="M19.3033 81.6208C19.0222 86.5741 22.0746 91.2932 27.0146 92.9265C31.8876 94.533 37.0753 92.6253 39.8331 88.5889L19.3033 81.6208Z" stroke="#4D2C5E" stroke-opacity="0.1" stroke-width="3" stroke-miterlimit="10"/>
<path d="M30.8635 65.3081L38.3136 42.73C39.0499 40.5077 37.8384 38.1113 35.616 37.375C33.3937 36.6387 30.9973 37.8503 30.261 40.0726C29.5247 42.2949 30.7363 44.6913 32.9586 45.4276L41.9015 48.3796" stroke="#4D2C5E" stroke-opacity="0.1" stroke-width="3" stroke-miterlimit="10"/>
<path d="M40.6899 68.5546L48.1401 45.9766C48.8764 43.7542 51.2728 42.5493 53.4951 43.279C55.7174 44.0153 56.9223 46.4116 56.1927 48.634C55.4564 50.8563 53.06 52.0612 50.8377 51.3316L41.8948 48.3796" stroke="#4D2C5E" stroke-opacity="0.1" stroke-width="3" stroke-miterlimit="10"/>
<path d="M80.1028 46.7128L87.6533 49.2095" stroke="#4D2C5E" stroke-opacity="0.1" stroke-width="3" stroke-miterlimit="10" stroke-linecap="round"/>
<path d="M83.5635 37.201L91.4286 36.0162" stroke="#4D2C5E" stroke-opacity="0.1" stroke-width="3" stroke-miterlimit="10" stroke-linecap="round"/>
<path d="M74.8214 54.8725L80.4307 60.5086" stroke="#4D2C5E" stroke-opacity="0.1" stroke-width="3" stroke-miterlimit="10" stroke-linecap="round"/>
<path d="M9.97219 23.5658L2.42166 21.0758" stroke="#4D2C5E" stroke-opacity="0.1" stroke-width="3" stroke-miterlimit="10" stroke-linecap="round"/>
<path d="M12.8573 13.8599L7.24793 8.22372" stroke="#4D2C5E" stroke-opacity="0.1" stroke-width="3" stroke-miterlimit="10" stroke-linecap="round"/>
<path d="M9.36309 33.265L1.50463 34.4498" stroke="#4D2C5E" stroke-opacity="0.1" stroke-width="3" stroke-miterlimit="10" stroke-linecap="round"/>
</svg>
