<svg width="150" height="85" viewBox="0 0 150 85" fill="none" xmlns="http://www.w3.org/2000/svg">
<path fill-rule="evenodd" clip-rule="evenodd" d="M142.957 59.2548C141.976 58.29 140.416 58.3048 139.443 59.2725C127.781 70.4893 115.502 76.1948 102.982 76.3378C90.7911 76.4753 78.4748 71.1866 66.3911 60.7077C63.7052 58.4205 59.5534 53.6583 55.9012 48.0356C58.9656 43.6278 61.0077 38.4079 62.016 33.3789C63.5031 25.9514 62.4202 19.1221 59.9692 15.7397C58.6111 13.8668 56.8598 12.7191 54.8122 12.2406C52.1912 11.6319 48.6299 12.1749 44.5425 15.6419C38.9031 20.4477 37.5324 27.3098 39.2171 34.8618C40.1069 38.8319 41.9033 42.9981 44.141 47.0018C41.5518 49.0687 38.3303 50.2644 34.4099 49.8339C26.1112 48.9789 19.8889 42.1646 15.4629 34.1471C11.6245 27.2111 7.00032 16.9647 8.22267 8.82288C8.63649 6.05607 9.84688 3.67814 7.5634 1.41688C4.06733 -2.08174 0.862604 1.53989 0.288873 5.34006C-0.939326 13.5037 1.97052 23.3375 4.84236 30.8684C10.1129 44.7273 20.0034 57.192 33.3582 58.9104C39.619 59.6873 44.9314 58.0225 49.2345 54.9291C53.319 60.5975 57.7242 65.2872 60.6146 67.6409C74.9164 79.0533 89.3099 84.3606 103.236 83.5533C117.149 82.754 130.642 75.9232 142.975 62.7689C143.94 61.7875 143.939 60.2197 142.957 59.2548ZM50.1934 37.0309C49.3249 34.7277 48.7381 32.4648 48.566 30.313C48.3516 27.5768 48.8794 25.0393 51.012 23.2361C51.3734 22.9352 51.8135 22.515 52.1749 22.2141C52.4467 23.1643 52.9169 25.0333 52.9237 26.5792C52.9232 30.03 52.1388 34.1364 50.5643 37.9608C50.4162 37.6404 50.2979 37.3396 50.1934 37.0309Z" fill="#FF7426"/>
<path fill-rule="evenodd" clip-rule="evenodd" d="M52.503 21.9516C52.7474 22.0873 52.9817 22.1735 52.963 21.9813C52.9342 21.7396 52.7718 21.778 52.503 21.9516Z" fill="#FF7426"/>
<path fill-rule="evenodd" clip-rule="evenodd" d="M136.125 64.7118C134.988 67.2499 133.89 69.9504 133.107 72.5246C131.902 76.5417 131.385 80.2167 132.376 82.892C132.685 84.2266 134.031 85.055 135.358 84.732C136.692 84.4228 137.52 83.0773 137.197 81.7507C137.129 81.089 137.36 80.4022 137.578 79.6302C138.078 77.8104 139.195 75.9106 140.411 73.8617C141.965 71.2484 143.834 68.6376 145.429 66.2223C146.88 64.0376 148.09 62.0105 148.86 60.4036C150.076 57.875 150.141 55.7519 149.866 54.5084C149.79 54.1837 147.094 49.3555 142.485 51.2788C140.837 51.972 136.753 53.9425 136.551 54.0405C134.097 55.3834 129.539 57.8119 125.198 59.0819C123.826 59.4864 122.502 59.8451 121.295 59.896C121.231 59.7853 121.167 59.6746 121.09 59.5719C119.963 57.9715 117.771 57.5947 116.162 58.7079C115.271 59.241 114.108 60.7427 113.797 61.6419C113.2 63.3888 113.865 64.7951 115.495 65.9572C117.716 67.535 120.929 67.9864 124.541 67.6909C128.337 67.3628 132.638 66.0236 136.125 64.7118ZM140.134 56.6032C140.403 56.0788 140.495 55.6938 140.131 55.6082C139.725 55.511 139.995 56.2035 140.134 56.6032Z" fill="#FF7426"/>
</svg>
