<svg width="137" height="150" viewBox="0 0 137 150" fill="none" xmlns="http://www.w3.org/2000/svg">
<path d="M135.922 112.06C135.709 112.701 135.459 113.289 135.174 113.841C135.067 114.055 134.961 114.268 134.854 114.464C132.093 119.576 127.837 124.011 124.257 127.163C123.509 127.822 122.796 128.41 122.137 128.944C120.82 130.012 119.698 130.85 118.932 131.402C118.219 131.9 117.81 132.167 117.81 132.167C117.81 132.221 117.81 132.257 117.792 132.328C117.756 132.702 117.721 133.111 117.685 133.539C117.56 135.16 117.453 137.083 117.382 139.291C117.311 141.055 117.258 142.996 117.222 145.097C117.204 146.647 117.168 148.268 117.151 149.942C88.0671 136.941 28.1545 145.151 4.02201 149.212C4.46726 147.128 4.85908 145.08 5.23309 143.085C6.94284 133.877 7.90457 125.596 8.27858 118.169C8.8485 107.127 7.88678 90.5279 5.53587 73.3769C5.39339 72.2549 5.23309 71.1507 5.0728 70.0465C4.96594 69.3162 4.85908 68.6038 4.73441 67.8736C3.91515 62.495 2.95342 57.0986 1.86701 51.8625C-2.88824 29.0302 0.442225 5.07582 23.5951 2.24404C25.2693 2.03032 26.9256 1.85224 28.5463 1.67414C39.446 0.516492 48.4222 0.10685 50.9156 0.0178001C51.3786 -9.78289e-06 51.6101 0 51.6101 0L96.3487 13.0013L100.605 14.2301C103.045 15.0138 105.307 15.7796 107.409 16.5276C108.299 16.8482 109.172 17.1688 109.991 17.4715C112.164 18.2908 114.123 19.0744 115.922 19.8759C119.502 21.461 122.333 23.0104 124.577 24.5955C134.391 31.5592 132.877 39.4312 132.628 54.9792C132.628 55.0505 132.628 55.1217 132.628 55.193C132.628 55.3889 132.628 55.5848 132.628 55.7985C132.628 55.8876 132.628 55.9766 132.628 56.0656C132.628 56.7068 132.628 57.3302 132.628 57.9713C132.645 59.9838 132.717 61.9785 132.841 63.9733C133.002 66.9119 133.269 69.8327 133.589 72.6823C133.714 73.8222 133.839 74.962 133.981 76.1018C134.106 77.1704 134.248 78.2212 134.391 79.272C136.136 92.8788 138.362 104.811 135.922 112.06Z" fill="#0875F7"/>
</svg>
