<svg width="38" height="69" viewBox="0 0 38 69" fill="none" xmlns="http://www.w3.org/2000/svg">
<path d="M10.9419 7.40326L3.9858 8.46866L12.0263 60.9653L18.9824 59.8999L10.9419 7.40326Z" fill="#FAAF3A"/>
<path d="M10.956 7.37563L4.00804 8.44456L5.54016 3.13558L6.32404 0.374234L7.9096 2.76148L10.956 7.37563Z" fill="#EA9B7A"/>
<path d="M18.3914 56.0785L11.4353 57.1439L12.0206 60.9653L18.9767 59.8999L18.3914 56.0785Z" fill="#39393B"/>
<path d="M19.0089 62.9773L12.9695 63.9037C12.7201 63.9393 12.4707 63.7612 12.4351 63.5118L12.0431 60.9285L19.0089 59.8596L19.4008 62.4428C19.4365 62.7101 19.2583 62.9416 19.0089 62.9773Z" fill="#DF615C"/>
<path d="M7.91001 2.76148L5.54058 3.13558L6.32445 0.374234L7.91001 2.76148Z" fill="#39393B"/>
<path d="M17.9977 53.3355L11.0416 54.4009L11.4597 57.1305L18.4158 56.0651L17.9977 53.3355Z" fill="#C77E2E"/>
<path d="M6.12848 10.7605L12.0788 49.6335C12.1322 49.9364 12.3995 50.1323 12.6845 50.0789C12.9696 50.0254 13.1833 49.7582 13.1299 49.4732L7.17958 10.6002C7.12613 10.3152 6.85891 10.1014 6.57387 10.1548C6.28882 10.1905 6.07504 10.4755 6.12848 10.7605Z" fill="#C77E2E"/>
<path d="M8.85421 10.3506L14.8045 49.2235C14.858 49.5086 15.1252 49.7224 15.4102 49.6689C15.7131 49.6155 15.9091 49.3483 15.8556 49.0632L9.90532 10.1903C9.85187 9.90525 9.58464 9.69146 9.29959 9.74491C9.01455 9.78054 8.80076 10.0478 8.85421 10.3506Z" fill="#C77E2E"/>
<path d="M23.5543 7.61542L16.5173 7.63855L16.6919 60.746L23.729 60.7228L23.5543 7.61542Z" fill="#21B573"/>
<path d="M23.5518 7.62494L16.5148 7.64277L18.813 2.61885L20.0066 0L21.218 2.60104L23.5518 7.62494Z" fill="#EA9B7A"/>
<path d="M23.7067 56.8752L16.6696 56.8984L16.6823 60.7642L23.7194 60.7411L23.7067 56.8752Z" fill="#39393B"/>
<path d="M23.2668 63.7966L17.1561 63.8144C16.8889 63.8144 16.6929 63.6006 16.6929 63.3512V60.7501L23.73 60.7324V63.3334C23.73 63.5828 23.534 63.7966 23.2668 63.7966Z" fill="#DF615C"/>
<path d="M21.218 2.60104L18.813 2.61885L20.0066 0L21.218 2.60104Z" fill="#39393B"/>
<path d="M23.6906 54.096L16.6536 54.1191L16.6627 56.8805L23.6997 56.8573L23.6906 54.096Z" fill="#217C58"/>
<path d="M18.2607 10.2618L18.3854 49.5801C18.3854 49.883 18.6348 50.1145 18.9198 50.1145C19.2227 50.1145 19.4543 49.8652 19.4543 49.5801L19.3296 10.2618C19.3296 9.95889 19.0802 9.72732 18.7951 9.72732C18.5101 9.7095 18.2607 9.95889 18.2607 10.2618Z" fill="#217C58"/>
<path d="M21.022 10.2438L21.1467 49.5621C21.1467 49.865 21.3962 50.0966 21.6812 50.0966C21.9841 50.0966 22.2157 49.8471 22.2157 49.5621L22.0909 10.2438C22.0909 9.94094 21.8415 9.70931 21.5565 9.70931C21.2715 9.70931 21.022 9.94094 21.022 10.2438Z" fill="#217C58"/>
<path d="M28.7453 7.3523L21.2784 59.9339L28.2458 60.9233L35.7127 8.34171L28.7453 7.3523Z" fill="#0875F7"/>
<path d="M35.7019 8.37319L28.7361 7.37554L31.7291 2.72575L33.2968 0.320702L34.1163 3.06424L35.7019 8.37319Z" fill="#EA9B7A"/>
<path d="M28.806 57.1438L21.8386 56.1544L21.295 59.982L28.2624 60.9714L28.806 57.1438Z" fill="#39393B"/>
<path d="M27.3465 63.9213L21.3071 63.0663C21.0577 63.0306 20.8795 62.799 20.9152 62.5318L21.2893 59.9486L28.2551 60.9462L27.8809 63.5294C27.8275 63.7788 27.5959 63.957 27.3465 63.9213Z" fill="#DF615C"/>
<path d="M34.1163 3.06424L31.729 2.72575L33.2968 0.320702L34.1163 3.06424Z" fill="#39393B"/>
<path d="M22.2162 53.3899L21.8277 56.124L28.7951 57.1141L29.1836 54.3801L22.2162 53.3899Z" fill="#084FC7"/>
<path d="M30.09 10.2084L24.5673 49.1348C24.5316 49.4377 24.7276 49.7049 25.0305 49.7405C25.3333 49.7761 25.6006 49.5802 25.6362 49.2773L31.1589 10.3509C31.1946 10.0481 30.9986 9.78084 30.6957 9.74521C30.4107 9.70958 30.1435 9.92333 30.09 10.2084Z" fill="#084FC7"/>
<path d="M32.8336 10.6004L27.3108 49.5268C27.2752 49.8297 27.4712 50.0969 27.774 50.1326C28.0769 50.1682 28.3441 49.9722 28.3798 49.6693L33.9025 10.743C33.9381 10.4401 33.7422 10.1728 33.4393 10.1372C33.1365 10.1016 32.8692 10.2976 32.8336 10.6004Z" fill="#084FC7"/>
<path d="M38 28.6291L37.6259 31.4796L37.2874 34.0628L36.7886 37.9822L36.4501 40.5476L35.9513 44.5026L35.6128 47.0324L35.0961 51.023L34.7755 53.5171L34.2588 57.5434L33.9381 60.0019L33.4215 64.0638L33.1008 66.4866L32.8336 68.5889H5.14862L4.8814 66.4866L4.56072 64.0638L4.04408 60.0019L3.7234 57.5434L3.20676 53.5171L2.88608 51.023L2.36944 47.0324L2.04876 44.5026L1.53212 40.5476L1.21144 37.9822L0.694795 34.0628L0.356314 31.4796L0 28.6291H38Z" fill="#DF615C"/>
<path d="M37.6259 31.4794L37.2874 34.0627H0.69478L0.356298 31.4794H37.6259Z" fill="#B11722"/>
<path d="M36.7886 37.9823L36.4501 40.5477H1.53211L1.21143 37.9823H36.7886Z" fill="#B11722"/>
<path d="M35.9512 44.5028L35.6128 47.0326H2.36943L2.04875 44.5028H35.9512Z" fill="#B11722"/>
<path d="M35.0961 51.0228L34.7754 53.5169H3.20672L2.88604 51.0228H35.0961Z" fill="#B11722"/>
<path d="M34.2588 57.5433L33.9381 60.0018H4.04407L3.7234 57.5433H34.2588Z" fill="#B11722"/>
<path d="M33.4215 64.0638L33.1008 66.4867H4.88139L4.56072 64.0638H33.4215Z" fill="#B11722"/>
</svg>
