<svg width="90" height="79" viewBox="0 0 90 79" fill="none" xmlns="http://www.w3.org/2000/svg">
<path d="M31.7988 42.188H8.55895L4.08904 14.9234L1.6315 0H30.4988L30.9618 14.9234L31.7988 42.188Z" fill="#EA9B7A"/>
<path d="M31.7988 42.1878H8.55893L5.22876 21.8863L4.08902 14.9232H30.9618L31.1755 22.1356L31.7988 42.1878Z" fill="#FAAF3A"/>
<path d="M31.1755 22.1356L5.22875 21.8863L4.08902 14.9232H30.9618L31.1755 22.1356Z" fill="#C77E2E"/>
<path d="M89.1417 78.8909H1.23972C0.580807 77.6978 0.224624 76.0238 0.0821571 74.0115C-0.469902 66.5676 1.89863 54.7072 3.05617 47.2277C3.19864 46.3551 3.32329 45.5359 3.41234 44.8058C3.57261 43.5592 3.67945 42.5085 3.67945 41.7428C3.67945 35.6345 9.07537 36.6852 9.07537 36.6852C17.9617 45.4113 28.0413 32.3399 33.918 36.6139C33.918 36.6139 34.1495 36.792 34.7016 37.2016C35.2002 37.5934 35.9482 38.1989 36.981 39.0715C38.4769 40.3181 40.5783 42.1345 43.4277 44.699C50.4086 50.9853 62.2689 55.1168 72.3662 59.3374C73.6484 59.8717 74.8416 60.4059 75.9635 60.958C76.8005 61.3676 77.6019 61.7771 78.3498 62.1689C86.6129 66.621 89.2307 70.895 89.8362 73.9936C90.4239 76.9676 89.1417 78.8909 89.1417 78.8909Z" fill="#0875F7"/>
<path d="M78.3676 62.1867C76.106 63.9854 71.0662 67.6005 67.0237 67.6005C66.8457 67.6005 66.6676 67.6005 66.4895 67.5827C63.6401 67.3512 53.1688 62.2045 44.6386 57.5209C39.7592 54.8319 35.2893 52.1963 32.0838 50.0771C26.8303 46.6044 25.9043 45.2866 25.7084 44.3606C24.9426 40.888 30.6769 38.4838 34.7016 37.2194C35.2002 37.6112 35.9482 38.2167 36.981 39.0893C31.9947 40.4428 27.881 42.5798 28.0769 43.7907C28.5755 44.8236 33.7756 48.7771 46.2058 55.5977C55.6976 60.7977 64.6908 64.9826 66.6854 65.1607C69.3922 65.3744 73.3635 62.9169 75.9635 60.9758C76.8361 61.3675 77.6197 61.7771 78.3676 62.1867Z" fill="#084FC7"/>
<path d="M89.1417 78.891H1.2397C0.580795 77.6978 0.224612 76.0239 0.0821448 74.0115H89.854C90.4239 76.9677 89.1417 78.891 89.1417 78.891Z" fill="#084FC7"/>
<path d="M10.2151 78.8909H7.59728C10.1973 75.9169 12.6371 71.3402 12.3165 64.8223C11.8891 56.1319 6.68907 50.2907 3.05617 47.2277C3.19864 46.3551 3.32329 45.5359 3.41233 44.8058C7.31236 47.7798 13.8836 54.3154 14.4001 64.7155C14.7206 70.9484 12.6727 75.5964 10.2151 78.8909Z" fill="#084FC7"/>
<path d="M41.9674 49.8989C41.3263 49.8989 40.7208 49.4537 40.5605 48.7948C40.3646 48.0113 40.8455 47.2277 41.6112 47.0318L47.0962 45.6605C47.8798 45.4647 48.6633 45.9455 48.8592 46.7113C49.0551 47.4949 48.5743 48.2784 47.8085 48.4743L42.3235 49.8455C42.1989 49.8811 42.0742 49.8989 41.9674 49.8989Z" fill="white"/>
<path d="M36.5002 45.3222C35.8413 45.3222 35.2536 44.8769 35.0934 44.218C34.8975 43.4344 35.3783 42.6509 36.144 42.455L41.629 41.0838C42.4126 40.8879 43.1962 41.3687 43.3921 42.1345C43.5879 42.918 43.1071 43.7016 42.3414 43.8975L36.8564 45.2687C36.7317 45.3043 36.6249 45.3222 36.5002 45.3222Z" fill="white"/>
<path d="M47.4524 53.0866C46.8113 53.0866 46.2058 52.6414 46.0455 51.9825C45.8496 51.199 46.3304 50.4154 47.0962 50.2373L52.5812 48.8661C53.3647 48.6702 54.1483 49.151 54.3442 49.9168C54.5401 50.7003 54.0592 51.4839 53.2935 51.6798L47.8085 53.051C47.6839 53.0689 47.5592 53.0866 47.4524 53.0866Z" fill="white"/>
<path d="M52.9373 56.1497C52.2962 56.1497 51.6907 55.7045 51.5304 55.0456C51.3346 54.262 51.8154 53.4785 52.5812 53.3004L58.0661 51.9292C58.8497 51.7333 59.6332 52.2141 59.8291 52.9798C60.025 53.7634 59.5442 54.547 58.7785 54.7428L53.2935 56.1141C53.1688 56.1319 53.062 56.1497 52.9373 56.1497Z" fill="white"/>
<path d="M58.9209 58.9812C58.2798 58.9812 57.6743 58.536 57.5141 57.877C57.3182 57.0935 57.799 56.3099 58.5648 56.1318L64.0497 54.7606C64.8333 54.5647 65.6169 55.0455 65.8127 55.8113C66.0086 56.5948 65.5278 57.3784 64.7621 57.5743L59.2771 58.9456C59.1524 58.9812 59.0456 58.9812 58.9209 58.9812Z" fill="white"/>
<path d="M65.421 61.4031C64.7621 61.4031 64.1744 60.9578 64.0141 60.2989C63.8182 59.5153 64.299 58.7318 65.0648 58.5359L70.5498 57.1647C71.3333 56.9688 72.1169 57.4496 72.3128 58.2154C72.5087 58.9989 72.0279 59.7825 71.2621 59.9784L65.7771 61.3496C65.6525 61.3853 65.5278 61.4031 65.421 61.4031Z" fill="white"/>
</svg>
