<svg width="109" height="68" viewBox="0 0 109 68" fill="none" xmlns="http://www.w3.org/2000/svg">
<path d="M6.8065 65.767L0.518509 53.8023C-1.0535 50.8241 1.14213 47.2477 4.507 47.2737L103.284 48.3401L100.374 63.6602L6.8065 65.767Z" fill="#39393B"/>
<path d="M98.6586 62.3987H10.2623C8.13169 62.3987 6.58564 60.669 6.83249 58.5362L12.8607 3.86253C13.0946 1.72969 15.0173 0 17.148 0H105.544C107.675 0 109.221 1.72969 108.974 3.86253L102.946 58.5362C102.712 60.669 100.789 62.3987 98.6586 62.3987Z" fill="#39393B"/>
<path d="M8.95017 64.7527C8.92419 64.7527 8.8852 64.7527 8.85922 64.7527C8.45647 64.7006 8.15766 64.3235 8.20963 63.9203L15.55 5.37114C15.602 4.96798 15.9788 4.66887 16.3815 4.72089C16.7843 4.77291 17.0831 5.15004 17.0311 5.55319L9.69071 64.1024C9.63874 64.4795 9.31394 64.7527 8.95017 64.7527Z" fill="#564C54"/>
<path d="M51.9531 32.1747C51.6153 36.5705 54.8503 40.355 59.1636 40.6281C63.4899 40.9012 67.2705 37.5719 67.6083 33.1762C67.9461 28.7804 64.7111 24.9959 60.3978 24.7228C56.0715 24.4367 52.2909 27.779 51.9531 32.1747Z" fill="#585859"/>
<path d="M99.0874 67.1586H9.46993C7.49517 67.1586 5.98807 65.4159 6.24791 63.4651L7.10541 57.2096H103.284L102.309 64.3365C102.088 65.9621 100.711 67.1586 99.0874 67.1586Z" fill="#39393B"/>
<path d="M34.1413 49.5106L33.4917 52.6318H36.4409L36.1161 56.3513H32.6993L31.9847 59.7456H28.0742L28.7887 56.3513H26.3723L25.6576 59.7456H21.7471L22.4617 56.3513H19.5125L19.8373 52.6448H23.2542L23.9038 49.5236H20.9546L21.2794 45.8041H24.6963L25.4108 42.4098H29.3213L28.6068 45.8041H31.0233L31.7378 42.4098H35.6484L34.9338 45.8041H37.883L37.5582 49.5236L34.1413 49.5106ZM30.2438 49.5106H27.8273L27.1777 52.6318H29.5942L30.2438 49.5106Z" fill="#EBB12B"/>
</svg>
