<svg width="50" height="49" viewBox="0 0 50 49" fill="none" xmlns="http://www.w3.org/2000/svg">
<path d="M1.19604 24.4271C1.19604 37.9095 12.1165 48.8541 25.5981 48.8541C39.0666 48.8541 50 37.9225 50 24.4271C50 10.9447 39.0796 0 25.5981 0C12.1165 0 1.19604 10.9317 1.19604 24.4271Z" fill="#DF615C"/>
<path d="M13.1175 44.4034L0 47.1753L5.68123 35.8663L13.1175 44.4034Z" fill="#DF615C"/>
<path d="M27.6651 19.1825C27.6651 18.0373 26.5601 17.4516 25.195 17.4516C23.609 17.4516 22.1399 18.4147 21.3598 19.9633L14.7946 16.6838C16.6797 13.144 20.3978 10.7104 26.3 10.7104C32.0853 10.7104 36.4015 13.1441 36.4015 17.764C36.4015 23.412 30.4992 24.401 30.4992 27.2511H22.9069C22.9069 22.7613 27.6651 21.4339 27.6651 19.1825ZM21.8409 33.0553C21.8409 30.5827 23.8299 28.6956 26.703 28.6956C29.5762 28.6956 31.5652 30.5827 31.5652 33.0553C31.5652 35.4889 29.5762 37.48 26.703 37.48C23.8299 37.48 21.8409 35.4889 21.8409 33.0553Z" fill="white"/>
</svg>
