<svg width="91" height="121" viewBox="0 0 91 121" fill="none" xmlns="http://www.w3.org/2000/svg">
<path d="M40.0139 12.6355L8.77427 27.31C7.10376 28.1003 5.11319 27.38 4.32295 25.7095L2.32233 21.4482C1.53209 19.7777 2.25229 17.7871 3.9228 16.9968L35.1624 2.3223C36.8329 1.53205 38.8236 2.25227 39.6139 3.92279L41.6145 8.18411C42.4047 9.86462 41.6844 11.8552 40.0139 12.6355Z" stroke="#4D2C5E" stroke-opacity="0.1" stroke-width="4" stroke-miterlimit="10" stroke-linecap="round"/>
<path d="M52.1476 45.9657L36.863 14.1359L12.1353 26.0096L27.42 57.8394L37.063 111.096C40.234 117.708 48.1664 120.489 54.7684 117.318L81.4667 104.494C88.0788 101.323 90.8596 93.3904 87.6886 86.7883L52.1476 45.9657Z" stroke="#4D2C5E" stroke-opacity="0.1" stroke-width="4" stroke-miterlimit="10" stroke-linecap="round"/>
<path d="M31.7613 81.8568C31.7613 81.8568 36.8629 73.5943 50.4271 74.0644C63.9913 74.5346 66.272 62.1808 66.272 62.1808" stroke="#4D2C5E" stroke-opacity="0.1" stroke-width="4" stroke-miterlimit="10" stroke-linecap="round"/>
</svg>
