<svg width="16" height="9" viewBox="0 0 16 9" fill="none" xmlns="http://www.w3.org/2000/svg">
<path d="M0.907735 9.00003C0.596852 9.00003 0.285955 8.83545 0.12137 8.54285C-0.134652 8.10396 0.0299379 7.55535 0.468831 7.29933C0.761427 7.13475 7.50943 3.331 14.5683 2.78238C15.0803 2.74581 15.5192 3.11154 15.5558 3.62358C15.5924 4.13562 15.2266 4.57453 14.7146 4.61111C8.07634 5.12315 1.43805 8.85374 1.38319 8.89031C1.21861 8.96346 1.05403 9.00003 0.907735 9.00003Z" fill="#D96C63"/>
<path d="M12.1361 4.92179C11.9715 4.92179 11.807 4.8852 11.6607 4.79376C7.39973 2.21526 2.24272 1.81294 2.18786 1.81294C1.67581 1.77636 1.31009 1.33747 1.34666 0.843716C1.38323 0.331673 1.80384 -0.0340561 2.31588 0.00251839C2.53533 0.0208056 7.96663 0.423105 12.5933 3.23934C13.0322 3.49536 13.1602 4.06227 12.9042 4.50116C12.7396 4.75718 12.4287 4.92179 12.1361 4.92179Z" fill="#D96C63"/>
</svg>
