<svg width="82" height="73" viewBox="0 0 82 73" fill="none" xmlns="http://www.w3.org/2000/svg">
<path d="M40.8529 55.1332C62.5855 55.1332 80.2032 46.7822 80.2032 36.4807C80.2032 26.1792 62.5855 17.8282 40.8529 17.8282C19.1204 17.8282 1.50268 26.1792 1.50268 36.4807C1.50268 46.7822 19.1204 55.1332 40.8529 55.1332Z" stroke="#4D2C5E" stroke-opacity="0.1" stroke-width="3" stroke-miterlimit="10" stroke-linecap="round" stroke-linejoin="round"/>
<path d="M56.7664 46.2036C68.0673 27.6418 70.0959 8.25197 61.2974 2.8952C52.4989 -2.46157 36.2051 8.24322 24.9042 26.805C13.6033 45.3668 11.5747 64.7566 20.3732 70.1133C29.1717 75.4701 45.4654 64.7654 56.7664 46.2036Z" stroke="#4D2C5E" stroke-opacity="0.1" stroke-width="3" stroke-miterlimit="10" stroke-linecap="round" stroke-linejoin="round"/>
<path d="M61.2898 70.1048C70.0883 64.748 68.0597 45.3582 56.7587 26.7964C45.4578 8.23466 29.164 -2.4701 20.3655 2.88667C11.567 8.24344 13.5956 27.6332 24.8966 46.195C36.1975 64.7568 52.4913 75.4616 61.2898 70.1048Z" stroke="#4D2C5E" stroke-opacity="0.1" stroke-width="3" stroke-miterlimit="10" stroke-linecap="round" stroke-linejoin="round"/>
<path d="M40.8529 41.4184C43.5799 41.4184 45.7905 39.2077 45.7905 36.4808C45.7905 33.7538 43.5799 31.5431 40.8529 31.5431C38.126 31.5431 35.9153 33.7538 35.9153 36.4808C35.9153 39.2077 38.126 41.4184 40.8529 41.4184Z" stroke="#4D2C5E" stroke-opacity="0.1" stroke-width="3" stroke-miterlimit="10" stroke-linecap="round" stroke-linejoin="round"/>
</svg>
