<svg width="70" height="117" viewBox="0 0 70 117" fill="none" xmlns="http://www.w3.org/2000/svg">
<path d="M70 92.3217L68.3373 116.078C68.3373 116.078 40.1106 112.047 26.2636 108.51C22.2238 107.483 17.7034 106.157 13.5467 103.946C5.89572 99.8764 -0.443307 92.7898 0.0243228 78.9805C0.16721 74.5465 1.02459 69.4233 2.76521 63.4679C12.8452 28.9708 29.7319 0 29.7319 0C51.4637 9.31018 49.632 24.8098 49.632 24.8098C43.436 41.3627 29.7319 76.614 29.7319 76.614C37.6946 86.3533 70 92.3217 70 92.3217Z" fill="#0875F7"/>
<path d="M29.7319 77.3682C29.602 77.3682 29.459 77.3292 29.3421 77.2511C26.939 75.7688 20.4052 74.2214 20.3402 74.2084C19.9376 74.1174 19.6908 73.7143 19.7947 73.3242C19.8856 72.9211 20.2883 72.6871 20.678 72.7781C20.9118 72.8301 25.4972 73.9093 28.5238 75.2096C28.0821 74.2214 27.3547 73.1682 26.3545 72.0239C26.0817 71.7118 26.1207 71.2567 26.4194 70.9837C26.7312 70.7106 27.1859 70.7496 27.4587 71.0487C29.1993 73.0251 30.1865 74.8196 30.4593 76.523C30.5112 76.809 30.3813 77.0951 30.1475 77.2511C30.0176 77.3292 29.8748 77.3682 29.7319 77.3682Z" fill="#084FC7"/>
<path d="M13.5467 103.959C5.89572 99.8894 -0.443307 92.8028 0.0243228 78.9935C6.09052 82.1663 16.6512 89.8511 13.5467 103.959Z" fill="#084FC7"/>
<path d="M52.2561 88.6808C52.1911 88.6808 52.1391 88.6678 52.0742 88.6548C38.0972 85.0399 29.602 77.4982 29.2512 77.1731C29.0044 76.9521 28.9396 76.588 29.0824 76.2889C39.0456 56.6673 45.3585 41.0896 48.9307 27.2544C49.0346 26.8643 49.4373 26.6172 49.827 26.7213C50.2167 26.8253 50.4634 27.2284 50.3595 27.6185C46.7874 41.4407 40.5263 56.9534 30.6542 76.4319C32.5377 77.9923 40.5393 84.1427 52.4379 87.2115C52.8276 87.3155 53.0744 87.7186 52.9705 88.1087C52.8795 88.4598 52.5808 88.6808 52.2561 88.6808Z" fill="#084FC7"/>
<path d="M46.6574 38.268C46.5015 38.268 46.3327 38.216 46.2028 38.1119C45.8781 37.8519 45.8261 37.3968 46.0859 37.0717L51.2687 30.5572C51.5285 30.2321 51.9832 30.1801 52.3079 30.4401C52.6326 30.7002 52.6846 31.1553 52.4248 31.4804L47.242 37.9949C47.0861 38.164 46.8652 38.268 46.6574 38.268Z" fill="#084FC7"/>
</svg>
