<svg width="424" height="308" viewBox="0 0 424 308" fill="none" xmlns="http://www.w3.org/2000/svg">
<path d="M406.511 7.60448V14.9062C406.511 19.1092 403.983 22.5107 400.848 22.5107H6.4291C3.29469 22.5107 0.765803 19.1092 0.765803 14.9062V7.60448C0.765803 3.40153 3.29469 0 6.4291 0H400.83C403.965 0 406.511 3.40153 406.511 7.60448Z" fill="#21B573"/>
<path d="M406.511 9.91964H0.765803V13.2678H406.511V9.91964Z" fill="#217C58"/>
<path d="M394.651 41.2638H23.9177C22.2614 41.2638 20.9079 39.9103 20.9079 38.254V22.4039H397.66V38.254C397.66 39.9103 396.307 41.2638 394.651 41.2638Z" fill="#217C58"/>
<path d="M377.999 134.298H46.4462V147.228H377.999V134.298Z" fill="#217C58"/>
<path d="M22.5464 307.403L86.7305 41.2637H64.1841L0 307.403H22.5464Z" fill="#21B573"/>
<path d="M401.471 307.403L337.269 41.2637H359.816L424 307.403H401.471Z" fill="#21B573"/>
</svg>
