<svg width="79" height="78" viewBox="0 0 79 78" fill="none" xmlns="http://www.w3.org/2000/svg">
<path d="M10.8078 21.933C10.8078 24.6359 8.61247 26.8313 5.90958 26.8313C3.20669 26.8313 1.01129 24.6359 1.01129 21.933C1.01129 19.2301 3.20669 17.0347 5.90958 17.0347C8.61247 17.0347 10.8078 19.2244 10.8078 21.933Z" stroke="#4D2C5E" stroke-opacity="0.1" stroke-width="2" stroke-miterlimit="10" stroke-linecap="round" stroke-linejoin="round"/>
<path d="M58.3308 64.4152C61.0361 64.4152 63.2291 62.2222 63.2291 59.5169C63.2291 56.8117 61.0361 54.6186 58.3308 54.6186C55.6256 54.6186 53.4325 56.8117 53.4325 59.5169C53.4325 62.2222 55.6256 64.4152 58.3308 64.4152Z" stroke="#4D2C5E" stroke-opacity="0.1" stroke-width="2" stroke-miterlimit="10" stroke-linecap="round" stroke-linejoin="round"/>
<path d="M39.8895 49.4467C45.659 49.4467 50.3362 44.7695 50.3362 39C50.3362 33.2305 45.659 28.5534 39.8895 28.5534C34.12 28.5534 29.443 33.2305 29.443 39C29.443 44.7695 34.12 49.4467 39.8895 49.4467Z" stroke="#4D2C5E" stroke-opacity="0.1" stroke-width="2" stroke-miterlimit="10" stroke-linecap="round" stroke-linejoin="round"/>
<path d="M58.0914 39L54.6072 45.09L52.7597 51.8701L45.9854 53.7119L39.8896 57.2017L33.7938 53.7119L27.0138 51.8701L25.172 45.09L21.6822 39L25.172 32.9042L27.0138 26.1242L33.7938 24.2823L39.8896 20.7925L45.9854 24.2823L52.7597 26.1242L54.6072 32.9042L58.0914 39Z" stroke="#4D2C5E" stroke-opacity="0.1" stroke-width="2" stroke-miterlimit="10" stroke-linecap="round" stroke-linejoin="round"/>
<path d="M53.4326 59.5169C53.4326 56.814 55.628 54.6186 58.3309 54.6186C59.7907 54.6186 61.1022 55.2629 61.9974 56.2779C65.7268 51.5108 67.9564 45.5177 67.9564 38.9943C67.9564 23.4897 55.3885 10.9218 39.8839 10.9218C24.3794 10.9218 11.8115 23.4897 11.8115 38.9943C11.8115 54.4988 24.3794 67.0667 39.8839 67.0667C45.3353 67.0667 50.4161 65.51 54.7213 62.8242C53.9287 61.9517 53.4326 60.7942 53.4326 59.5169Z" stroke="#4D2C5E" stroke-opacity="0.1" stroke-width="2" stroke-miterlimit="10" stroke-linecap="round" stroke-linejoin="round"/>
<path d="M39.8896 1.01129C26.7914 1.01129 15.2386 7.64306 8.4129 17.7304C9.84418 18.5858 10.8078 20.1482 10.8078 21.9387C10.8078 24.6416 8.61248 26.837 5.90959 26.837C5.24242 26.837 4.60947 26.7002 4.03354 26.4607C2.65929 30.3895 1.90656 34.6035 1.90656 39C1.90656 59.9788 18.9165 76.9887 39.8953 76.9887C60.874 76.9887 77.884 59.9788 77.884 39C77.884 18.0212 60.8683 1.01129 39.8896 1.01129Z" stroke="#4D2C5E" stroke-opacity="0.1" stroke-width="2" stroke-miterlimit="10" stroke-linecap="round" stroke-linejoin="round"/>
</svg>
