<svg width="39" height="64" viewBox="0 0 39 64" fill="none" xmlns="http://www.w3.org/2000/svg">
<path d="M5.86748 63.613C5.47264 63.613 5.09573 63.4156 4.89831 63.0387C4.50347 62.3567 -4.54194 46.0785 2.97797 24.6495C7.68015 11.2608 16.923 5.28439 23.8686 2.61024C31.3705 -0.279267 37.67 0.00789452 37.9392 0.00789452C38.5494 0.0437891 39.034 0.564239 38.9981 1.19239C38.9622 1.8026 38.4597 2.2872 37.8316 2.2513C37.7777 2.2513 31.6577 2.00002 24.5865 4.72801C15.1821 8.3713 8.63134 15.3169 5.09573 25.3853C-2.06523 45.8093 6.76485 61.7644 6.85458 61.926C7.15969 62.4644 6.98019 63.1464 6.44178 63.4515C6.24436 63.5592 6.0649 63.613 5.86748 63.613Z" fill="#FAAF3A"/>
</svg>
