<svg width="720" height="441" viewBox="0 0 720 441" fill="none" xmlns="http://www.w3.org/2000/svg">
<g opacity="0.8">
<g opacity="0.5">
<g opacity="0.5">
<g opacity="0.5">
<g opacity="0.5">
<path opacity="0.5" d="M385.995 160.683C354.745 156.065 325.132 143.331 299.573 124.016C261.397 95.1787 181.525 46.1028 105.329 70.5432C0.222302 104.258 -0.245487 201.798 27.1324 254.776C54.5103 307.754 248.637 462.916 500.327 438.229C725.548 416.143 769.428 163.258 649.314 117.499C545.143 77.8272 509.592 178.958 385.995 160.683Z" fill="#CED3E6"/>
</g>
</g>
</g>
</g>
<g opacity="0.5">
<g opacity="0.5">
<g opacity="0.5">
<g opacity="0.5">
<path opacity="0.5" d="M710.229 133.784C715.625 133.784 720 129.073 720 123.261C720 117.45 715.625 112.738 710.229 112.738C704.832 112.738 700.457 117.45 700.457 123.261C700.457 129.073 704.832 133.784 710.229 133.784Z" fill="#CED3E6"/>
</g>
</g>
</g>
</g>
<g opacity="0.8">
<g opacity="0.8">
<g opacity="0.8">
<g opacity="0.8">
<path opacity="0.8" d="M72.6496 53.9461C75.6512 53.3998 78.6787 55.0517 79.7312 57.9133C81.5244 62.791 76.8206 68.267 70.4797 65.8086C65.0093 61.7634 67.4001 54.9217 72.6496 53.9461Z" fill="#CED3E6"/>
</g>
</g>
</g>
</g>
<g opacity="0.8">
<g opacity="0.8">
<path opacity="0.8" d="M692.558 38.2255C697.526 33.2526 697.526 25.19 692.558 20.2171C687.59 15.2442 679.536 15.2442 674.568 20.2171C669.6 25.1899 669.6 33.2526 674.568 38.2255C679.536 43.1984 687.59 43.1983 692.558 38.2255Z" fill="#CED3E6"/>
</g>
</g>
<g opacity="0.8">
<g opacity="0.8">
<path opacity="0.8" d="M111.215 43.9046C113.125 50.7464 109.149 57.8483 102.314 59.7603C95.4797 61.6724 88.3851 57.6922 86.475 50.8504C84.565 44.0087 88.5411 36.9068 95.3758 34.9947C102.211 33.0697 109.305 37.0629 111.215 43.9046Z" fill="#CED3E6"/>
</g>
</g>
<g opacity="0.8">
<g opacity="0.8">
<g opacity="0.8">
<g opacity="0.8">
<path opacity="0.8" d="M619.675 427.16C622.521 426.054 625.808 427.121 627.367 429.735C630.044 434.196 626.432 440.44 619.74 439.217C613.62 436.252 614.685 429.085 619.675 427.16Z" fill="#CED3E6"/>
</g>
</g>
</g>
</g>
<g opacity="0.8">
<g opacity="0.8">
<path opacity="0.8" d="M655.694 410.107C658.851 416.468 656.252 424.194 649.885 427.342C643.519 430.489 635.813 427.901 632.669 421.527C629.511 415.167 632.11 407.441 638.477 404.293C644.831 401.145 652.536 403.747 655.694 410.107Z" fill="#CED3E6"/>
</g>
</g>
<g opacity="0.8">
<g opacity="0.8">
<path opacity="0.8" d="M667.427 9.72191C667.427 14.0533 663.919 17.5522 659.605 17.5522C655.278 17.5522 651.783 14.0403 651.783 9.72191C651.783 5.39053 655.291 1.89162 659.605 1.89162C663.919 1.89162 667.427 5.40354 667.427 9.72191Z" fill="#CED3E6"/>
</g>
</g>
</g>
<g opacity="0.8">
<path opacity="0.8" d="M688.269 151.643C688.256 81.6643 630.044 4.97431 557.604 0.343771C556.33 0.265728 555.044 0.187686 553.744 0.135657C449.885 -4.716 441.972 122.09 348.001 136.398C254.03 150.706 182.265 78.5036 69.83 125.602C-31.1577 167.915 -58.5096 405.633 238.203 415.167C475.6 422.789 688.295 360.446 688.269 151.643Z" fill="#CED3E6"/>
</g>
</svg>
