<svg width="216" height="218" viewBox="0 0 216 218" fill="none" xmlns="http://www.w3.org/2000/svg">
<path d="M212.713 217.747H179.715C179.715 217.747 172.077 181.126 169.525 160.602C166.955 140.06 165.634 91.3927 165.634 91.3927C165.634 91.3927 139.346 99.9412 84.3069 96.7109C-37.6392 89.5901 8.60144 0 8.60144 0C12.724 5.69308 43.6344 13.5278 60.8742 16.2583C113.825 21.3446 154.069 30.3393 181.625 42.2252C188.264 45.0806 194.153 48.1145 199.328 51.3091C205.967 55.396 210.126 67.8351 212.642 84.1648C220.156 133.261 212.713 217.747 212.713 217.747Z" fill="#39393B"/>
<path d="M183.802 200.115C183.249 200.115 182.767 199.722 182.642 199.169C177.877 175.611 176.288 146.289 175.004 122.732C173.933 103.189 172.933 84.736 170.417 82.5231C168.382 80.7206 159.941 82.1304 149.269 83.8972C128.013 87.4309 95.8894 92.7492 60.4816 84.5219C41.1894 80.0245 27.0013 70.655 18.3279 56.6632C3.35453 32.5346 10.1898 2.60577 10.2612 2.30238C10.4039 1.6599 11.0464 1.26729 11.6889 1.42791C12.3314 1.57069 12.724 2.21314 12.5634 2.85562C12.492 3.14117 5.9066 32.1419 20.3624 55.4318C28.6968 68.8703 42.3851 77.8829 61.0349 82.2196C95.9964 90.3577 127.835 85.0751 148.912 81.5772C161.529 79.4891 169.15 78.222 172.023 80.7562C175.128 83.5046 176.003 96.9967 177.395 122.607C178.68 146.093 180.268 175.308 184.998 198.705C185.123 199.347 184.712 199.972 184.07 200.097C183.963 200.097 183.891 200.115 183.802 200.115Z" fill="#585859"/>
<path d="M213.338 200.721H213.32L176.628 199.936C175.967 199.918 175.45 199.383 175.468 198.722C175.485 198.062 176.021 197.544 176.681 197.562L213.374 198.347C214.034 198.365 214.552 198.901 214.534 199.561C214.498 200.221 213.981 200.721 213.338 200.721Z" fill="#585859"/>
</svg>
