<svg width="195" height="398" viewBox="0 0 195 398" fill="none" xmlns="http://www.w3.org/2000/svg">
<path d="M176.789 310.085C176.398 310.085 176.006 310.014 175.614 309.872L39.1912 260.689C37.4111 260.048 36.4855 258.072 37.1263 256.292C37.7672 254.512 39.743 253.569 41.5231 254.227L177.946 303.41C179.726 304.051 180.67 306.027 180.011 307.807C179.531 309.213 178.196 310.085 176.789 310.085Z" fill="#C77E2E"/>
<path d="M34.6877 310.085C33.2814 310.085 31.9642 309.213 31.448 307.807C30.8071 306.027 31.7328 304.051 33.5128 303.392L171.556 253.391C173.336 252.75 175.312 253.675 175.97 255.455C176.611 257.235 175.686 259.211 173.906 259.87L35.8625 309.872C35.4709 310.014 35.0793 310.085 34.6877 310.085Z" fill="#C77E2E"/>
<path d="M188.929 397.984C186.028 397.984 183.5 395.83 183.091 392.875L158.455 208.871H55.3363L31.0742 392.875C30.647 396.097 27.6921 398.376 24.4702 397.949C21.2483 397.521 18.9698 394.566 19.397 391.345L44.3356 202.25C44.7272 199.312 47.2192 197.123 50.1741 197.123H163.617C166.572 197.123 169.064 199.313 169.455 202.232L194.786 391.327C195.213 394.549 192.952 397.521 189.73 397.949C189.445 397.966 189.196 397.984 188.929 397.984Z" fill="#FAAF3A"/>
<path d="M130.757 202.997H57.0807C33.7442 202.997 8.75229 190.216 5.15658 167.165C0.368243 136.316 -0.82438 106.465 0.51066 79.0521C2.0237 48.0614 16.8337 19.2246 41.1849 0C41.1849 0 55.9059 64.1353 37.3933 152.657C44.4779 186.265 130.757 202.997 130.757 202.997Z" fill="#FAAF3A"/>
</svg>
