<svg width="341" height="428" viewBox="0 0 341 428" fill="none" xmlns="http://www.w3.org/2000/svg">
<path d="M175.334 428C266.726 428 340.813 423.475 340.813 417.894C340.813 412.313 266.726 407.788 175.334 407.788C83.9422 407.788 9.85466 412.313 9.85466 417.894C9.85466 423.475 83.9422 428 175.334 428Z" fill="#CED3E6"/>
<path d="M199.488 102.008L199.696 102.997L199.852 103.79L200.125 105.286C200.293 106.261 200.449 107.211 200.592 108.16C200.865 110.059 201.099 111.919 201.307 113.779C201.71 117.499 202.009 121.18 202.177 124.874C202.346 128.554 202.398 132.235 202.359 135.916C202.307 139.597 202.151 143.265 201.905 146.932C201.645 150.6 201.268 154.268 200.813 157.923C200.553 159.744 200.319 161.578 200.021 163.398C199.878 164.309 199.735 165.219 199.579 166.13L199.072 168.848C198.916 169.759 198.708 170.656 198.526 171.566C198.332 172.464 198.163 173.374 197.942 174.272C197.526 176.067 197.123 177.875 196.642 179.669C196.409 180.567 196.188 181.464 195.941 182.349L195.187 185.028L194.992 185.691L194.901 186.03L194.706 186.706C194.512 187.343 194.317 187.889 194.096 188.449C193.888 188.969 193.667 189.502 193.446 189.97C193.225 190.465 192.991 190.894 192.758 191.336L192.42 191.947C192.303 192.156 192.186 192.351 192.069 192.533L191.718 193.105L191.38 193.638C191.146 194.002 190.925 194.315 190.692 194.64C189.782 195.914 188.886 196.981 188.015 197.956C187.145 198.932 186.3 199.79 185.455 200.597C183.779 202.209 182.155 203.575 180.557 204.863C177.361 207.412 174.229 209.558 171.098 211.561C164.861 215.554 158.664 219.001 152.427 222.239C146.203 225.478 139.941 228.469 133.652 231.331C130.495 232.748 127.338 234.14 124.167 235.493C122.582 236.169 120.997 236.845 119.399 237.509L116.982 238.484L114.5 239.473L103.612 214.839L105.73 213.759L107.9 212.628L112.253 210.351C115.15 208.817 118.048 207.269 120.906 205.682C126.649 202.548 132.327 199.309 137.849 196.005C140.603 194.354 143.319 192.65 145.97 190.946C148.62 189.242 151.206 187.499 153.648 185.73C156.091 183.962 158.417 182.167 160.392 180.424C161.379 179.552 162.276 178.694 162.99 177.94C163.692 177.185 164.225 176.483 164.329 176.249C164.329 176.236 164.355 176.197 164.342 176.197C164.329 176.21 164.329 176.21 164.316 176.223L164.277 176.262C164.264 176.288 164.251 176.301 164.238 176.327C164.186 176.392 164.173 176.444 164.108 176.561C164.069 176.652 163.991 176.782 163.939 176.925C163.861 177.094 163.809 177.25 163.731 177.471L163.679 177.627C163.666 177.679 163.679 177.627 163.679 177.614L163.692 177.549L163.757 177.276L163.887 176.717L164.394 174.506C164.563 173.765 164.706 173.023 164.861 172.282C165.186 170.799 165.433 169.303 165.706 167.808C165.849 167.066 165.953 166.312 166.07 165.557C166.187 164.803 166.317 164.062 166.408 163.307C166.849 160.303 167.187 157.272 167.46 154.229C167.72 151.185 167.889 148.142 168.019 145.085C168.123 142.029 168.149 138.972 168.097 135.929C168.058 132.873 167.928 129.829 167.72 126.786C167.525 123.755 167.252 120.738 166.888 117.759C166.706 116.276 166.499 114.807 166.278 113.376C166.174 112.661 166.057 111.958 165.94 111.269L165.758 110.28L165.615 109.578L199.488 102.008Z" fill="#EA9B7A"/>
<path d="M163.276 110.398L157.092 157.35C166.33 162.527 175.087 166.234 183.143 167.704L163.276 110.398Z" fill="#A92F4B"/>
<path d="M176.412 182.986C176.282 182.986 176.139 182.96 176.022 182.882C171.215 180.268 164.602 178.07 164.537 178.044C164.108 177.901 163.874 177.432 164.017 177.003C164.16 176.574 164.628 176.34 165.056 176.483C165.329 176.574 171.878 178.746 176.815 181.438C177.218 181.659 177.361 182.154 177.14 182.557C176.984 182.83 176.711 182.986 176.412 182.986Z" fill="#D46A43"/>
<path d="M165.251 178.239C164.835 178.239 164.485 177.927 164.433 177.51C164.381 177.055 164.706 176.652 165.16 176.6C168.577 176.223 173.06 176.197 173.242 176.197C173.697 176.197 174.061 176.561 174.061 177.016C174.061 177.471 173.697 177.836 173.242 177.849C173.19 177.849 168.655 177.875 165.329 178.239C165.316 178.239 165.277 178.239 165.251 178.239Z" fill="#D46A43"/>
<path d="M76.288 371.006L67.7516 384.949L51.4973 377.756L58.8774 362.76L76.288 371.006Z" fill="#EA9B7A"/>
<path d="M0.0318304 385.677L61.5018 412.913C62.3204 412.288 63.1 411.209 63.8276 409.856C66.5172 404.823 68.5311 395.783 70.0383 390.178C70.2072 389.527 70.3761 388.916 70.545 388.37C70.8179 387.446 71.0777 386.679 71.3116 386.146C73.1956 381.866 69.1028 380.93 69.1028 380.93C60.1766 384.286 57.1882 372.008 51.7441 373.178C51.7441 373.178 49.4053 373.659 42.584 375.897C35.7627 378.134 26.1738 377.353 17.8063 377.184C6.99609 376.963 2.72139 379.629 1.05828 382.022C-0.280001 383.934 0.0318304 385.677 0.0318304 385.677Z" fill="#FAAF3A"/>
<path d="M0.0319314 385.677L61.5019 412.913C62.3205 412.288 63.1001 411.209 63.8277 409.856L1.04539 382.035C-0.2799 383.934 0.0319314 385.677 0.0319314 385.677Z" fill="#C77E2E"/>
<path d="M55.2263 410.129L57.0583 410.936C56.1618 408.048 55.863 404.094 58.1108 399.62C61.0992 393.676 66.5562 391.192 70.0254 390.177C70.1943 389.527 70.3632 388.916 70.5321 388.37C66.8811 389.254 60.2546 391.777 56.6815 398.905C54.5377 403.184 54.5247 407.073 55.2263 410.129Z" fill="#C77E2E"/>
<path d="M41.9994 379.993C42.4542 380.189 42.9999 380.072 43.3247 379.655C43.7015 379.174 43.6105 378.472 43.1298 378.095L39.7126 375.441C39.2319 375.064 38.5303 375.155 38.1535 375.636C37.7767 376.118 37.8676 376.82 38.3484 377.197L41.7655 379.85C41.8435 379.915 41.9214 379.967 41.9994 379.993Z" fill="white"/>
<path d="M47.2356 378.485C47.6904 378.68 48.2361 378.563 48.5609 378.147C48.9377 377.665 48.8467 376.963 48.366 376.586L44.9488 373.933C44.4681 373.555 43.7665 373.646 43.3897 374.128C43.0129 374.609 43.1038 375.311 43.5846 375.688L47.0017 378.342C47.0797 378.407 47.1576 378.459 47.2356 378.485Z" fill="white"/>
<path d="M37.179 380.527C37.6337 380.722 38.1795 380.605 38.5043 380.189C38.8811 379.707 38.7901 379.005 38.3094 378.628L34.8922 375.975C34.4115 375.597 33.7099 375.688 33.3331 376.17C32.9563 376.651 33.0472 377.353 33.5279 377.73L36.9451 380.384C37.0231 380.449 37.101 380.501 37.179 380.527Z" fill="white"/>
<path d="M32.3846 380.982C32.8393 381.177 33.385 381.06 33.7099 380.644C34.0867 380.163 33.9957 379.46 33.515 379.083L30.0978 376.43C29.6171 376.053 28.9154 376.144 28.5386 376.625C28.1618 377.106 28.2528 377.808 28.7335 378.186L32.1507 380.839C32.2287 380.891 32.3066 380.943 32.3846 380.982Z" fill="white"/>
<path d="M27.3173 381.112C27.772 381.307 28.3178 381.19 28.6426 380.774C29.0194 380.293 28.9284 379.59 28.4477 379.213L25.0305 376.56C24.5498 376.183 23.8482 376.274 23.4714 376.755C23.0946 377.236 23.1855 377.938 23.6663 378.316L27.0834 380.969C27.1614 381.034 27.2393 381.073 27.3173 381.112Z" fill="white"/>
<path d="M22.0291 380.787C22.4839 380.982 23.0296 380.865 23.3544 380.449C23.7312 379.967 23.6403 379.265 23.1595 378.888L19.7424 376.235C19.2616 375.857 18.56 375.948 18.1832 376.43C17.8064 376.911 17.8973 377.613 18.3781 377.991L21.7953 380.644C21.8732 380.709 21.9512 380.761 22.0291 380.787Z" fill="white"/>
<path d="M114.449 236.429C120.152 230.81 165.16 218.246 195.044 226.596C198.474 233.191 202.827 249.904 192.121 265.368C152.843 271.794 130.924 285.021 130.924 285.021C130.924 285.021 116.995 317.238 108.719 329.061C100.442 340.883 81.4592 378.433 81.4592 378.433L52.8616 366.207C52.8616 366.207 98.9219 251.725 114.449 236.429Z" fill="#39393B"/>
<path d="M84.5126 371.357C84.4087 371.357 84.3047 371.331 84.2008 371.292L56.2138 359.652C55.798 359.482 55.5901 358.988 55.772 358.572C55.9409 358.156 56.4217 357.948 56.8504 358.13L84.8374 369.77C85.2532 369.94 85.4611 370.434 85.2792 370.85C85.1363 371.162 84.8374 371.357 84.5126 371.357Z" fill="#585859"/>
<path d="M79.8091 369.003C79.7052 369.003 79.6012 368.99 79.5103 368.951C79.0815 368.782 78.8866 368.301 79.0425 367.885C79.0945 367.741 84.9544 353.109 98.61 332.364C112.175 311.762 126.363 276.918 126.506 276.567C126.675 276.151 127.156 275.943 127.584 276.112C128 276.281 128.208 276.762 128.039 277.191C127.896 277.542 113.656 312.529 100 333.275C86.4356 353.877 80.6407 368.353 80.5887 368.496C80.4458 368.808 80.134 369.003 79.8091 369.003Z" fill="#585859"/>
<path d="M148.451 373.464L146.294 389.67H128.52L129.209 372.983L148.451 373.464Z" fill="#EA9B7A"/>
<path d="M84.6683 417.777H151.894C152.388 416.867 152.661 415.579 152.778 414.044C153.194 408.347 151.387 399.269 150.491 393.546C150.387 392.883 150.296 392.258 150.218 391.686C150.088 390.724 150.023 389.93 150.023 389.345C150.023 384.676 145.891 385.469 145.891 385.469C139.083 392.141 131.391 382.127 126.896 385.417C126.896 385.417 124.96 386.809 119.62 391.608C114.279 396.421 105.21 399.581 97.4794 402.82C87.5008 406.995 84.6813 411.157 84.1226 414.031C83.6808 416.307 84.6683 417.777 84.6683 417.777Z" fill="#FAAF3A"/>
<path d="M84.6685 417.777H151.894C152.388 416.867 152.661 415.579 152.778 414.044H84.1098C83.681 416.307 84.6685 417.777 84.6685 417.777Z" fill="#C77E2E"/>
<path d="M145.034 417.777H147.035C145.047 415.501 143.176 412.002 143.423 407.008C143.748 400.361 147.737 395.874 150.504 393.546C150.4 392.883 150.309 392.258 150.231 391.686C147.243 393.975 142.215 398.97 141.825 406.93C141.578 411.69 143.15 415.254 145.034 417.777Z" fill="#C77E2E"/>
<path d="M120.75 395.575C121.244 395.575 121.699 395.237 121.829 394.73C121.971 394.131 121.621 393.533 121.023 393.39L116.826 392.35C116.229 392.206 115.631 392.558 115.488 393.156C115.345 393.754 115.709 394.353 116.294 394.496L120.49 395.536C120.568 395.562 120.659 395.575 120.75 395.575Z" fill="white"/>
<path d="M124.921 392.076C125.415 392.076 125.869 391.738 125.999 391.231C126.142 390.633 125.791 390.034 125.194 389.891L120.997 388.851C120.399 388.708 119.802 389.072 119.659 389.657C119.516 390.256 119.88 390.854 120.464 390.997L124.661 392.037C124.739 392.063 124.83 392.076 124.921 392.076Z" fill="white"/>
<path d="M116.553 398.02C117.047 398.02 117.502 397.682 117.632 397.175C117.775 396.577 117.424 395.978 116.826 395.835L112.63 394.795C112.032 394.652 111.434 395.003 111.291 395.601C111.148 396.199 111.499 396.798 112.097 396.941L116.294 397.981C116.371 398.007 116.462 398.02 116.553 398.02Z" fill="white"/>
<path d="M112.357 400.374C112.85 400.374 113.305 400.036 113.435 399.529C113.578 398.931 113.227 398.332 112.63 398.189L108.433 397.149C107.835 397.006 107.237 397.357 107.094 397.955C106.952 398.554 107.315 399.152 107.9 399.295L112.097 400.335C112.175 400.361 112.266 400.374 112.357 400.374Z" fill="white"/>
<path d="M107.77 402.546C108.264 402.546 108.719 402.208 108.849 401.701C108.991 401.103 108.628 400.504 108.043 400.361L103.846 399.321C103.249 399.178 102.651 399.529 102.508 400.127C102.365 400.726 102.729 401.324 103.313 401.467L107.51 402.507C107.588 402.533 107.679 402.546 107.77 402.546Z" fill="white"/>
<path d="M102.807 404.393C103.301 404.393 103.755 404.055 103.885 403.548C104.028 402.95 103.677 402.351 103.08 402.208L98.8829 401.168C98.2852 401.025 97.6875 401.376 97.5446 401.974C97.4017 402.573 97.7655 403.171 98.3502 403.314L102.547 404.354C102.625 404.38 102.716 404.393 102.807 404.393Z" fill="white"/>
<path d="M283.137 239.356C283.111 239.629 283.072 239.889 283.046 240.136C282.903 240.24 282.773 240.344 282.643 240.448C272.21 248.46 260.035 253.793 247.601 256.823C247.159 256.927 246.731 257.031 246.289 257.135C244.158 257.63 242.014 258.059 239.87 258.41C236.973 258.891 234.075 259.268 231.204 259.516C228.657 259.737 226.124 259.88 223.629 259.919C212.871 260.114 202.671 258.709 194.044 255.965C193.719 255.861 193.381 255.757 193.056 255.64C190.77 254.872 188.613 254.014 186.586 253.064C186.274 252.921 185.962 252.778 185.663 252.622C184.403 252.011 183.195 251.347 182.051 250.658C182.233 246.509 182.285 241.541 182.246 236.234C182.246 235.792 182.246 235.35 182.233 234.907C182.155 227.52 181.934 219.547 181.648 212.263C181.622 211.912 181.609 211.574 181.609 211.236C181.454 207.425 181.272 203.809 181.116 200.597C181.09 200.258 181.077 199.907 181.064 199.582C180.921 196.864 180.778 194.432 180.648 192.442C180.609 191.934 180.583 191.44 180.544 190.933C180.518 190.543 180.492 190.153 180.466 189.775C180.362 188.371 180.245 187.005 180.128 185.652C179.946 183.493 179.738 181.399 179.518 179.37C179.258 177.055 178.985 174.792 178.699 172.62C178.374 170.279 178.049 168.016 177.699 165.844C177.322 163.516 176.932 161.278 176.516 159.132C175.074 151.563 173.45 145.059 171.826 139.441C171.709 139.051 171.605 138.686 171.488 138.296C170.825 136.059 170.176 133.991 169.539 132.04C169.396 131.611 169.253 131.195 169.123 130.765C165.511 120.035 162.523 113.558 162.471 109.214C162.367 100.175 168.967 97.2741 175.854 93.6323C176.178 93.4632 176.503 93.2941 176.828 93.112C177.984 92.4877 179.154 91.8244 180.271 91.1091C180.752 90.8099 181.22 90.4978 181.674 90.1726C181.999 89.9515 182.298 89.7174 182.597 89.4963C185.325 87.3892 187.716 84.749 189.275 81.0031L215.3 75.5144C215.3 75.5144 217.795 76.8021 221.966 77.9206C222.356 78.0247 222.758 78.1287 223.187 78.2328C223.681 78.3498 224.188 78.4669 224.72 78.5709C225.045 78.636 225.396 78.701 225.734 78.766C225.994 78.818 226.267 78.8701 226.539 78.9091C229.034 79.2993 231.918 79.5464 235.18 79.4814C235.505 79.4684 235.842 79.4684 236.167 79.4554C236.401 79.4424 236.635 79.4293 236.869 79.4293C239.078 79.3123 241.183 79.5984 243.209 80.2487C243.599 80.3658 243.976 80.5089 244.353 80.665C252.811 84.0466 259.464 94.1656 263.764 109.708C264.96 114.026 266.142 118.24 267.286 122.35C267.415 122.806 267.532 123.248 267.662 123.69C267.909 124.587 268.156 125.485 268.403 126.382C268.494 126.707 268.585 127.033 268.676 127.358C269.559 130.544 270.417 133.692 271.248 136.8C271.248 136.8 271.248 136.8 271.248 136.813C271.339 137.139 271.43 137.477 271.508 137.802C271.508 137.802 271.508 137.802 271.508 137.815C271.56 137.997 271.599 138.166 271.651 138.335L272.119 140.156C275.003 151.277 277.407 161.994 278.953 172.802C279.278 175.052 279.564 177.302 279.798 179.565C279.863 180.112 279.928 180.723 279.993 181.412C280.006 181.542 280.019 181.659 280.032 181.789C280.058 182.024 280.084 182.258 280.11 182.505C280.123 182.622 280.136 182.752 280.149 182.869C280.564 186.966 281.097 192.637 281.63 198.893C281.656 199.218 281.695 199.556 281.721 199.894C282.916 214.409 283.995 231.734 283.137 239.356Z" fill="#DF615C"/>
<path d="M203.932 96.3116C214.326 94.1136 219.939 81.1072 220.173 80.5349C220.329 80.1577 220.16 79.7155 219.783 79.5594C219.406 79.4033 218.964 79.5724 218.809 79.9496C218.757 80.0797 213.053 93.3332 203.022 94.959C193.16 96.5587 189.236 89.3012 189.067 88.989C188.873 88.6249 188.431 88.4818 188.067 88.6769C187.703 88.872 187.56 89.3142 187.755 89.6784C187.794 89.7694 192.316 98.2106 203.269 96.4287C203.49 96.4027 203.711 96.3506 203.932 96.3116Z" fill="#A92F4B"/>
<path d="M214.469 234.751C224.24 232.696 234.335 227.663 244.431 219.768C258.281 208.934 267.376 196.37 267.467 196.24C267.701 195.901 267.636 195.446 267.299 195.199C266.961 194.965 266.493 195.03 266.259 195.368C266.168 195.498 257.177 207.906 243.495 218.61C230.944 228.43 211.74 238.783 191.575 232.332C191.185 232.202 190.77 232.423 190.64 232.813C190.51 233.204 190.731 233.62 191.12 233.75C198.552 236.13 206.4 236.455 214.469 234.751Z" fill="#A92F4B"/>
<path d="M208.622 227.286C208.635 227.286 208.635 227.286 208.622 227.286C223.85 223.813 232.022 200.818 232.373 199.842C232.503 199.452 232.308 199.036 231.918 198.893C231.529 198.763 231.113 198.958 230.97 199.348C230.892 199.582 222.719 222.538 208.31 225.829C207.907 225.92 207.661 226.323 207.751 226.726C207.842 227.117 208.232 227.364 208.622 227.286Z" fill="#A92F4B"/>
<path d="M180.518 190.92C182.402 189.619 184.182 188.007 185.585 186.173C188.977 181.75 189.431 177.224 186.872 173.426C186.352 172.672 185.884 171.983 185.442 171.332C180.206 163.685 179.661 162.891 180.115 150.314C180.258 146.36 179.141 143.239 176.802 141.08C175.23 139.61 173.307 138.764 171.462 138.27C171.579 138.647 171.683 139.025 171.8 139.415C173.333 139.883 174.866 140.637 176.126 141.808C178.244 143.772 179.245 146.633 179.115 150.288C178.647 163.19 179.323 164.179 184.611 171.905C185.053 172.555 185.52 173.244 186.04 173.999C189.158 178.59 186.599 183.22 184.793 185.574C183.584 187.148 182.064 188.579 180.44 189.762C180.466 190.14 180.505 190.53 180.518 190.92Z" fill="#A92F4B"/>
<path d="M280.136 182.817C278.109 184.001 276.147 184.742 274.276 185.145C269.221 186.212 264.843 184.677 262.023 181.842C258.658 178.447 257.346 172.607 261.361 168.029C265.233 163.594 263.57 161.239 261.465 158.248C259.386 155.308 256.8 151.641 259.49 145.203C261.036 141.496 263.414 138.959 266.558 137.685C268.13 137.048 269.728 136.787 271.235 136.748C271.326 137.074 271.417 137.412 271.495 137.737C270.027 137.75 268.455 137.984 266.922 138.608C264.037 139.779 261.841 142.133 260.399 145.58C257.918 151.511 260.139 154.632 262.27 157.663C264.44 160.745 266.493 163.659 262.101 168.666C258.866 172.36 259.113 177.484 262.725 181.113C266.363 184.781 272.847 186.056 280.019 181.698C280.045 181.933 280.071 182.167 280.097 182.414C280.11 182.57 280.123 182.7 280.136 182.817Z" fill="#A92F4B"/>
<path d="M212.26 186.563C214.768 190.881 220.199 192.949 225.162 191.505C225.916 191.284 226.708 190.998 227.501 190.66C233.88 187.928 241.234 181.49 244.054 173.999C246.224 168.224 245.561 162.306 242.118 156.908C237.025 148.922 234.075 141.496 233.582 135.461C233.283 131.884 230.827 129.114 227.332 128.398C223.811 127.683 220.459 129.27 218.783 132.443C218.692 132.612 218.601 132.781 218.51 132.951C214.222 141.327 216.782 147.388 219.042 152.733C221.407 158.326 223.447 163.151 216.989 169.42C211.117 175.117 209.35 181.529 212.26 186.563ZM217.691 170.123C224.655 163.372 222.369 158.001 219.965 152.33C217.678 146.932 215.326 141.366 219.406 133.393C219.497 133.224 219.575 133.055 219.666 132.899C220.446 131.429 221.628 130.349 223.031 129.751C224.279 129.218 225.695 129.062 227.137 129.361C230.203 129.998 232.347 132.417 232.607 135.539C232.906 139.051 233.932 142.887 235.712 147.036C237.116 150.327 238.987 153.787 241.299 157.429C244.613 162.631 245.223 168.081 243.144 173.647C240.091 181.789 231.464 188.631 224.902 190.543C220.355 191.869 215.417 189.983 213.131 186.056C210.454 181.451 212.156 175.494 217.691 170.123Z" fill="#A92F4B"/>
<path d="M169.084 130.739C169.227 131.156 169.357 131.572 169.5 132.001C172.969 133.393 176.165 133.341 178.712 132.794C180.011 132.521 181.142 132.118 182.064 131.728C188.418 128.984 192.732 123.092 192.628 119.528C192.589 118.188 191.913 117.213 190.731 116.784C183.896 114.286 181.116 109.773 180.076 99.5112C179.79 96.7278 178.686 94.5688 176.776 93.073C176.451 93.2421 176.126 93.4112 175.802 93.5933C175.88 93.6453 175.958 93.7104 176.048 93.7754C177.803 95.089 178.816 97.053 179.076 99.6152C180.154 110.345 183.117 115.08 190.38 117.72C191.185 118.019 191.588 118.618 191.614 119.554C191.705 122.793 187.469 128.294 181.648 130.818C178.972 132.001 174.307 133.159 169.084 130.739Z" fill="#A92F4B"/>
<path d="M204.36 132.391C205.582 133.718 207.557 134.212 209.519 133.809C210.168 133.666 210.818 133.432 211.429 133.094C214.573 131.351 215.742 127.709 214.56 123.365C213.325 118.839 215.677 116.667 217.951 114.573C219.952 112.739 222.005 110.84 220.381 107.588C219.133 105.091 216.821 103.92 213.728 104.206C210.077 104.558 206.881 106.795 205.166 110.202C202.255 115.964 199.462 127.085 204.36 132.391ZM206.049 110.645C207.427 107.9 209.96 105.936 212.806 105.338C213.144 105.273 213.481 105.221 213.819 105.182C216.522 104.922 218.432 105.884 219.497 108.017C220.796 110.606 219.315 111.958 217.275 113.831C215.015 115.912 212.208 118.5 213.598 123.612C214.651 127.488 213.663 130.7 210.948 132.209C208.908 133.341 206.387 133.133 205.088 131.715C200.54 126.786 203.256 116.172 206.049 110.645Z" fill="#A92F4B"/>
<path d="M189.743 167.6C190.302 170.227 191.354 172.36 193.173 173.426C195.902 175.026 198.578 175.65 200.553 175.234C201.411 175.052 202.125 174.675 202.671 174.103C204.282 172.373 203.75 169.264 201.216 165.571C198.28 161.291 200.852 158.573 203.594 155.686C205.919 153.227 208.336 150.691 206.985 147.219C206.01 144.721 203.776 143.564 200.514 143.85C195.044 144.344 190.536 148.74 189.795 154.32C189.21 158.664 188.912 163.685 189.743 167.6ZM190.77 154.463C191.081 152.109 192.121 149.989 193.628 148.337C195.148 146.685 197.136 145.502 199.358 145.033C199.761 144.942 200.164 144.89 200.592 144.851C203.438 144.604 205.231 145.489 206.049 147.583C207.18 150.47 205.088 152.681 202.879 155.009C200.125 157.91 197.006 161.2 200.397 166.143C202.645 169.407 203.217 172.074 201.944 173.426C200.527 174.948 197.136 174.597 193.68 172.568C190.51 170.708 189.47 164.27 190.77 154.463Z" fill="#A92F4B"/>
<path d="M181.635 212.25C185.624 210.807 186.963 212.81 188.899 215.71C190.64 218.298 192.796 221.524 197.643 222.668C199.293 223.059 200.878 223.046 202.372 222.733C206.283 221.914 209.48 218.988 211.013 215.71C213.079 211.301 212.169 206.905 208.622 204.225C207.076 203.068 206.27 201.962 206.114 200.857C205.906 199.296 207.076 197.787 208.323 196.188C210.051 193.963 212.013 191.453 210.506 188.228C209.324 185.691 207.102 184.183 204.243 183.962C199.488 183.61 194.161 186.836 190.666 192.156C187.677 196.708 183.896 198.698 181.025 199.556C181.038 199.881 181.064 200.233 181.077 200.571C184.156 199.686 188.275 197.592 191.484 192.702C194.135 188.67 197.864 185.912 201.502 185.145C202.398 184.95 203.295 184.885 204.165 184.95C206.647 185.132 208.57 186.446 209.596 188.644C210.831 191.31 209.22 193.378 207.518 195.563C206.205 197.254 204.841 198.997 205.101 200.974C205.283 202.353 206.231 203.666 207.985 205.006C211.74 207.841 211.532 212.172 210.077 215.281C208.128 219.443 203.295 222.981 197.838 221.693C193.368 220.639 191.406 217.726 189.691 215.151C187.755 212.25 186.066 209.727 181.558 211.21C181.61 211.561 181.622 211.899 181.635 212.25Z" fill="#A92F4B"/>
<path d="M232.152 200.193C232.49 201.923 233.53 203.107 235.063 203.523C235.881 203.744 236.791 203.744 237.752 203.549C239.896 203.094 242.248 201.637 244.171 199.452C246.146 197.215 248.121 197.501 250.849 197.891C253.5 198.269 256.8 198.75 261.01 196.838C265.687 194.705 266.467 190.283 265.22 187.07C264.076 184.17 260.997 181.646 256.917 182.999C253.994 183.962 252.097 185.457 250.408 186.758C247.835 188.761 245.626 190.491 240.546 190.179C238.025 190.022 235.998 190.699 234.556 192.182C231.75 195.056 232.126 199.933 232.139 200.128C232.152 200.167 232.152 200.18 232.152 200.193ZM233.127 200.037C233.101 199.66 232.867 195.342 235.271 192.884C236.505 191.622 238.259 191.05 240.481 191.18C245.925 191.505 248.394 189.593 251.005 187.551C252.707 186.225 254.461 184.859 257.229 183.936C260.698 182.791 263.323 184.95 264.284 187.434C265.376 190.218 264.687 194.067 260.594 195.927C256.644 197.722 253.63 197.293 250.979 196.916C249.446 196.695 248.043 196.5 246.692 196.786C245.561 197.02 244.483 197.605 243.417 198.802C240.91 201.637 237.57 203.198 235.31 202.587C234.153 202.248 233.4 201.377 233.127 200.037Z" fill="#A92F4B"/>
<path d="M275.653 224.125C272.249 229.77 273.678 236.052 277.056 238.874C278.68 240.227 280.603 240.76 282.643 240.448C282.773 240.344 282.903 240.24 283.046 240.136C283.085 239.889 283.111 239.629 283.15 239.356C281.149 239.837 279.278 239.434 277.693 238.107C274.653 235.558 273.366 229.822 276.511 224.645C279.694 219.391 277.186 217.765 274.536 216.048C272.106 214.461 269.572 212.836 269.962 208.114C270.157 205.786 271.092 203.913 272.769 202.548C274.224 201.364 276.082 200.675 277.901 200.285C279.252 199.998 280.59 199.881 281.734 199.842C281.708 199.504 281.682 199.179 281.656 198.841C278.836 198.945 274.899 199.53 272.145 201.78C270.261 203.315 269.195 205.422 268.988 208.036C268.559 213.343 271.586 215.307 274.016 216.881C276.601 218.571 278.33 219.703 275.653 224.125Z" fill="#A92F4B"/>
<path d="M193.056 255.627C193.381 255.744 193.706 255.848 194.044 255.952C194.083 254.417 194.447 251.126 196.72 248.915C198.617 247.081 201.45 246.353 205.14 246.756C210.038 247.303 212.26 249.332 214.209 251.126C217.496 254.144 219.783 255.575 228.358 249.969C231.62 247.836 234.647 246.587 237.285 246.028C241.546 245.13 244.821 246.015 246.536 247.784C248.641 249.956 248.537 253.403 246.289 257.122C246.731 257.018 247.159 256.914 247.601 256.81C249.641 252.986 249.537 249.436 247.263 247.081C244.21 243.934 236.83 243.232 227.826 249.123C219.471 254.599 217.743 253.012 214.885 250.385C212.923 248.577 210.467 246.327 205.244 245.755C201.242 245.313 198.137 246.132 196.019 248.2C193.628 250.554 193.134 253.845 193.056 255.627Z" fill="#A92F4B"/>
<path d="M248.835 239.629C250.083 242.295 254.189 244.493 258.021 243.687C258.19 243.648 258.359 243.609 258.515 243.557C264.362 241.905 267.727 237.158 267.987 230.199C268.182 224.815 267.688 219.534 262.712 217.245C262.686 217.232 262.66 217.219 262.621 217.219C262.387 217.167 256.878 215.827 253.448 218.155C252.006 219.131 251.148 220.613 250.901 222.538C250.447 225.946 251.486 228.04 252.227 229.562C253.162 231.435 253.578 232.293 250.719 234.244C248.602 235.714 247.913 237.678 248.835 239.629ZM251.278 235.09C254.682 232.761 254.189 231.318 253.123 229.146C252.395 227.663 251.473 225.803 251.876 222.694C252.097 221.056 252.811 219.807 254.007 218.988C256.93 216.998 261.828 218.064 262.335 218.181C265.895 219.833 267.247 223.319 266.987 230.16C266.818 234.751 265.155 240.643 258.242 242.607C254.799 243.57 250.836 241.58 249.732 239.213C249.017 237.691 249.55 236.273 251.278 235.09Z" fill="#A92F4B"/>
<path d="M185.663 252.609C185.962 252.765 186.274 252.908 186.586 253.051C188.665 250.619 189.522 247.966 189.119 245.196C188.47 240.695 184.715 236.923 182.233 234.894C182.246 235.337 182.246 235.779 182.246 236.221C184.559 238.263 187.599 241.567 188.145 245.339C188.509 247.862 187.703 250.268 185.754 252.518C185.715 252.544 185.689 252.583 185.663 252.609Z" fill="#A92F4B"/>
<path d="M166.525 36.1832C166.525 36.1832 151.778 33.0616 151.427 27.4299C151.115 22.2273 157.248 22.7736 157.248 22.7736C157.248 22.7736 150.088 11.0159 154.194 8.71372C158.3 6.39859 163.484 12.9928 163.484 12.9928C163.484 12.9928 159.729 -0.950011 164.745 0.0514792C169.76 1.05297 170.41 8.71372 170.41 8.71372C170.41 8.71372 187.08 2.76981 196.551 5.6182C203.009 7.55615 204.529 13.7732 204.529 13.7732C204.529 13.7732 208.362 11.4841 211.091 12.8888C213.806 14.2935 211.325 19.0798 211.325 19.0798C211.325 19.0798 215.534 22.3184 214.248 27.4689C212.962 32.6194 209.285 42.7904 209.285 42.7904L166.525 36.1832Z" fill="#39393B"/>
<path d="M187.339 77.1532L188.769 83.9426C189.691 84.4108 190.614 84.801 191.523 85.1131C204.776 89.7044 215.625 78.2718 215.625 78.2718L210.675 54.7563L190.12 74.4869L187.339 77.1532Z" fill="#EA9B7A"/>
<path d="M187.339 77.1532L188.769 83.9426C189.691 84.4108 190.614 84.801 191.523 85.1131C200.709 79.0262 205.79 66.9693 205.79 66.9693L190.133 74.4869L187.339 77.1532Z" fill="#39393B"/>
<path d="M174.294 22.2273C174.294 22.2273 158.248 27.2218 167.772 43.1286C167.759 43.1156 175.607 26.6235 174.294 22.2273Z" fill="#39393B"/>
<path d="M172.54 48.8774C172.54 48.8774 167.733 45.1315 166.512 50.152C165.29 55.1595 168.902 64.0168 174.45 61.2855L172.54 48.8774Z" fill="#D46A43"/>
<path d="M171.8 65.7076C171.8 65.7076 174.736 79.7415 189.301 76.633C203.776 73.5505 211.247 60.0889 211.649 59.4516C211.662 59.4386 211.662 59.4386 211.662 59.4386L211.195 56.4601L208.791 40.9825L207.505 32.7105C207.505 32.7105 206.257 17.5971 191.718 17.8572C181.09 18.0523 171.878 21.7721 168.162 28.1192C166.797 30.4604 166.174 33.1657 166.512 36.1832L169.149 50.9714L169.799 54.6002L171.8 65.7076Z" fill="#EA9B7A"/>
<path d="M201.515 42.8034C201.515 42.8034 199.371 51.4136 194.628 51.0234C189.886 50.6202 184.624 51.1665 180.96 53.9109C180.96 53.9109 173.619 52.8183 170.15 56.4731C167.824 58.9313 173.294 77.2183 183.442 77.8686C193.589 78.5319 205.789 72.4319 206.998 62.7292C208.206 53.0264 206.387 45.3657 206.387 45.3657L201.515 42.8034Z" fill="#39393B"/>
<path d="M177.971 58.0079C177.971 58.0079 186.17 57.1624 190.185 54.8603C190.185 54.8603 191.978 62.8722 185.053 63.5616C179.492 64.1208 177.971 58.0079 177.971 58.0079Z" fill="white"/>
<path d="M188.548 48.7603C188.769 49.7878 191.042 50.165 193.628 49.6187C196.214 49.0725 198.15 47.7979 197.929 46.7834C197.708 45.7559 195.434 45.3787 192.848 45.9249C190.263 46.4712 188.34 47.7328 188.548 48.7603Z" fill="#D46A43"/>
<path d="M169.812 54.5872C170.176 54.5482 170.565 54.4831 170.955 54.4051C173.541 53.8588 175.477 52.5842 175.256 51.5697C175.035 50.5552 172.761 50.165 170.176 50.7113C169.825 50.7893 169.487 50.8674 169.162 50.9714L169.812 54.5872Z" fill="#D46A43"/>
<path d="M187.521 43.1026C187.82 44.5073 188.691 45.5087 189.47 45.3397C190.25 45.1706 190.653 43.909 190.354 42.5043C190.055 41.0996 189.184 40.0981 188.405 40.2672C187.625 40.4363 187.222 41.6979 187.521 43.1026Z" fill="#39393B"/>
<path d="M173.658 46.029C173.957 47.4337 174.827 48.4352 175.607 48.2661C176.386 48.097 176.789 46.8354 176.49 45.4307C176.191 44.026 175.321 43.0245 174.541 43.1936C173.762 43.3627 173.359 44.6243 173.658 46.029Z" fill="#39393B"/>
<path d="M182.272 51.5827C182.597 51.5177 182.792 51.2055 182.727 50.8804C182.662 50.5682 182.35 50.3601 182.025 50.4252C179.907 50.8674 178.686 49.9699 178.244 49.5407C179.544 44.3122 180.817 39.0446 180.83 38.9925C180.908 38.6804 180.713 38.3552 180.401 38.2772C180.089 38.1992 179.764 38.3943 179.687 38.7064C179.674 38.7584 178.348 44.2211 177.023 49.5537C176.984 49.7228 177.023 49.9049 177.127 50.048C177.205 50.165 178.855 52.3111 182.272 51.5827Z" fill="#39393B"/>
<path d="M193.173 35.1947C192.537 33.777 190.718 31.2668 185.949 32.0472C185.364 32.1382 184.923 32.6324 184.897 33.2177C184.858 33.9591 185.442 34.5834 186.183 34.5704C187.482 34.5314 189.444 34.8305 190.925 36.6644C191.38 37.2367 192.251 37.2627 192.77 36.7555L192.887 36.6384C193.29 36.2612 193.394 35.6889 193.173 35.1947Z" fill="#39393B"/>
<path d="M168.941 40.3062C168.954 38.7585 169.591 35.715 174.281 34.5054C174.853 34.3623 175.451 34.6354 175.724 35.1557C176.061 35.819 175.776 36.6254 175.087 36.9115C173.879 37.4058 172.203 38.4723 171.592 40.7354C171.397 41.4377 170.63 41.8149 169.942 41.5678L169.786 41.5158C169.266 41.3337 168.941 40.8395 168.941 40.3062Z" fill="#39393B"/>
<path d="M205.88 54.7172C205.984 54.8603 208.726 58.7492 211.636 59.4516C211.649 59.4386 211.649 59.4386 211.649 59.4386L211.182 56.4601C211.195 56.4471 208.817 56.5381 205.88 54.7172Z" fill="#39393B"/>
<path d="M206.4 44.4422C206.4 44.4422 210.415 35.728 215.768 40.7874C220.173 44.9495 216.457 59.0094 208.843 56.0699L206.4 44.4422Z" fill="#EA9B7A"/>
<path d="M209.142 53.6247C209.428 53.5597 209.635 53.2866 209.609 52.9874C209.038 47.1606 213.39 44.1561 213.572 44.039C213.845 43.8569 213.91 43.4927 213.728 43.2196C213.546 42.9465 213.183 42.8815 212.91 43.0505C212.702 43.1936 207.777 46.5492 208.427 53.0914C208.453 53.4166 208.752 53.6507 209.077 53.6247C209.09 53.6377 209.116 53.6377 209.142 53.6247Z" fill="#39393B"/>
<path d="M213.78 48.9945C213.949 48.9554 214.092 48.8514 214.183 48.6823C214.326 48.3962 214.222 48.032 213.923 47.8889C213.65 47.7458 211.247 46.5493 209.609 47.3687C209.324 47.5117 209.194 47.8629 209.337 48.162C209.48 48.4482 209.83 48.5783 210.129 48.4352C211.065 47.967 212.845 48.6693 213.39 48.9554C213.507 49.0075 213.65 49.0205 213.78 48.9945Z" fill="#39393B"/>
<path d="M168.175 28.1192C168.383 28.5875 168.681 28.9646 169.071 29.2378C172.527 31.6179 178.998 29.1467 184.793 25.9212C190.588 22.6956 195.889 26.2853 195.889 26.2853C195.421 32.5934 201.359 31.839 201.06 36.6124C200.761 41.3857 202.489 47.2256 202.489 47.2256L206.023 45.977C206.361 43.7009 207.777 41.958 208.778 40.9825L207.492 32.7105C207.492 32.7105 206.244 17.5971 191.705 17.8572C181.103 18.0523 171.878 21.7591 168.175 28.1192Z" fill="#39393B"/>
<path d="M276.718 227.052C276.718 227.052 290.595 281.847 218.653 281.847C180.232 281.847 161.964 278.141 161.964 278.141C161.964 278.141 161.042 312.1 159.248 326.433C157.455 340.766 151.128 376.456 151.128 376.456L120.867 378.797C120.867 378.797 116.034 254.456 134.575 243.01C153.116 231.565 179.79 231.227 225.578 226.817C225.591 226.817 266.701 219.859 276.718 227.052Z" fill="#39393B"/>
<path d="M146.996 366.519C146.931 366.519 146.866 366.506 146.801 366.493C146.359 366.389 146.087 365.947 146.191 365.504C150.374 348.011 152.037 322.961 153.363 302.827C154.675 282.979 155.468 272.535 157.52 270.714C159.794 268.711 166.525 269.426 177.686 270.61C191.523 272.08 212.416 274.304 234.959 271.715C246.159 270.428 254.734 266.045 260.464 258.67C270.742 245.443 268.39 226.883 268.364 226.7C268.299 226.245 268.624 225.829 269.066 225.777C269.52 225.712 269.936 226.037 269.988 226.479C270.092 227.26 272.47 245.898 261.763 259.672C255.748 267.41 246.796 272.015 235.141 273.354C212.416 275.969 191.406 273.731 177.504 272.249C167.902 271.221 160.327 270.415 158.599 271.95C158.209 272.301 157.429 274.005 156.637 281.535C156.039 287.102 155.558 294.438 155 302.944C153.661 323.143 151.998 348.271 147.776 365.895C147.698 366.272 147.36 366.519 146.996 366.519Z" fill="#585859"/>
<path d="M121.205 368.99C120.776 368.99 120.412 368.652 120.386 368.21C120.36 367.755 120.711 367.364 121.153 367.338L152.102 365.465C152.557 365.439 152.947 365.791 152.973 366.233C152.999 366.688 152.648 367.078 152.206 367.104L121.257 368.977C121.231 368.99 121.218 368.99 121.205 368.99Z" fill="#585859"/>
<path d="M204.451 242.737H113.799C113.591 242.737 113.422 242.568 113.422 242.36V231.188C113.422 230.98 113.591 230.81 113.799 230.81H204.451C204.659 230.81 204.828 230.98 204.828 231.188V242.36C204.828 242.568 204.659 242.737 204.451 242.737Z" fill="#CED3E6"/>
<path d="M103.885 242.737C100.442 242.737 97.4407 240.422 96.5441 237.093L79.4453 173.01C78.4059 169.095 81.3553 165.245 85.3961 165.245H126.324C129.079 165.245 131.508 167.079 132.262 169.746L152.739 242.724H103.885V242.737Z" fill="white"/>
<path d="M132.275 169.759L152.583 242.139H157.261L136.952 169.759C136.199 167.092 133.782 165.258 131.015 165.258H126.337C129.092 165.245 131.521 167.092 132.275 169.759Z" fill="#CED3E6"/>
<path d="M120.711 205.032C121.647 209.051 119.139 212.315 115.111 212.315C111.096 212.315 107.081 209.051 106.146 205.032C105.21 201.013 107.718 197.748 111.746 197.748C115.761 197.748 119.776 201.013 120.711 205.032Z" fill="#CED3E6"/>
<path d="M176.529 216.621C176.529 216.621 157.975 217.895 152.05 223.579L155.662 236.429C155.662 236.429 166.758 231.89 169.825 232.332C172.904 232.774 174.736 237.821 185.014 234.751L176.529 216.621Z" fill="#EA9B7A"/>
<path d="M176.62 215.775L178.712 214.917L180.882 214.006C182.337 213.395 183.779 212.758 185.235 212.107C188.132 210.82 191.003 209.493 193.862 208.114C199.566 205.37 205.166 202.457 210.558 199.374C215.95 196.279 221.173 193.001 225.929 189.489C227.111 188.605 228.28 187.72 229.398 186.823C230.515 185.912 231.594 185.002 232.633 184.079C234.673 182.232 236.544 180.333 238.012 178.486C238.74 177.575 239.389 176.652 239.87 175.846C240.299 175.104 240.715 174.285 241.079 173.361C241.806 171.527 242.378 169.355 242.768 166.975C243.534 162.189 243.56 156.661 243.067 151.003C242.573 145.333 241.572 139.48 240.26 133.666C239.597 130.752 238.844 127.839 238.025 124.965C237.609 123.521 237.181 122.09 236.739 120.686C236.518 119.983 236.284 119.281 236.063 118.592L235.725 117.59L235.557 117.109L235.479 116.888L235.44 116.784L235.427 116.745C231.516 108.577 234.959 98.7698 243.118 94.8549C251.278 90.94 261.075 94.3867 264.986 102.555C265.363 103.348 265.674 104.154 265.921 104.961L266.415 106.665L266.545 107.12L266.649 107.484L266.844 108.186L267.195 109.539C267.415 110.437 267.636 111.308 267.844 112.192C268.26 113.948 268.65 115.691 269.001 117.434C269.728 120.933 270.352 124.431 270.885 127.969C271.937 135.045 272.652 142.237 272.743 149.677C272.795 153.397 272.665 157.181 272.327 161.031C271.976 164.894 271.378 168.835 270.404 172.867C269.416 176.899 268.026 181.022 265.973 185.132C264.934 187.187 263.725 189.216 262.309 191.18C260.932 193.079 259.529 194.718 258.086 196.266C255.202 199.335 252.227 201.884 249.225 204.212C246.224 206.515 243.183 208.583 240.13 210.508C234.023 214.331 227.852 217.583 221.628 220.561C215.404 223.527 209.129 226.206 202.814 228.69C199.657 229.926 196.487 231.123 193.29 232.267C191.692 232.839 190.094 233.399 188.483 233.945L186.053 234.764L183.519 235.584C178.023 237.353 172.125 234.335 170.345 228.833C168.655 223.592 171.306 217.999 176.321 215.931L176.62 215.775Z" fill="#EA9B7A"/>
<path d="M252.538 180.515C252.473 180.515 252.409 180.502 252.357 180.489C246.029 178.59 238.961 178.876 238.896 178.889C238.532 178.902 238.233 178.629 238.22 178.265C238.207 177.901 238.48 177.601 238.844 177.588C239.143 177.575 246.198 177.276 252.746 179.24C253.084 179.344 253.279 179.708 253.188 180.047C253.071 180.333 252.811 180.515 252.538 180.515Z" fill="#D46A43"/>
<path d="M240.481 178.863C240.299 178.863 240.117 178.785 239.987 178.642C239.753 178.369 239.779 177.966 240.052 177.718C242.417 175.676 245.379 174.779 245.509 174.74C245.847 174.636 246.211 174.831 246.315 175.182C246.419 175.52 246.224 175.885 245.873 175.989C245.847 176.002 243.041 176.847 240.897 178.694C240.793 178.811 240.637 178.863 240.481 178.863Z" fill="#D46A43"/>
<path d="M275.666 139.09L262.218 142.783L261.231 143.057L251.941 145.606L250.81 145.918L238.857 149.196L237.934 144.955L237.726 143.941L235.57 133.978L235.349 132.977L231.282 114.182C230.177 109.838 229.45 104.402 230.06 99.9664C230.957 93.3982 236.713 84.879 247.328 84.3067C249.225 84.2027 251.005 84.4888 252.668 85.1001C253.006 85.2042 253.344 85.3473 253.669 85.4903C256.878 86.947 259.659 89.6263 262.049 93.073C262.244 93.3462 262.426 93.6193 262.595 93.9054C267.143 100.825 270.248 110.502 272.327 119.554C272.418 119.905 272.496 120.256 272.574 120.608C273.535 124.913 274.263 129.062 274.808 132.651C274.899 133.211 274.977 133.757 275.042 134.29C275.302 136.085 275.51 137.698 275.666 139.09Z" fill="#DF615C"/>
<path d="M274.808 132.651C273.21 131.195 271.054 130.18 267.727 130.778C263.777 131.481 260.672 130.206 259.425 127.358C258.476 125.225 258.918 122.728 260.438 121.557C263.479 119.216 268.143 119.411 272.574 120.608C272.496 120.256 272.418 119.905 272.327 119.554C267.779 118.396 263.024 118.318 259.828 120.764C258.398 121.869 257.736 123.794 257.97 125.784C258.047 126.447 258.229 127.111 258.502 127.761C259.957 131.052 263.479 132.547 267.909 131.754C271.482 131.104 273.457 132.495 275.042 134.29C274.977 133.77 274.899 133.224 274.808 132.651Z" fill="#A92F4B"/>
<path d="M260.763 103.231C258.009 99.238 260.074 96.5978 262.595 93.9185C262.426 93.6323 262.244 93.3592 262.049 93.086C259.386 95.8824 256.696 99.095 259.944 103.803C262.192 107.068 262.751 109.721 261.491 111.087C260.074 112.609 256.67 112.257 253.227 110.228C250.057 108.356 249.03 101.93 250.317 92.1236C250.628 89.7694 251.668 87.6494 253.175 85.9976C253.331 85.8285 253.5 85.6594 253.669 85.5033C253.344 85.3603 253.006 85.2172 252.668 85.1131C250.888 86.947 249.693 89.3272 249.329 91.9805C248.77 96.3116 248.472 101.345 249.29 105.247C249.849 107.874 250.901 110.007 252.72 111.087C255.449 112.687 258.138 113.311 260.1 112.895C260.958 112.713 261.686 112.335 262.218 111.763C263.829 110.033 263.297 106.925 260.763 103.231Z" fill="#A92F4B"/>
<path d="M235.596 133.107C233.387 119.957 230.593 107.653 230.567 107.523C230.502 107.263 230.242 107.094 229.983 107.159C229.723 107.224 229.554 107.484 229.619 107.744C229.645 107.874 232.425 120.113 234.621 133.198C234.764 133.705 235.596 133.731 235.596 133.107Z" fill="#A92F4B"/>
<path d="M232.035 117.239C231.944 117.239 231.854 117.213 231.776 117.161L226.708 113.909C226.487 113.766 226.409 113.467 226.565 113.233C226.708 112.999 227.007 112.934 227.241 113.09L232.308 116.341C232.529 116.484 232.607 116.784 232.451 117.018C232.36 117.161 232.191 117.239 232.035 117.239Z" fill="#A92F4B"/>
<path d="M199.189 118.644C197.474 118.644 195.902 118.019 194.499 116.784C186.482 109.721 186.521 84.0466 186.521 82.9541C186.521 82.4468 186.937 82.0306 187.456 82.0306C187.976 82.0306 188.392 82.4468 188.379 82.9671C188.379 83.2272 188.34 108.876 195.72 115.379C196.98 116.484 198.358 116.927 199.904 116.719C209.765 115.418 214.248 86.6869 215.145 75.7225C215.183 75.2153 215.638 74.8251 216.145 74.8641C216.652 74.9031 217.042 75.3583 217.003 75.8656C216.99 75.9696 216.145 86.0886 213.741 96.2986C210.428 110.319 205.855 117.811 200.151 118.565C199.839 118.631 199.514 118.644 199.189 118.644Z" fill="white"/>
<path d="M273.678 358.455H176.516C174.242 358.455 172.397 356.608 172.397 354.332C172.397 352.056 174.242 350.209 176.516 350.209H273.678C275.952 350.209 277.797 352.056 277.797 354.332C277.797 356.608 275.952 358.455 273.678 358.455Z" fill="#084FC7"/>
<path d="M167.577 421.367C167.395 421.367 167.213 421.354 167.031 421.328C164.784 421.029 163.198 418.948 163.497 416.697L181.194 284.423C181.467 282.381 183.208 280.846 185.274 280.846H264.544C266.61 280.846 268.351 282.381 268.624 284.423L286.047 416.71C286.346 418.961 284.761 421.042 282.5 421.328C280.253 421.627 278.174 420.04 277.888 417.777L260.932 289.079H188.873L171.657 417.79C171.371 419.871 169.604 421.367 167.577 421.367Z" fill="#0875F7"/>
<path d="M208.232 284.969H259.711C276.017 284.969 293.492 276.034 295.987 259.906C299.339 238.328 300.158 217.44 299.235 198.269C298.183 176.587 289.763 156.453 272.73 143.017C272.73 143.017 280.084 226.648 273.444 249.748C264.596 280.612 208.232 284.969 208.232 284.969Z" fill="#0875F7"/>
<path d="M50.6788 112.752V137.49C50.6788 140.754 53.3293 143.408 56.5906 143.408H101.469L115.02 148.272C116.41 148.766 117.749 147.401 117.203 146.022L112.084 132.768V112.739C112.084 109.474 109.433 106.821 106.159 106.821H56.5906C53.3293 106.821 50.6788 109.474 50.6788 112.752Z" fill="#0875F7"/>
<path d="M89.6578 125.823C89.6578 128.19 91.5678 130.102 93.9326 130.102C96.2973 130.102 98.2073 128.177 98.2073 125.823C98.2073 123.456 96.2973 121.544 93.9326 121.544C91.5808 121.531 89.6578 123.456 89.6578 125.823Z" fill="#084FC7"/>
<path d="M76.1191 125.823C76.1191 128.19 78.0291 130.102 80.3938 130.102C82.7585 130.102 84.6685 128.177 84.6685 125.823C84.6685 123.456 82.7585 121.544 80.3938 121.544C78.0291 121.531 76.1191 123.456 76.1191 125.823Z" fill="#084FC7"/>
<path d="M62.5674 125.823C62.5674 128.19 64.4903 130.102 66.8421 130.102C69.2068 130.102 71.1168 128.177 71.1168 125.823C71.1168 123.456 69.1938 121.544 66.8421 121.544C64.4774 121.531 62.5674 123.456 62.5674 125.823Z" fill="#084FC7"/>
</svg>
