<svg width="67" height="58" viewBox="0 0 67 58" fill="none" xmlns="http://www.w3.org/2000/svg">
<path d="M62.8542 44.3783L4.12778 44.3422C1.85659 44.3422 0 42.4856 0 40.2144L0.0180154 4.12778C0.0180154 1.85659 1.87464 0 4.14582 0L62.8722 0.0360583C65.1434 0.0360583 67 1.89265 67 4.16384L66.982 40.2505C66.982 42.5397 65.1434 44.3783 62.8542 44.3783Z" fill="#DF615C"/>
<path d="M59.3573 37.7269L54.0038 57.9513L44.6486 38.9346L59.3573 37.7269Z" fill="#DF615C"/>
<path d="M48.3438 18.9264C47.1542 26.4971 33.0043 35.9783 33.0043 35.9783C33.0043 35.9783 19.3952 26.479 18.6201 18.8904C17.773 10.6708 27.5066 8.16533 33.6172 14.366C40.0522 8.18335 49.6417 10.7069 48.3438 18.9264Z" fill="white"/>
</svg>
