<svg width="76" height="21" viewBox="0 0 76 21" fill="none" xmlns="http://www.w3.org/2000/svg">
<path d="M35.8739 16.7974H23.864C22.6682 16.7974 21.7063 15.8345 21.7063 14.6375V6.34944C21.7063 5.15241 22.6682 4.18958 23.864 4.18958H35.8739C37.0697 4.18958 38.0315 5.15241 38.0315 6.34944V14.6375C38.0445 15.8345 37.0697 16.7974 35.8739 16.7974Z" fill="white"/>
<path d="M42.7628 4.18958V16.7974L37.6806 12.5167V8.47026L42.7628 4.18958Z" fill="white"/>
<path d="M64.69 21C70.4831 21 75.1792 16.299 75.1792 10.5C75.1792 4.70101 70.4831 0 64.69 0C58.897 0 54.2008 4.70101 54.2008 10.5C54.2008 16.299 58.897 21 64.69 21Z" fill="#DD615C"/>
<path d="M59.7379 16.5502C60.0238 16.5502 60.2968 16.4461 60.5177 16.2249L70.4091 6.32344C70.838 5.89407 70.838 5.19145 70.4091 4.76208C69.9801 4.33271 69.2782 4.33271 68.8493 4.76208L58.958 14.6636C58.5291 15.0929 58.5291 15.7955 58.958 16.2249C59.179 16.4461 59.4519 16.5502 59.7379 16.5502Z" fill="white"/>
<path d="M69.6292 16.5502C69.9151 16.5502 70.1881 16.4461 70.4091 16.2249C70.838 15.7955 70.838 15.0929 70.4091 14.6636L60.5177 4.76208C60.0888 4.33271 59.3869 4.33271 58.958 4.76208C58.5291 5.19145 58.5291 5.89407 58.958 6.32344L68.8493 16.2249C69.0703 16.4461 69.3562 16.5502 69.6292 16.5502Z" fill="white"/>
<path d="M5.30311 15.8215H6.30393C7.61671 15.8215 8.68255 14.7416 8.68255 13.4405V3.16174C8.68255 1.84761 7.60371 0.780675 6.30393 0.780675H5.30311C3.99034 0.780675 2.92449 1.86062 2.92449 3.16174V13.4405C2.9115 14.7416 3.99034 15.8215 5.30311 15.8215Z" fill="white"/>
<path d="M5.69304 19.3866H5.90101C6.17397 19.3866 6.39494 19.1654 6.39494 18.8922V12.803C6.39494 12.5298 6.17397 12.3086 5.90101 12.3086H5.69304C5.42009 12.3086 5.19912 12.5298 5.19912 12.803V18.8922C5.21212 19.1654 5.43309 19.3866 5.69304 19.3866Z" fill="white"/>
<path d="M1.02684 19.9331H10.5672C11.1261 19.9331 11.594 19.4777 11.594 18.9052V18.4758C11.594 17.9163 11.1391 17.4479 10.5672 17.4479H1.02684C0.467932 17.4479 0 17.9163 0 18.4758V18.9052C0 19.4647 0.467932 19.9331 1.02684 19.9331Z" fill="white"/>
</svg>
