<svg width="70" height="74" viewBox="0 0 70 74" fill="none" xmlns="http://www.w3.org/2000/svg">
<path d="M35 73.7147C54.33 73.7147 70 58.2208 70 39.1081C70 19.9954 54.33 4.50146 35 4.50146C15.67 4.50146 0 19.9954 0 39.1081C0 58.2208 15.67 73.7147 35 73.7147Z" fill="#CED3E6"/>
<path d="M35 69.2132C54.33 69.2132 70 53.7193 70 34.6066C70 15.4939 54.33 0 35 0C15.67 0 0 15.4939 0 34.6066C0 53.7193 15.67 69.2132 35 69.2132Z" fill="#21B573"/>
<path d="M35 62.7342C50.7195 62.7342 63.4627 50.1411 63.4627 34.6066C63.4627 19.0722 50.7195 6.47898 35 6.47898C19.2804 6.47898 6.53732 19.0722 6.53732 34.6066C6.53732 50.1411 19.2804 62.7342 35 62.7342Z" fill="white"/>
<path d="M63.4627 34.6066C63.4627 35.3612 63.4367 36.1028 63.3717 36.8313C62.215 22.3512 49.9331 10.9154 35 10.9154C20.0668 10.9154 7.785 22.3512 6.6283 36.8313C6.57631 36.1028 6.53732 35.3612 6.53732 34.6066C6.53732 19.0987 19.3 6.47898 35 6.47898C50.6869 6.47898 63.4627 19.0987 63.4627 34.6066Z" fill="#CED3E6"/>
<path d="M34.9999 37.5339C34.779 37.5339 34.571 37.4298 34.4281 37.2476L20.4697 18.6694C20.2357 18.3571 20.3007 17.9148 20.6126 17.6806C20.9245 17.4464 21.3794 17.5115 21.6134 17.8237L35.2338 35.9596L50.7129 29.2465C51.0768 29.0904 51.4927 29.2465 51.6486 29.6108C51.8046 29.962 51.6487 30.3784 51.2848 30.5345L35.2859 37.4818C35.1949 37.5208 35.0909 37.5339 34.9999 37.5339Z" fill="#39393B"/>
</svg>
