<svg width="93" height="95" viewBox="0 0 93 95" fill="none" xmlns="http://www.w3.org/2000/svg">
<path d="M44.4719 79.9607L21.0973 72.0219C18.6273 71.1852 17.3087 68.501 18.1454 66.031C18.9821 63.561 21.6663 62.2424 24.1296 63.0791L47.5042 71.0179C49.9742 71.8546 51.2929 74.5388 50.4561 77.0021C49.6194 79.4788 46.9419 80.8041 44.4719 79.9607Z" stroke="#4D2C5E" stroke-opacity="0.1" stroke-width="3" stroke-miterlimit="10"/>
<path d="M41.3994 89.0107L18.0249 81.0719C15.5549 80.2352 14.2362 77.551 15.0729 75.0877C15.9096 72.6177 18.5938 71.299 21.0638 72.1357L44.4384 80.0678C46.9084 80.9046 48.2271 83.5888 47.3903 86.0588C46.5469 88.5287 43.8694 89.8474 41.3994 89.0107Z" stroke="#4D2C5E" stroke-opacity="0.1" stroke-width="3" stroke-miterlimit="10"/>
<path d="M20.6221 38.6669C20.6489 38.7473 20.6689 38.8209 20.6957 38.9012C21.2178 40.568 24.297 51.1307 23.0118 62.8515L48.0865 71.125C54.0306 60.9438 62.7927 54.2968 64.2051 53.266C64.272 53.2192 64.339 53.1723 64.3992 53.1255C65.082 52.6368 65.7447 52.1147 66.3873 51.5591C70.1625 48.2993 73.1345 44.0086 74.808 38.9347C79.7413 23.9943 71.6285 7.88238 56.688 2.94909C41.7476 -1.98421 25.6357 6.12862 20.7024 21.0691C19.0223 26.1496 18.8549 31.3641 19.9527 36.2304C20.1401 37.0471 20.361 37.8637 20.6221 38.6669Z" stroke="#4D2C5E" stroke-opacity="0.1" stroke-width="3" stroke-miterlimit="10"/>
<path d="M19.3033 81.6208C19.0222 86.5742 22.0745 91.2932 27.0145 92.9265C31.8876 94.533 37.0753 92.6253 39.8331 88.589L19.3033 81.6208Z" stroke="#4D2C5E" stroke-opacity="0.1" stroke-width="3" stroke-miterlimit="10"/>
<path d="M30.8635 65.3081L38.3136 42.7301C39.0499 40.5077 37.8383 38.1114 35.616 37.3751C33.3937 36.6387 30.9973 37.8503 30.261 40.0727C29.5247 42.295 30.7363 44.6913 32.9586 45.4277L41.9014 48.3796" stroke="#4D2C5E" stroke-opacity="0.1" stroke-width="3" stroke-miterlimit="10"/>
<path d="M40.6899 68.5546L48.1401 45.9766C48.8764 43.7542 51.2727 42.5493 53.4951 43.279C55.7174 44.0153 56.9223 46.4116 56.1927 48.634C55.4564 50.8563 53.06 52.0612 50.8377 51.3316L41.8948 48.3796" stroke="#4D2C5E" stroke-opacity="0.1" stroke-width="3" stroke-miterlimit="10"/>
<path d="M80.1027 46.7129L87.6533 49.2096" stroke="#4D2C5E" stroke-opacity="0.1" stroke-width="3" stroke-miterlimit="10" stroke-linecap="round"/>
<path d="M83.5634 37.201L91.4286 36.0163" stroke="#4D2C5E" stroke-opacity="0.1" stroke-width="3" stroke-miterlimit="10" stroke-linecap="round"/>
<path d="M74.8213 54.8725L80.4307 60.5087" stroke="#4D2C5E" stroke-opacity="0.1" stroke-width="3" stroke-miterlimit="10" stroke-linecap="round"/>
<path d="M9.97219 23.5659L2.42166 21.0758" stroke="#4D2C5E" stroke-opacity="0.1" stroke-width="3" stroke-miterlimit="10" stroke-linecap="round"/>
<path d="M12.8572 13.8599L7.24789 8.22378" stroke="#4D2C5E" stroke-opacity="0.1" stroke-width="3" stroke-miterlimit="10" stroke-linecap="round"/>
<path d="M9.36306 33.2651L1.5046 34.4499" stroke="#4D2C5E" stroke-opacity="0.1" stroke-width="3" stroke-miterlimit="10" stroke-linecap="round"/>
</svg>
