<svg width="190" height="115" viewBox="0 0 190 115" fill="none" xmlns="http://www.w3.org/2000/svg">
<path d="M139.241 70.6213C139.241 70.6213 130.355 68.0593 127.614 65.1722L121.43 79.7379L142.463 86.3055C142.476 86.3055 142.762 73.5215 139.241 70.6213Z" fill="#EA9B7A"/>
<path d="M190 112.706L162.808 52.2972C161.795 52.2192 160.522 52.4923 159.093 53.0125C153.818 54.9372 146.4 60.2433 141.632 63.3515C141.073 63.7156 140.553 64.0538 140.073 64.3529C139.267 64.8471 138.579 65.2373 138.059 65.4844C133.863 67.3701 136.071 69.633 136.071 69.633C143.892 73.5475 139.124 85.148 143.892 87.8531C143.892 87.8531 145.919 89.0366 152.389 91.8847C158.859 94.7328 165.368 101.612 171.396 107.244C179.178 114.527 184.063 115.372 186.856 114.709C189.091 114.188 190 112.706 190 112.706Z" fill="#EBB12B"/>
<path d="M190 112.706L162.808 52.2972C161.795 52.2192 160.522 52.4923 159.093 53.0125L186.856 114.709C189.091 114.188 190 112.706 190 112.706Z" fill="#C77E2E"/>
<path d="M165.588 58.4616L164.783 56.6669C163.549 59.385 161.158 62.4672 156.585 64.2749C150.492 66.6678 144.854 64.8991 141.645 63.3645C141.086 63.7287 140.566 64.0668 140.086 64.3659C143.347 66.1216 149.855 68.6186 157.157 65.7575C161.522 64.0148 164.081 61.1667 165.588 58.4616Z" fill="#C77E2E"/>
<path d="M155.494 89.2577C155.299 88.8155 154.805 88.5424 154.299 88.6334C153.701 88.7374 153.311 89.3097 153.415 89.9079L154.182 94.1085C154.286 94.7068 154.857 95.0969 155.455 94.9929C156.053 94.8889 156.442 94.3166 156.338 93.7184L155.572 89.5177C155.559 89.4267 155.533 89.3357 155.494 89.2577Z" fill="white"/>
<path d="M150.674 86.9167C150.479 86.4745 149.985 86.2015 149.479 86.2925C148.881 86.3965 148.491 86.9687 148.595 87.567L149.362 91.7676C149.466 92.3659 150.037 92.756 150.635 92.652C151.233 92.5479 151.622 91.9757 151.518 91.3775L150.752 87.1768C150.739 87.0858 150.713 86.9947 150.674 86.9167Z" fill="white"/>
<path d="M159.391 92.0407C159.197 91.5985 158.703 91.3255 158.196 91.4165C157.599 91.5205 157.209 92.0927 157.313 92.691L158.079 96.8916C158.183 97.4899 158.755 97.88 159.352 97.776C159.95 97.6719 160.34 97.0997 160.236 96.5015L159.469 92.3008C159.443 92.2098 159.417 92.1187 159.391 92.0407Z" fill="white"/>
<path d="M163.198 94.8628C163.003 94.4207 162.509 94.1476 162.003 94.2386C161.405 94.3426 161.015 94.9149 161.119 95.5131L161.886 99.7138C161.99 100.312 162.561 100.702 163.159 100.598C163.757 100.494 164.146 99.9218 164.042 99.3236L163.276 95.1229C163.25 95.0319 163.224 94.9409 163.198 94.8628Z" fill="white"/>
<path d="M166.992 98.1011C166.797 97.6589 166.303 97.3858 165.796 97.4769C165.199 97.5809 164.809 98.1531 164.913 98.7514L165.679 102.952C165.783 103.55 166.355 103.94 166.953 103.836C167.55 103.732 167.94 103.16 167.836 102.562L167.07 98.3612C167.057 98.2702 167.031 98.1791 166.992 98.1011Z" fill="white"/>
<path d="M170.655 101.821C170.46 101.378 169.967 101.105 169.46 101.196C168.862 101.3 168.473 101.873 168.577 102.471L169.343 106.671C169.447 107.27 170.019 107.66 170.616 107.556C171.214 107.452 171.604 106.88 171.5 106.281L170.733 102.081C170.72 101.977 170.694 101.899 170.655 101.821Z" fill="white"/>
<path d="M41.3744 6.14213C41.3744 6.14213 19.5093 -5.66648 6.8553 3.46309C-16.296 20.1616 22.9911 52.2712 67.9425 67.9553C112.894 83.6394 127.484 81.4936 127.484 81.4936C127.484 81.4936 137.253 78.8015 133.785 62.9614C133.785 62.9614 107.879 53.1035 94.3937 42.7774C80.9083 32.4514 71.7231 19.7975 41.3744 6.14213Z" fill="#21B573"/>
<path d="M132.031 67.5781C122.599 65.3152 103.397 56.4848 80.6485 43.9869C63.6293 34.6363 44.0118 22.6846 41.1276 18.536C39.5686 16.2991 39.1789 14.4654 39.9584 13.0868C41.1277 11.032 44.5055 10.8239 46.0385 10.8369C46.4283 10.8369 46.74 11.1751 46.714 11.5652C46.6881 11.9294 46.3893 12.2025 46.0255 12.2025C44.5185 12.1895 41.8811 12.4496 41.1406 13.7631C40.517 14.8555 41.4004 16.5332 42.2449 17.7426C44.5704 21.0849 60.992 31.6191 81.2981 42.7774C98.7849 52.3882 121.378 63.5986 132.343 66.2386L132.031 67.5781Z" fill="#217C58"/>
<path d="M130.251 60.8675C129.186 69.1908 127.029 76.7597 122.339 82.573C122.339 82.573 126.366 85.4731 130.043 83.3923C132.849 81.8057 138.267 68.8006 136.201 61.8559C133.85 60.5554 131.823 60.1132 130.251 60.8675Z" fill="#217C58"/>
</svg>
