<svg width="270" height="296" viewBox="0 0 270 296" fill="none" xmlns="http://www.w3.org/2000/svg">
<path d="M212.148 217.168H179.237C179.237 217.168 171.619 180.644 169.074 160.175C166.511 139.688 165.193 91.1495 165.193 91.1495C165.193 91.1495 138.975 99.6753 84.0826 96.4537C-37.5391 89.3518 8.57856 0 8.57856 0C12.6902 5.67793 37.8582 1.74432 55.07 4.44979C107.88 9.52255 153.66 30.2408 181.141 42.095C187.763 44.9429 193.636 47.9687 198.798 51.1548C205.419 55.2308 209.567 67.6368 212.076 83.923C219.57 132.889 212.148 217.168 212.148 217.168Z" fill="#39393B"/>
<path d="M183.331 199.564C182.779 199.564 182.298 199.173 182.174 198.621C177.421 175.126 175.837 145.882 174.556 122.387C173.488 102.897 172.491 84.4927 169.981 82.2856C167.952 80.4879 159.533 81.894 148.889 83.6561C127.691 87.1803 95.6521 92.4845 60.3385 84.2791C41.0976 79.7937 26.9473 70.4491 18.2969 56.4945C3.3634 32.4301 10.1805 2.58089 10.2517 2.27831C10.3941 1.63754 11.0348 1.24597 11.6756 1.40617C12.3164 1.54856 12.7079 2.18931 12.5478 2.83008C12.4766 3.11486 5.90868 32.0385 20.326 55.2665C28.6382 68.6692 42.2902 77.6578 60.8903 81.983C95.7588 90.0994 127.513 84.8309 148.533 81.3422C161.117 79.2597 168.718 77.9959 171.583 80.5234C174.68 83.2645 175.552 96.7207 176.941 122.262C178.222 145.686 179.806 174.823 184.523 198.158C184.648 198.799 184.238 199.422 183.598 199.546C183.473 199.564 183.402 199.564 183.331 199.564Z" fill="#585859"/>
<path d="M212.771 200.187H212.753L176.158 199.404C175.499 199.386 174.983 198.852 175.001 198.194C175.019 197.535 175.553 197.019 176.211 197.037L212.806 197.82C213.465 197.838 213.981 198.372 213.963 199.03C213.945 199.671 213.411 200.187 212.771 200.187Z" fill="#585859"/>
<path d="M211.24 259.316H188.012L183.544 232.083L181.088 217.168H209.941L210.403 232.083L211.24 259.316Z" fill="#EA9B7A"/>
<path d="M211.24 259.316H188.012L184.683 239.043L183.544 232.084H210.403L210.635 239.292L211.24 259.316Z" fill="#FAAF3A"/>
<path d="M210.635 239.292L184.683 239.043L183.544 232.084H210.403L210.635 239.292Z" fill="#C77E2E"/>
<path d="M268.553 296H180.714C180.056 294.808 179.7 293.134 179.557 291.123C179.006 283.683 181.373 271.829 182.53 264.353C182.672 263.481 182.797 262.662 182.886 261.932C183.046 260.687 183.153 259.636 183.153 258.871C183.153 252.766 188.546 253.816 188.546 253.816C197.428 262.538 207.502 249.455 213.376 253.745C213.376 253.745 213.607 253.923 214.159 254.332C214.657 254.724 215.405 255.329 216.437 256.201C217.932 257.447 220.033 259.263 222.88 261.826C229.858 268.109 241.712 272.238 251.804 276.457C253.086 276.991 254.278 277.542 255.4 278.076C256.236 278.486 257.037 278.895 257.785 279.287C266.043 283.736 268.66 288.008 269.265 291.105C269.852 294.096 268.553 296 268.553 296Z" fill="#0875F7"/>
<path d="M257.802 279.304C255.542 281.102 250.505 284.715 246.464 284.715C246.286 284.715 246.108 284.715 245.93 284.697C243.083 284.466 232.617 279.322 224.091 274.641C219.214 271.953 214.746 269.319 211.542 267.201C206.292 263.73 205.366 262.413 205.17 261.487C204.405 258.017 210.136 255.614 214.159 254.35C214.657 254.741 215.405 255.347 216.437 256.219C211.453 257.572 207.342 259.707 207.538 260.936C208.036 261.968 213.233 265.919 225.657 272.736C235.144 277.934 244.133 282.117 246.126 282.295C248.832 282.508 252.801 280.052 255.4 278.112C256.254 278.503 257.055 278.913 257.802 279.304Z" fill="#084FC7"/>
<path d="M268.553 296H180.714C180.056 294.807 179.7 293.134 179.557 291.123H269.283C269.852 294.095 268.553 296 268.553 296Z" fill="#084FC7"/>
<path d="M189.667 296H187.051C189.649 293.027 192.088 288.453 191.768 281.939C191.34 273.253 186.143 267.414 182.512 264.353C182.654 263.481 182.779 262.662 182.868 261.932C186.766 264.905 193.334 271.437 193.85 281.832C194.188 288.061 192.141 292.707 189.667 296Z" fill="#084FC7"/>
<path d="M221.403 267.023C220.762 267.023 220.157 266.578 219.997 265.919C219.801 265.136 220.282 264.353 221.047 264.157L226.529 262.787C227.312 262.591 228.096 263.072 228.291 263.837C228.487 264.62 228.007 265.403 227.241 265.599L221.759 266.97C221.635 267.005 221.51 267.023 221.403 267.023Z" fill="white"/>
<path d="M215.957 262.466C215.316 262.466 214.711 262.021 214.55 261.363C214.355 260.58 214.835 259.797 215.601 259.601L221.083 258.23C221.866 258.035 222.649 258.515 222.845 259.28C223.041 260.064 222.56 260.847 221.795 261.025L216.313 262.395C216.188 262.449 216.063 262.466 215.957 262.466Z" fill="white"/>
<path d="M226.885 270.209C226.245 270.209 225.639 269.764 225.479 269.106C225.283 268.322 225.764 267.539 226.529 267.361L232.011 265.991C232.795 265.795 233.578 266.276 233.774 267.041C233.969 267.824 233.489 268.607 232.723 268.803L227.241 270.174C227.117 270.209 227.01 270.209 226.885 270.209Z" fill="white"/>
<path d="M232.367 273.288C231.709 273.288 231.121 272.843 230.961 272.185C230.766 271.402 231.246 270.619 232.011 270.423L237.494 269.052C238.277 268.856 239.06 269.337 239.256 270.102C239.452 270.886 238.971 271.669 238.206 271.847L232.723 273.217C232.617 273.271 232.492 273.288 232.367 273.288Z" fill="white"/>
<path d="M238.366 276.118C237.725 276.118 237.12 275.673 236.96 275.015C236.764 274.232 237.244 273.448 238.01 273.27L243.492 271.9C244.275 271.704 245.058 272.185 245.254 272.95C245.45 273.733 244.969 274.516 244.204 274.712L238.722 276.083C238.597 276.1 238.473 276.118 238.366 276.118Z" fill="white"/>
<path d="M244.845 278.539C244.204 278.539 243.599 278.094 243.439 277.436C243.243 276.652 243.723 275.869 244.489 275.673L249.971 274.303C250.754 274.107 251.537 274.588 251.733 275.353C251.929 276.136 251.448 276.919 250.683 277.097L245.201 278.468C245.076 278.521 244.969 278.539 244.845 278.539Z" fill="white"/>
</svg>
