<svg width="150" height="85" viewBox="0 0 150 85" fill="none" xmlns="http://www.w3.org/2000/svg">
<path fill-rule="evenodd" clip-rule="evenodd" d="M7.04262 25.547C8.02407 26.5119 9.58388 26.497 10.5567 25.5294C22.2187 14.3126 34.4979 8.60705 47.0179 8.46408C59.2089 8.32655 71.5252 13.6153 83.6088 24.0941C86.2948 26.3813 90.4466 31.1436 94.0988 36.7662C91.0343 41.1741 88.9923 46.394 87.984 51.423C86.4969 58.8504 87.5797 65.6797 90.0307 69.0621C91.3889 70.935 93.1401 72.0828 95.1877 72.5613C97.8087 73.17 101.37 72.6269 105.457 69.1599C111.097 64.3541 112.468 57.4921 110.783 49.94C109.893 45.97 108.097 41.8038 105.859 37.8001C108.448 35.7332 111.67 34.5375 115.59 34.968C123.889 35.8229 130.111 42.6373 134.537 50.6548C138.375 57.5907 143 67.8372 141.777 75.979C141.363 78.7458 140.153 81.1237 142.437 83.385C145.933 86.8836 149.137 83.262 149.711 79.4618C150.939 71.2982 148.029 61.4643 145.158 53.9334C139.887 40.0746 129.997 27.6099 116.642 25.8914C110.381 25.1146 105.069 26.7794 100.765 29.8727C96.681 24.2044 92.2758 19.5147 89.3854 17.161C75.0836 5.74857 60.6901 0.44127 46.7638 1.24853C32.8513 2.04781 19.3582 8.87862 7.02498 22.0329C6.06012 23.0144 6.06116 24.5822 7.04262 25.547ZM99.8065 47.771C100.675 50.0742 101.262 52.3371 101.434 54.4888C101.648 57.2251 101.121 59.7625 98.9879 61.5658C98.6266 61.8667 98.1865 62.2868 97.8251 62.5877C97.5533 61.6375 97.0831 59.7686 97.0762 58.2226C97.0767 54.7718 97.8612 50.6655 99.4357 46.841C99.5838 47.1615 99.7021 47.4622 99.8065 47.771Z" fill="#4D2C5E"/>
<path fill-rule="evenodd" clip-rule="evenodd" d="M97.4969 62.8501C97.2525 62.7144 97.0183 62.6283 97.037 62.8204C97.0658 63.0621 97.2281 63.0238 97.4969 62.8501Z" fill="#4D2C5E"/>
<path fill-rule="evenodd" clip-rule="evenodd" d="M13.8754 20.0901C15.0117 17.5519 16.1096 14.8514 16.8929 12.2772C18.098 8.26017 18.6148 4.58516 17.6237 1.90983C17.3145 0.575306 15.969 -0.253173 14.6424 0.0698619C13.3079 0.379059 12.4795 1.7246 12.8025 3.05114C12.8709 3.71284 12.64 4.39966 12.4215 5.17165C11.9222 6.99141 10.8048 8.89122 9.58905 10.9401C8.03487 13.5535 6.16551 16.1642 4.5708 18.5795C3.11976 20.7643 1.90985 22.7914 1.14004 24.3983C-0.0755945 26.9268 -0.141432 29.0499 0.133664 30.2934C0.210427 30.6181 2.9057 35.4463 7.51532 33.523C9.16329 32.8299 13.2474 30.8594 13.4492 30.7613C15.9029 29.4185 20.4607 26.99 24.8017 25.72C26.1735 25.3155 27.4979 24.9568 28.7047 24.9058C28.7686 25.0165 28.8326 25.1272 28.9103 25.2299C30.0373 26.8304 32.2292 27.2071 33.8376 26.094C34.7291 25.5608 35.8919 24.0592 36.203 23.1599C36.7998 21.4131 36.1354 20.0068 34.505 18.8446C32.284 17.2669 29.0711 16.8154 25.4591 17.111C21.6629 17.4391 17.3619 18.7783 13.8754 20.0901ZM9.8661 28.1986C9.59689 28.7231 9.50546 29.108 9.86856 29.1936C10.2753 29.2909 10.0046 28.5984 9.8661 28.1986Z" fill="#4D2C5E"/>
</svg>
