<svg width="189" height="130" viewBox="0 0 189 130" fill="none" xmlns="http://www.w3.org/2000/svg">
<path d="M47.8034 81.0691C47.8034 81.0691 56.7796 79.3321 59.3237 76.2499L66.4864 90.4202L45.8595 98.413C45.8464 98.4261 44.4634 84.2035 47.8034 81.0691Z" fill="#EA9B7A"/>
<path d="M0 128.06L23.1972 65.7103C24.2149 65.5536 25.4934 65.7495 26.9677 66.1805C32.3821 67.7608 40.171 72.5669 45.1549 75.3748C45.742 75.7013 46.2769 76.0017 46.7857 76.2629C47.6338 76.707 48.3384 77.0596 48.8863 77.2555C53.2179 78.8619 51.4174 80.0896 51.4174 80.0896C42.8848 84.0991 49.1342 97.0286 44.5417 100.072C44.5417 100.072 42.5847 101.391 36.2962 104.682C30.0076 107.973 23.9409 115.3 18.2786 121.347C10.9724 129.157 6.13201 130.345 3.28781 129.862C1.01767 129.483 0 128.06 0 128.06Z" fill="#EBB12B"/>
<path d="M0 128.06L23.1972 65.7103C24.2149 65.5536 25.4934 65.7495 26.9677 66.1805L3.27476 129.862C1.01766 129.483 0 128.06 0 128.06Z" fill="#C77E2E"/>
<path d="M20.8227 72.0706L21.5141 70.2161C22.9362 72.8543 25.5325 75.7928 30.2424 77.2816C36.5049 79.2798 42.0367 77.1249 45.1549 75.3618C45.742 75.6883 46.2769 75.9887 46.7857 76.2499C43.6415 78.2351 37.2747 81.1736 29.7728 78.7836C25.2716 77.36 22.5057 74.6827 20.8227 72.0706Z" fill="#C77E2E"/>
<path d="M32.9954 102.253C33.165 101.796 33.6346 101.482 34.1434 101.547C34.7435 101.613 35.1742 102.161 35.1089 102.762L34.6262 107.02C34.561 107.62 34.0129 108.051 33.4128 107.986C32.8126 107.921 32.3821 107.372 32.4473 106.772L32.9301 102.514C32.9431 102.422 32.9693 102.331 32.9954 102.253Z" fill="white"/>
<path d="M37.6791 99.5884C37.8488 99.1313 38.3184 98.8179 38.8273 98.8832C39.4274 98.9485 39.858 99.497 39.7927 100.098L39.31 104.355C39.2448 104.956 38.6968 105.387 38.0967 105.322C37.4965 105.257 37.066 104.708 37.1312 104.107L37.6139 99.8496C37.627 99.7582 37.6531 99.6668 37.6791 99.5884Z" fill="white"/>
<path d="M29.29 105.296C29.4596 104.839 29.9293 104.538 30.4382 104.59C31.0383 104.656 31.4688 105.204 31.4036 105.805L30.9209 110.063C30.8556 110.663 30.3077 111.094 29.7075 111.029C29.1074 110.964 28.6769 110.415 28.7421 109.815L29.2248 105.557C29.2379 105.465 29.2509 105.387 29.29 105.296Z" fill="white"/>
<path d="M25.663 108.391C25.8326 107.934 26.3023 107.633 26.8112 107.686C27.4113 107.751 27.8419 108.3 27.7767 108.9L27.2939 113.158C27.2286 113.759 26.6807 114.19 26.0805 114.124C25.4804 114.059 25.0499 113.511 25.1151 112.91L25.5978 108.652C25.6109 108.561 25.6369 108.469 25.663 108.391Z" fill="white"/>
<path d="M22.0751 111.878C22.2448 111.421 22.7144 111.121 23.2233 111.173C23.8234 111.238 24.254 111.787 24.1888 112.387L23.706 116.645C23.6408 117.246 23.0928 117.677 22.4927 117.611C21.8925 117.546 21.462 116.998 21.5272 116.397L22.0099 112.139C22.023 112.048 22.0491 111.969 22.0751 111.878Z" fill="white"/>
<path d="M18.6439 115.848C18.8135 115.391 19.2831 115.078 19.7919 115.143C20.3921 115.208 20.8227 115.757 20.7575 116.358L20.2747 120.615C20.2095 121.216 19.6615 121.647 19.0613 121.582C18.4612 121.516 18.0306 120.968 18.0959 120.367L18.5786 116.11C18.5916 116.018 18.6178 115.927 18.6439 115.848Z" fill="white"/>
<path d="M146.711 8.33699C146.711 8.33699 167.482 -5.49376 180.985 2.47295C205.683 17.035 169.347 52.7677 125.836 72.593C82.3383 92.4184 67.5432 91.6217 67.5432 91.6217C67.5432 91.6217 57.5363 89.8325 59.5325 73.664C59.5325 73.664 84.5301 61.4135 97.0681 49.8422C109.606 38.284 117.63 24.7798 146.711 8.33699Z" fill="#21B573"/>
<path d="M108.719 80.0504C106.318 80.834 103.892 81.6307 101.373 82.4273C91.6406 85.4965 80.5247 88.7093 70.4657 91.1777L70.4266 92.6143C79.5202 90.3941 90.1793 87.3902 101.778 83.7334C104.048 83.0151 106.357 82.2706 108.68 81.5001L108.719 80.0504Z" fill="#217C58"/>
<path d="M61.7243 78.1175C70.9484 74.983 89.3444 64.3912 110.937 49.79C127.089 38.8717 145.615 25.1062 148.107 20.6919C149.451 18.3149 149.686 16.4473 148.772 15.1413C147.416 13.1953 144.023 13.2868 142.484 13.4435C142.093 13.4827 141.805 13.8484 141.871 14.2402C141.936 14.5928 142.249 14.8409 142.614 14.8148C144.128 14.6711 146.776 14.6842 147.65 15.9249C148.368 16.9567 147.65 18.7198 146.92 20.0128C144.911 23.5651 129.45 35.6066 110.167 48.6537C93.5715 59.8724 72.0052 73.1677 61.2808 76.8245L61.7243 78.1175Z" fill="#217C58"/>
<path d="M62.8725 71.2478C64.699 79.4757 67.5563 86.8417 72.7881 92.2225C72.7881 92.2225 69.0305 95.5006 65.1687 93.7505C62.2201 92.4184 55.6054 79.9067 57.0275 72.7759C59.2585 71.274 61.2416 70.634 62.8725 71.2478Z" fill="#217C58"/>
</svg>
