<svg width="69" height="13" viewBox="0 0 69 13" fill="none" xmlns="http://www.w3.org/2000/svg">
<path d="M0.0514665 3.81241C0.177154 4.18947 0.500372 4.45879 0.859479 4.53061C1.03903 4.56652 1.23654 4.56654 1.41609 4.49472C1.6136 4.4229 20.8079 -1.78964 40.9897 6.57755C51.2422 10.833 60.3635 12.4489 67.7431 12.3053C67.7791 11.8744 67.815 11.4793 67.8509 11.0843C67.8509 11.0304 67.8688 10.9766 67.8688 10.9407C67.8688 10.9407 68.2818 10.6714 69 10.1686C61.7461 10.5277 52.4631 8.98353 41.8156 4.58447C20.8617 -4.10591 1.54177 2.17845 0.733778 2.44778C0.177163 2.64529 -0.128087 3.25579 0.0514665 3.81241Z" fill="#084FC7"/>
</svg>
